<?xml version="1.0" encoding="UTF-8" standalone="no"?>
<!-- Created with Inkscape (http://www.inkscape.org/) -->

<svg
   xmlns:dc="http://purl.org/dc/elements/1.1/"
   xmlns:cc="http://creativecommons.org/ns#"
   xmlns:rdf="http://www.w3.org/1999/02/22-rdf-syntax-ns#"
   xmlns:svg="http://www.w3.org/2000/svg"
   xmlns="http://www.w3.org/2000/svg"
   xmlns:sodipodi="http://sodipodi.sourceforge.net/DTD/sodipodi-0.dtd"
   xmlns:inkscape="http://www.inkscape.org/namespaces/inkscape"
   version="1.1"
   id="svg815"
   xml:space="preserve"
   width="793.70667"
   height="570.90131"
   viewBox="0 0 793.70667 570.90131"
   sodipodi:docname="SNAP ON AIR LOGO_final.svg"
   inkscape:version="0.92.4 (5da689c313, 2019-01-14)"><metadata
     id="metadata821"><rdf:RDF><cc:Work
         rdf:about=""><dc:format>image/svg+xml</dc:format><dc:type
           rdf:resource="http://purl.org/dc/dcmitype/StillImage" /><dc:title></dc:title></cc:Work></rdf:RDF></metadata><defs
     id="defs819"><clipPath
       clipPathUnits="userSpaceOnUse"
       id="clipPath833"><path
         d="M 0,428.176 H 595.28 V 0 H 0 Z"
         id="path831"
         inkscape:connector-curvature="0" /></clipPath><clipPath
       clipPathUnits="userSpaceOnUse"
       id="clipPath871"><path
         d="M 0,428.176 H 595.28 V 0 H 0 Z"
         id="path869"
         inkscape:connector-curvature="0" /></clipPath><clipPath
       clipPathUnits="userSpaceOnUse"
       id="clipPath883"><path
         d="m 387.218,249.113 h 63.075 v -73.577 h -63.075 z"
         id="path881"
         inkscape:connector-curvature="0" /></clipPath><clipPath
       clipPathUnits="userSpaceOnUse"
       id="clipPath899"><path
         d="m 443.107,262.388 h 38.228 v -80.751 h -38.228 z"
         id="path897"
         inkscape:connector-curvature="0" /></clipPath><clipPath
       clipPathUnits="userSpaceOnUse"
       id="clipPath915"><path
         d="m 356.171,248.6 h 31.922 v -77.636 h -31.922 z"
         id="path913"
         inkscape:connector-curvature="0" /></clipPath><clipPath
       clipPathUnits="userSpaceOnUse"
       id="clipPath931"><path
         d="m 370.567,259.211 h 96.376 v -91.217 h -96.376 z"
         id="path929"
         inkscape:connector-curvature="0" /></clipPath><clipPath
       clipPathUnits="userSpaceOnUse"
       id="clipPath959"><path
         d="M 348.953,204.85 H 482.246 V 167.802 H 348.953 Z"
         id="path957"
         inkscape:connector-curvature="0" /></clipPath></defs><sodipodi:namedview
     pagecolor="#ffffff"
     bordercolor="#666666"
     borderopacity="1"
     objecttolerance="10"
     gridtolerance="10"
     guidetolerance="10"
     inkscape:pageopacity="0"
     inkscape:pageshadow="2"
     inkscape:window-width="1920"
     inkscape:window-height="1017"
     id="namedview817"
     showgrid="false"
     inkscape:zoom="1.4328221"
     inkscape:cx="396.85333"
     inkscape:cy="285.45065"
     inkscape:window-x="-8"
     inkscape:window-y="-8"
     inkscape:window-maximized="1"
     inkscape:current-layer="g867" /><g
     id="g823"
     inkscape:groupmode="layer"
     inkscape:label="SNAP ON AIR LOGO_final"
     transform="matrix(1.3333333,0,0,-1.3333333,0,570.90133)"><path
       d="M 0,0 H 595.28 V 428.176 H 0 Z"
       style="fill:none;fill-opacity:1;fill-rule:nonzero;stroke:none"
       id="path825"
       inkscape:connector-curvature="0" /><g
       id="g827"
       style="fill:none;fill-opacity:1;stroke:#000000;stroke-opacity:1"><g
         id="g829"
         clip-path="url(#clipPath833)"
         style="fill:none;fill-opacity:1;stroke:#000000;stroke-opacity:1"><g
           id="g835"
           transform="translate(476.081,322.3506)"
           style="fill:none;fill-opacity:1;stroke:#000000;stroke-opacity:1"><path
             d="m 0,0 h -126.632 c -21.676,0 -39.313,-17.636 -39.313,-39.312 v -126.635 c 0,-18.364 12.656,-33.827 29.705,-38.124 l -42.037,-57.025 135.61,55.836 H 0 c 21.676,0 39.312,17.636 39.312,39.313 V -39.312 C 39.312,-17.636 21.676,0 0,0"
             style="fill:none;fill-opacity:1;fill-rule:nonzero;stroke:#000000;stroke-opacity:1"
             id="path837"
             inkscape:connector-curvature="0" /></g><g
           id="g839"
           transform="translate(511.9243,260.8225)"
           style="fill:none;fill-opacity:1;stroke:#000000;stroke-opacity:1"><path
             d="m 0,0 c 0,0 -0.012,0.259 -0.064,0.745 -0.057,0.484 -0.137,1.198 -0.305,2.096 -0.316,1.799 -0.914,4.364 -2.056,7.315 -0.578,1.47 -1.291,3.037 -2.204,4.605 -0.913,1.565 -2.015,3.143 -3.346,4.586 -1.326,1.444 -2.884,2.754 -4.616,3.748 -1.726,1.01 -3.618,1.68 -5.518,2.025 -0.476,0.065 -0.953,0.163 -1.427,0.19 l -1.42,0.074 c -0.936,-0.025 -1.874,-0.043 -2.774,-0.202 -0.445,-0.069 -0.923,-0.122 -1.333,-0.206 -0.417,-0.085 -0.833,-0.169 -1.246,-0.253 -0.825,-0.171 -1.64,-0.34 -2.442,-0.506 -3.205,-0.683 -6.182,-1.399 -8.724,-2.072 -2.542,-0.678 -4.649,-1.302 -6.119,-1.773 -0.737,-0.223 -1.31,-0.434 -1.704,-0.562 -0.391,-0.139 -0.6,-0.213 -0.6,-0.213 0,0 0.222,-0.002 0.637,-0.004 0.414,0.008 1.024,-0.002 1.794,0.029 1.542,0.038 3.738,0.142 6.361,0.336 2.622,0.201 5.67,0.504 8.921,0.912 0.812,0.107 1.637,0.215 2.473,0.325 0.837,0.112 1.692,0.239 2.471,0.308 1.598,0.155 3.227,0.16 4.817,-0.151 1.591,-0.271 3.143,-0.809 4.597,-1.573 1.452,-0.771 2.802,-1.772 4.018,-2.919 2.437,-2.299 4.32,-5.116 5.741,-7.677 C -2.638,6.615 -1.639,4.29 -0.981,2.64 -0.661,1.811 -0.4,1.155 -0.245,0.699 -0.085,0.243 0,0 0,0"
             style="fill:none;fill-opacity:1;fill-rule:nonzero;stroke:#000000;stroke-opacity:1"
             id="path841"
             inkscape:connector-curvature="0" /></g><g
           id="g843"
           transform="translate(316.2252,227.7376)"
           style="fill:none;fill-opacity:1;stroke:#000000;stroke-opacity:1"><path
             d="m 0,0 c 0,0 0,0.258 0.001,0.741 -0.003,0.481 0.028,1.187 0.058,2.075 0.079,1.775 0.257,4.299 0.764,7.194 0.5,2.885 1.353,6.166 2.898,9.138 0.772,1.482 1.718,2.872 2.836,4.077 1.122,1.199 2.41,2.218 3.824,2.997 1.399,0.816 2.94,1.347 4.5,1.725 0.758,0.192 1.607,0.353 2.435,0.522 0.825,0.171 1.64,0.34 2.442,0.506 3.205,0.683 6.183,1.399 8.725,2.072 2.541,0.678 4.649,1.302 6.119,1.773 0.737,0.224 1.31,0.434 1.703,0.562 0.391,0.139 0.6,0.213 0.6,0.213 0,0 -0.221,0.002 -0.637,0.004 -0.413,-0.008 -1.024,0.003 -1.793,-0.028 -1.543,-0.039 -3.739,-0.143 -6.362,-0.337 -2.622,-0.201 -5.67,-0.504 -8.92,-0.912 -0.812,-0.106 -1.638,-0.215 -2.474,-0.324 -0.417,-0.057 -0.837,-0.114 -1.259,-0.171 -0.415,-0.056 -0.884,-0.163 -1.326,-0.244 -0.903,-0.146 -1.795,-0.437 -2.687,-0.721 L 10.13,30.326 C 9.692,30.144 9.273,29.895 8.845,29.677 7.164,28.727 5.598,27.472 4.299,25.951 2.991,24.442 1.949,22.693 1.172,20.893 0.389,19.093 -0.133,17.24 -0.48,15.462 -0.827,13.681 -0.986,11.967 -1.048,10.389 -1.157,7.226 -0.879,4.607 -0.586,2.804 -0.449,1.901 -0.29,1.2 -0.184,0.725 -0.074,0.249 0,0 0,0"
             style="fill:none;fill-opacity:1;fill-rule:nonzero;stroke:#000000;stroke-opacity:1"
             id="path845"
             inkscape:connector-curvature="0" /></g><g
           id="g847"
           transform="translate(450.8909,161.1734)"
           style="fill:none;fill-opacity:1;stroke:#000000;stroke-opacity:1"><path
             d="m 0,0 c 0,0 -0.168,-0.081 -0.482,-0.234 -0.315,-0.148 -0.776,-0.365 -1.362,-0.642 -0.583,-0.278 -1.306,-0.582 -2.117,-0.955 -0.821,-0.354 -1.747,-0.747 -2.76,-1.155 -2.021,-0.829 -4.396,-1.713 -6.961,-2.536 -0.64,-0.211 -1.298,-0.394 -1.957,-0.603 -0.666,-0.183 -1.339,-0.369 -2.018,-0.556 -0.681,-0.174 -1.367,-0.35 -2.06,-0.504 l -1.039,-0.241 -1.048,-0.204 c -1.394,-0.295 -2.802,-0.494 -4.188,-0.689 -0.696,-0.077 -1.386,-0.153 -2.069,-0.228 -0.685,-0.05 -1.362,-0.098 -2.028,-0.146 -0.668,-0.025 -1.326,-0.049 -1.969,-0.072 -0.647,-10e-4 -1.279,-10e-4 -1.894,-0.002 -1.232,0.041 -2.403,0.078 -3.486,0.181 -0.271,0.02 -0.537,0.039 -0.797,0.058 -0.259,0.031 -0.513,0.061 -0.76,0.09 -0.495,0.055 -0.968,0.097 -1.411,0.155 -0.879,0.159 -1.662,0.242 -2.301,0.359 -0.635,0.133 -1.143,0.21 -1.489,0.275 -0.347,0.057 -0.533,0.087 -0.533,0.087 0,0 0.171,-0.095 0.491,-0.272 0.323,-0.169 0.793,-0.436 1.405,-0.74 0.612,-0.296 1.367,-0.618 2.242,-0.975 0.881,-0.303 1.877,-0.706 2.986,-0.979 0.554,-0.141 1.132,-0.312 1.734,-0.431 0.605,-0.114 1.23,-0.232 1.872,-0.354 0.646,-0.081 1.309,-0.165 1.987,-0.251 0.678,-0.06 1.372,-0.09 2.079,-0.137 0.705,-0.019 1.422,-0.015 2.148,-0.014 0.723,0.032 1.457,0.056 2.192,0.119 1.47,0.127 2.956,0.332 4.423,0.623 1.469,0.286 2.917,0.665 4.324,1.1 1.407,0.434 2.769,0.937 4.062,1.489 1.297,0.541 2.522,1.144 3.665,1.749 1.141,0.613 2.198,1.236 3.152,1.856 0.958,0.609 1.803,1.234 2.547,1.789 0.744,0.557 1.369,1.082 1.877,1.525 C -0.526,-0.583 0,0 0,0"
             style="fill:none;fill-opacity:1;fill-rule:nonzero;stroke:#000000;stroke-opacity:1"
             id="path849"
             inkscape:connector-curvature="0" /></g></g></g><text
       transform="matrix(1,0,0,-1,78.3955,216.8613)"
       style="font-variant:normal;font-weight:normal;font-stretch:normal;font-size:118.1242981px;font-family:'NHL San Jose';-inkscape-font-specification:NHLSanJose;writing-mode:lr-tb;fill:#000000;fill-opacity:1;fill-rule:nonzero;stroke:none;"
       id="text853"><tspan
         x="0 54.927799 111.39121 168.56337"
         y="0"
         sodipodi:role="line"
         id="tspan851">Snap</tspan></text>
<text
       transform="matrix(1,0,0,-1,78.3955,125.793)"
       style="font-variant:normal;font-weight:normal;font-stretch:normal;font-size:101.9536972px;font-family:'NHL San Jose';-inkscape-font-specification:NHLSanJose;writing-mode:lr-tb;fill:#000000;fill-opacity:1;fill-rule:nonzero;stroke:none;"
       id="text859"><tspan
         x="0 47.510426"
         y="0"
         sodipodi:role="line"
         id="tspan855">On</tspan><tspan
         x="96.244293 145.58989 172.30176"
         y="0"
         sodipodi:role="line"
         id="tspan857">Air</tspan></text>
<text
       transform="matrix(1,0,0,-1,152.9531,89.5488)"
       style="font-variant:normal;font-weight:bold;font-stretch:normal;font-size:59.08520126px;font-family:BankGothic;-inkscape-font-specification:BankGothicBold;writing-mode:lr-tb;fill:#000000;fill-opacity:1;fill-rule:nonzero;stroke:none;"
       id="text863"><tspan
         x="0 19.557201 57.60807 99.853989"
         y="0"
         sodipodi:role="line"
         id="tspan861">.com</tspan></text>
<g
       id="g865"><g
         id="g867"
         clip-path="url(#clipPath871)"><g
           id="g873"
           transform="translate(324.2208,243.8055)"><path
             d="M 0,0 C 0.832,1.44 2.146,2.395 3.644,2.648 L 169.155,30.63 c 1.497,0.253 3.051,-0.217 4.311,-1.302 1.258,-1.086 2.114,-2.695 2.375,-4.464 0.081,-0.554 1.968,-13.773 -0.452,-30.807 -1.983,-13.975 -6.249,-26.446 -12.68,-37.068 -12.501,-20.644 -32.611,-33.44 -59.773,-38.031 -42.934,-7.259 -68.45,12.341 -82.292,30.057 -3.998,5.108 -7.648,10.842 -10.848,17.043 C 1.903,-18.651 -0.668,-5.55 -0.774,-5 -1.111,-3.243 -0.832,-1.44 0,0"
             style="fill:#020202;fill-opacity:1;fill-rule:nonzero;stroke:none"
             id="path875"
             inkscape:connector-curvature="0" /></g><g
           id="g877"><g
             id="g879" /><g
             id="g891"><g
               clip-path="url(#clipPath883)"
               id="g889"
               style="opacity:0.69999701"><g
                 transform="translate(424.911,175.9138)"
                 id="g887"><path
                   d="m 0,0 c -17.079,-2.887 -33.681,11.073 -37.081,31.182 -3.399,20.109 7.69,38.752 24.77,41.639 C 4.768,75.709 21.37,61.748 24.77,41.639 28.169,21.53 17.079,2.887 0,0"
                   style="fill:#792019;fill-opacity:1;fill-rule:nonzero;stroke:none"
                   id="path885"
                   inkscape:connector-curvature="0" /></g></g></g></g><g
           id="g893"><g
             id="g895" /><g
             id="g907"><g
               clip-path="url(#clipPath899)"
               id="g905"
               style="opacity:0.19999701"><g
                 transform="translate(466.0091,220.3131)"
                 id="g903"><path
                   d="m 0,0 c -2.797,16.542 -11.445,30.352 -22.902,38.898 l 18.796,3.177 C 4.926,31.505 11.5,17.872 14.118,2.387 c 1.226,-7.25 1.491,-14.401 0.92,-21.289 C 9.975,-26.271 3.281,-33.108 -5.544,-38.676 0.107,-27.645 2.377,-14.061 0,0"
                   style="fill:#792019;fill-opacity:1;fill-rule:nonzero;stroke:none"
                   id="path901"
                   inkscape:connector-curvature="0" /></g></g></g></g><g
           id="g909"><g
             id="g911" /><g
             id="g923"><g
               clip-path="url(#clipPath915)"
               id="g921"
               style="opacity:0.19999701"><g
                 transform="translate(361.5485,245.4224)"
                 id="g919"><path
                   d="M 0,0 18.796,3.178 C 10.785,-8.659 7.157,-24.544 9.953,-41.087 c 2.256,-13.343 8.32,-24.911 16.592,-33.372 -10.283,2.949 -18.838,7.875 -25.927,13.788 -2.133,5.406 -3.762,11.159 -4.783,17.198 C -6.783,-27.989 -5.056,-12.952 0,0"
                   style="fill:#792019;fill-opacity:1;fill-rule:nonzero;stroke:none"
                   id="path917"
                   inkscape:connector-curvature="0" /></g></g></g></g><g
           id="g925"><g
             id="g927" /><g
             id="g939"><g
               clip-path="url(#clipPath931)"
               id="g937"
               style="opacity:0.5"><g
                 transform="translate(449.6806,217.5526)"
                 id="g935"><path
                   d="m 0,0 c 3.4,-20.109 -7.69,-38.751 -24.77,-41.639 -17.079,-2.887 -33.681,11.074 -37.08,31.183 -3.4,20.109 7.69,38.751 24.769,41.638 C -20.001,34.07 -3.4,20.109 0,0 M -6.573,41.658 -69.336,31.047 c -8.011,-11.836 -11.639,-27.721 -8.843,-44.264 2.256,-13.343 8.32,-24.911 16.592,-33.372 10.955,-3.142 23.866,-4.044 39.071,-1.473 13.558,2.292 24.489,6.588 33.3,12.147 5.651,11.03 7.922,24.614 5.544,38.675 C 13.532,19.303 4.883,33.113 -6.573,41.658"
                   style="fill:#792019;fill-opacity:1;fill-rule:nonzero;stroke:none"
                   id="path933"
                   inkscape:connector-curvature="0" /></g></g></g></g><g
           id="g941"
           transform="translate(412.9132,213.692)"><path
             d="m 0,0 -0.043,-0.007 c 1.662,4.09 1.552,7.475 1.292,9.266 l -0.131,0.775 -0.11,0.652 -3.493,20.657 8.36,1.413 L 9.764,9.754 C 10.253,7.899 11.352,5.145 13.829,2.335 H 13.828 C 15.44,0.717 16.623,-1.513 17.059,-4.093 18.049,-9.945 14.821,-15.371 9.85,-16.211 4.88,-17.052 0.048,-12.988 -0.941,-7.136 -1.378,-4.555 -0.992,-2.058 0,0"
             style="fill:#601713;fill-opacity:1;fill-rule:nonzero;stroke:none"
             id="path943"
             inkscape:connector-curvature="0" /></g><g
           id="g945"
           transform="translate(348.9526,197.1289)"
           style="fill:#323232;fill-opacity:1"><path
             d="m 0,0 c 14.379,-18.404 38.297,-34.386 77.099,-27.827 29.31,4.956 46.366,19.263 56.195,35.495 0,0 -25.499,11.518 -62.041,-1.051 0,0 -34.845,18.71 -71.253,-6.617"
             style="fill:#323232;fill-opacity:1;fill-rule:nonzero;stroke:none"
             id="path947"
             inkscape:connector-curvature="0" /></g><g
           id="g949"
           transform="translate(348.9526,197.129)"><path
             d="m 0,0 c 0.409,-0.524 0.824,-1.038 1.249,-1.56 35.08,21.759 67.674,4.26 67.674,4.26 34.818,11.971 59.606,2.086 61.867,1.129 0.887,1.256 1.716,2.537 2.504,3.839 0,0 -25.499,11.518 -62.041,-1.051 0,0 -34.845,18.71 -71.253,-6.617"
             style="fill:#757575;fill-opacity:1;fill-rule:nonzero;stroke:none"
             id="path951"
             inkscape:connector-curvature="0" /></g><g
           id="g953"><g
             id="g955" /><g
             id="g967"
             style="fill:#757575;fill-opacity:1"><g
               clip-path="url(#clipPath959)"
               id="g965"
               style="opacity:0.50999499;fill:#757575;fill-opacity:1"><g
                 transform="translate(348.9526,197.1289)"
                 id="g963"
                 style="fill:#757575;fill-opacity:1"><path
                   d="m 0,0 c 14.379,-18.404 38.297,-34.386 77.099,-27.826 29.31,4.955 46.366,19.262 56.195,35.494 0,0 -0.033,0.012 -0.108,0.054 -10.09,-14.919 -26.781,-27.727 -54.183,-32.359 -37.912,-6.41 -61.621,8.7 -76.1,26.566 C 1.938,1.316 0.97,0.676 0,0"
                   style="fill:#757575;fill-opacity:1;fill-rule:nonzero;stroke:none"
                   id="path961"
                   inkscape:connector-curvature="0" /></g></g></g></g><g
           id="g969"
           transform="translate(473.0064,259.452)"><path
             d="m 0,0 3.108,-18.386 c 0.437,-2.584 -0.988,-4.98 -3.183,-5.351 l -15.801,-2.672 c -2.196,-0.371 -4.329,1.424 -4.766,4.008 l -3.108,18.386 c -0.437,2.584 0.988,4.98 3.183,5.351 L -4.766,4.008 C -2.571,4.379 -0.437,2.585 0,0"
             style="fill:#ffffff;fill-opacity:1;fill-rule:nonzero;stroke:none"
             id="path971"
             inkscape:connector-curvature="0" /></g><g
           id="g973"
           transform="translate(452.5501,260.1344)"><path
             d="m 0,0 c -1.886,-0.319 -3.114,-2.384 -2.739,-4.604 l 3.108,-18.385 c 0.376,-2.22 2.215,-3.767 4.1,-3.448 l 15.802,2.671 c 1.885,0.319 3.113,2.384 2.738,4.604 l -3.108,18.386 c -0.375,2.219 -2.215,3.766 -4.1,3.447 z M -0.741,-23.177 -3.85,-4.792 c -0.497,2.941 1.131,5.678 3.629,6.1 L 15.58,3.979 c 2.498,0.423 4.935,-1.626 5.432,-4.568 l 3.108,-18.385 c 0.497,-2.941 -1.13,-5.677 -3.628,-6.1 L 4.691,-27.745 c -2.498,-0.422 -4.935,1.627 -5.432,4.568"
             style="fill:#792019;fill-opacity:1;fill-rule:nonzero;stroke:none"
             id="path975"
             inkscape:connector-curvature="0" /></g><g
           id="g977"
           transform="translate(461.6027,258.6299)"><path
             d="m 0,0 c 0,0 -0.256,-0.02 -0.704,-0.054 -0.445,-0.048 -1.086,-0.091 -1.847,-0.189 -0.761,-0.099 -1.652,-0.193 -2.601,-0.333 -0.242,-0.038 -0.466,-0.061 -0.734,-0.113 -0.234,-0.038 -0.5,-0.117 -0.759,-0.225 -0.498,-0.213 -0.963,-0.548 -1.351,-0.978 -0.774,-0.867 -1.21,-2.116 -1.196,-3.313 -0.008,-0.6 0.121,-1.175 0.221,-1.669 0.103,-0.507 0.2,-0.986 0.289,-1.429 0.176,-0.886 0.356,-1.618 0.466,-2.134 0.123,-0.513 0.192,-0.807 0.192,-0.807 0,0 -0.03,0.3 -0.083,0.825 -0.066,0.524 -0.136,1.275 -0.262,2.169 -0.061,0.447 -0.127,0.932 -0.197,1.445 -0.072,0.524 -0.145,1.031 -0.127,1.556 0.032,1.048 0.42,2.124 1.1,2.869 0.333,0.379 0.733,0.676 1.165,0.869 0.209,0.086 0.419,0.165 0.671,0.22 0.214,0.053 0.473,0.094 0.702,0.141 0.942,0.18 1.815,0.384 2.566,0.541 0.751,0.157 1.37,0.328 1.807,0.429 C -0.248,-0.066 0,0 0,0"
             style="fill:#f7f7f5;fill-opacity:1;fill-rule:nonzero;stroke:none"
             id="path979"
             inkscape:connector-curvature="0" /></g><g
           id="g981"
           transform="translate(494.9455,263.0236)"><path
             d="m 0,0 c 0.298,-4.563 0.466,-11.976 -0.535,-20.708 -0.208,-1.814 -1.403,-3.207 -2.955,-3.469 l -10.909,-1.844 c -2.011,-0.34 -3.965,1.303 -4.365,3.67 l -3.242,19.173 c -0.4,2.367 0.906,4.562 2.916,4.902 L -4.427,4.203 C -2.238,4.573 -0.17,2.603 0,0"
             style="fill:#ffffff;fill-opacity:1;fill-rule:nonzero;stroke:none"
             id="path983"
             inkscape:connector-curvature="0" /></g><g
           id="g985"
           transform="translate(475.9662,264.0931)"><path
             d="m 0,0 c -1.701,-0.288 -2.809,-2.151 -2.471,-4.154 l 3.242,-19.173 c 0.338,-2.002 1.998,-3.398 3.698,-3.11 l 10.91,1.844 c 1.322,0.224 2.328,1.404 2.504,2.937 0.988,8.62 0.834,15.945 0.532,20.572 -0.069,1.056 -0.521,2.052 -1.24,2.732 -0.715,0.677 -1.631,0.98 -2.512,0.831 z m -0.34,-23.514 -3.242,19.173 c -0.46,2.724 1.047,5.258 3.361,5.649 l 14.663,2.479 c 1.199,0.202 2.444,-0.21 3.417,-1.131 0.977,-0.924 1.591,-2.277 1.685,-3.71 0.307,-4.69 0.462,-12.113 -0.538,-20.845 -0.24,-2.09 -1.608,-3.698 -3.406,-4.002 L 4.691,-27.745 c -2.314,-0.391 -4.571,1.507 -5.031,4.231"
             style="fill:#792019;fill-opacity:1;fill-rule:nonzero;stroke:none"
             id="path987"
             inkscape:connector-curvature="0" /></g><g
           id="g989"
           transform="translate(485.4421,262.6602)"><path
             d="m 0,0 c 0,0 -0.256,-0.02 -0.704,-0.054 -0.445,-0.048 -1.086,-0.091 -1.847,-0.189 -0.761,-0.099 -1.652,-0.193 -2.601,-0.333 -0.242,-0.038 -0.466,-0.061 -0.734,-0.113 -0.234,-0.038 -0.5,-0.117 -0.759,-0.225 -0.498,-0.213 -0.963,-0.548 -1.351,-0.978 -0.774,-0.867 -1.21,-2.116 -1.196,-3.313 -0.008,-0.601 0.121,-1.175 0.221,-1.669 0.103,-0.507 0.2,-0.986 0.29,-1.429 0.175,-0.886 0.355,-1.618 0.465,-2.134 0.123,-0.513 0.192,-0.807 0.192,-0.807 0,0 -0.03,0.3 -0.083,0.825 -0.066,0.524 -0.136,1.275 -0.262,2.169 -0.061,0.447 -0.127,0.932 -0.197,1.445 -0.072,0.524 -0.145,1.031 -0.127,1.556 0.032,1.048 0.42,2.123 1.1,2.869 0.333,0.379 0.733,0.676 1.165,0.869 0.209,0.086 0.419,0.165 0.671,0.22 0.214,0.053 0.473,0.094 0.702,0.141 0.942,0.18 1.815,0.384 2.566,0.541 0.751,0.157 1.37,0.328 1.807,0.429 C -0.248,-0.066 0,0 0,0"
             style="fill:#f7f7f5;fill-opacity:1;fill-rule:nonzero;stroke:none"
             id="path991"
             inkscape:connector-curvature="0" /></g><g
           id="g993"
           transform="translate(422.1348,251.0391)"><path
             d="m 0,0 3.17,-18.75 c 0.42,-2.484 -0.95,-4.787 -3.06,-5.143 L -16,-26.617 c -2.11,-0.357 -4.161,1.368 -4.581,3.852 l -3.169,18.75 c -0.42,2.484 0.949,4.786 3.059,5.143 L -4.58,3.852 C -2.471,4.208 -0.42,2.484 0,0"
             style="fill:#ffffff;fill-opacity:1;fill-rule:nonzero;stroke:none"
             id="path995"
             inkscape:connector-curvature="0" /></g><g
           id="g997"
           transform="translate(401.5544,251.513)"><path
             d="m 0,0 c -1.8,-0.304 -2.973,-2.276 -2.615,-4.395 l 3.17,-18.75 c 0.358,-2.12 2.114,-3.596 3.914,-3.292 l 16.111,2.724 c 1.8,0.304 2.973,2.276 2.615,4.395 l -3.17,18.75 c -0.358,2.119 -2.114,3.596 -3.914,3.292 z m -0.556,-23.333 -3.17,18.75 c -0.48,2.84 1.092,5.483 3.505,5.891 l 16.11,2.723 c 2.413,0.408 4.767,-1.571 5.247,-4.411 l 3.17,-18.75 c 0.48,-2.84 -1.092,-5.483 -3.505,-5.891 l -16.11,-2.724 c -2.413,-0.408 -4.767,1.571 -5.247,4.412"
             style="fill:#792019;fill-opacity:1;fill-rule:nonzero;stroke:none"
             id="path999"
             inkscape:connector-curvature="0" /></g><g
           id="g1001"
           transform="translate(410.5144,249.9929)"><path
             d="m 0,0 c 0,0 -0.256,-0.02 -0.704,-0.054 -0.445,-0.048 -1.086,-0.091 -1.847,-0.189 -0.761,-0.099 -1.652,-0.193 -2.601,-0.333 -0.242,-0.038 -0.466,-0.061 -0.734,-0.113 -0.234,-0.038 -0.5,-0.117 -0.759,-0.225 -0.498,-0.213 -0.963,-0.548 -1.351,-0.978 -0.774,-0.867 -1.21,-2.116 -1.196,-3.313 -0.008,-0.6 0.121,-1.175 0.221,-1.669 0.103,-0.507 0.2,-0.986 0.29,-1.429 0.175,-0.886 0.355,-1.618 0.465,-2.134 0.123,-0.513 0.192,-0.807 0.192,-0.807 0,0 -0.03,0.3 -0.083,0.825 -0.066,0.524 -0.136,1.275 -0.262,2.169 -0.061,0.447 -0.127,0.932 -0.197,1.445 -0.072,0.524 -0.145,1.031 -0.127,1.556 0.032,1.048 0.42,2.124 1.1,2.869 0.333,0.379 0.733,0.676 1.165,0.869 0.209,0.086 0.419,0.165 0.671,0.22 0.214,0.053 0.473,0.094 0.702,0.141 0.942,0.18 1.815,0.384 2.566,0.541 0.751,0.157 1.37,0.328 1.807,0.429 C -0.248,-0.066 0,0 0,0"
             style="fill:#f7f7f5;fill-opacity:1;fill-rule:nonzero;stroke:none"
             id="path1003"
             inkscape:connector-curvature="0" /></g><g
           id="g1005"
           transform="translate(449.242,255.5191)"><path
             d="m 0,0 3.136,-18.55 c 0.429,-2.539 -0.971,-4.893 -3.127,-5.258 l -19.281,-3.259 c -2.157,-0.365 -4.253,1.398 -4.682,3.937 l -3.136,18.55 c -0.43,2.539 0.971,4.893 3.127,5.258 L -4.682,3.937 C -2.525,4.302 -0.429,2.539 0,0"
             style="fill:#ffffff;fill-opacity:1;fill-rule:nonzero;stroke:none"
             id="path1007"
             inkscape:connector-curvature="0" /></g><g
           id="g1009"
           transform="translate(425.3897,255.5426)"><path
             d="m 0,0 c -1.847,-0.312 -3.05,-2.335 -2.683,-4.51 l 3.136,-18.55 c 0.368,-2.174 2.17,-3.689 4.016,-3.377 l 19.281,3.26 c 1.847,0.312 3.05,2.335 2.683,4.509 l -3.136,18.55 c -0.368,2.175 -2.169,3.69 -4.016,3.378 z m -0.657,-23.247 -3.136,18.55 c -0.49,2.895 1.113,5.589 3.572,6.005 L 19.06,4.567 c 2.459,0.416 4.858,-1.601 5.348,-4.497 l 3.136,-18.55 c 0.489,-2.895 -1.113,-5.59 -3.573,-6.005 l -19.28,-3.26 c -2.46,-0.416 -4.859,1.602 -5.348,4.498"
             style="fill:#792019;fill-opacity:1;fill-rule:nonzero;stroke:none"
             id="path1011"
             inkscape:connector-curvature="0" /></g><g
           id="g1013"
           transform="translate(434.3539,254.0232)"><path
             d="m 0,0 c 0,0 -0.256,-0.02 -0.704,-0.054 -0.445,-0.048 -1.086,-0.091 -1.847,-0.189 -0.761,-0.099 -1.652,-0.193 -2.601,-0.333 -0.242,-0.038 -0.466,-0.061 -0.734,-0.113 -0.234,-0.038 -0.5,-0.117 -0.759,-0.225 -0.498,-0.213 -0.963,-0.548 -1.351,-0.978 -0.774,-0.867 -1.21,-2.116 -1.196,-3.313 -0.008,-0.6 0.121,-1.175 0.221,-1.669 0.103,-0.507 0.2,-0.986 0.289,-1.429 0.176,-0.886 0.356,-1.618 0.466,-2.134 0.123,-0.513 0.192,-0.807 0.192,-0.807 0,0 -0.03,0.3 -0.083,0.825 -0.066,0.524 -0.136,1.275 -0.262,2.169 -0.061,0.447 -0.127,0.932 -0.197,1.445 -0.072,0.524 -0.145,1.031 -0.127,1.556 0.032,1.048 0.42,2.124 1.1,2.869 0.333,0.379 0.733,0.676 1.165,0.869 0.209,0.086 0.419,0.165 0.671,0.22 0.214,0.053 0.473,0.094 0.702,0.141 0.942,0.18 1.815,0.384 2.566,0.541 0.751,0.157 1.37,0.328 1.807,0.429 C -0.248,-0.066 0,0 0,0"
             style="fill:#e6e7e8;fill-opacity:1;fill-rule:nonzero;stroke:none"
             id="path1015"
             inkscape:connector-curvature="0" /></g><g
           id="g1017"
           transform="translate(376.7948,243.7729)"><path
             d="m 0,0 3.301,-19.526 c 0.384,-2.27 -0.868,-4.374 -2.796,-4.699 l -16.769,-2.836 c -1.928,-0.325 -3.802,1.25 -4.185,3.52 l -3.301,19.526 c -0.384,2.269 0.867,4.373 2.795,4.699 l 16.77,2.835 C -2.257,3.845 -0.384,2.27 0,0"
             style="fill:#ffffff;fill-opacity:1;fill-rule:nonzero;stroke:none"
             id="path1019"
             inkscape:connector-curvature="0" /></g><g
           id="g1021"
           transform="translate(355.9507,243.8033)"><path
             d="M 0,0 C -1.618,-0.274 -2.673,-2.046 -2.351,-3.952 L 0.95,-23.477 c 0.322,-1.906 1.901,-3.234 3.519,-2.96 l 16.77,2.835 c 1.619,0.274 2.673,2.046 2.351,3.952 L 20.289,-0.124 C 19.967,1.781 18.388,3.109 16.77,2.835 Z m -0.161,-23.665 -3.301,19.526 c -0.444,2.626 1.01,5.07 3.241,5.447 L 16.548,4.143 C 18.779,4.52 20.956,2.69 21.4,0.064 l 3.301,-19.526 c 0.444,-2.627 -1.01,-5.071 -3.241,-5.448 L 4.691,-27.745 c -2.231,-0.377 -4.408,1.453 -4.852,4.08"
             style="fill:#792019;fill-opacity:1;fill-rule:nonzero;stroke:none"
             id="path1023"
             inkscape:connector-curvature="0" /></g><g
           id="g1025"
           transform="translate(365.6111,242.4015)"><path
             d="m 0,0 c 0,0 -0.256,-0.02 -0.704,-0.054 -0.445,-0.048 -1.086,-0.091 -1.847,-0.189 -0.761,-0.099 -1.652,-0.193 -2.601,-0.333 -0.242,-0.038 -0.466,-0.061 -0.734,-0.113 -0.234,-0.038 -0.5,-0.117 -0.759,-0.225 -0.498,-0.213 -0.963,-0.548 -1.351,-0.978 -0.774,-0.867 -1.21,-2.116 -1.196,-3.313 -0.008,-0.6 0.121,-1.175 0.221,-1.669 0.103,-0.507 0.2,-0.986 0.29,-1.429 0.175,-0.886 0.355,-1.618 0.465,-2.134 0.123,-0.513 0.192,-0.807 0.192,-0.807 0,0 -0.03,0.3 -0.083,0.825 -0.066,0.524 -0.136,1.275 -0.262,2.169 -0.061,0.447 -0.127,0.932 -0.197,1.445 -0.072,0.524 -0.145,1.031 -0.127,1.556 0.032,1.048 0.421,2.124 1.1,2.869 0.333,0.379 0.733,0.676 1.165,0.869 0.209,0.086 0.419,0.165 0.671,0.22 0.214,0.053 0.473,0.094 0.702,0.141 0.942,0.18 1.815,0.384 2.566,0.541 0.751,0.157 1.37,0.328 1.807,0.429 C -0.248,-0.066 0,0 0,0"
             style="fill:#f7f7f5;fill-opacity:1;fill-rule:nonzero;stroke:none"
             id="path1027"
             inkscape:connector-curvature="0" /></g><g
           id="g1029"
           transform="translate(398.3982,246.9416)"><path
             d="M 0,0 3.142,-18.586 C 3.57,-21.115 2.175,-23.46 0.027,-23.823 l -13.745,-2.323 c -2.148,-0.364 -4.236,1.392 -4.664,3.922 l -3.142,18.585 c -0.427,2.529 0.967,4.874 3.116,5.237 L -4.664,3.922 C -2.516,4.285 -0.428,2.529 0,0"
             style="fill:#ffffff;fill-opacity:1;fill-rule:nonzero;stroke:none"
             id="path1031"
             inkscape:connector-curvature="0" /></g><g
           id="g1033"
           transform="translate(380.1003,247.886)"><path
             d="m 0,0 c -1.838,-0.311 -3.036,-2.325 -2.67,-4.489 l 3.142,-18.586 c 0.366,-2.164 2.159,-3.673 3.997,-3.362 l 13.745,2.324 c 1.839,0.31 3.036,2.325 2.67,4.489 l -3.142,18.586 c -0.366,2.164 -2.159,3.672 -3.997,3.362 z m -0.639,-23.263 -3.142,18.586 c -0.488,2.886 1.109,5.571 3.56,5.985 l 13.745,2.324 c 2.45,0.414 4.841,-1.597 5.329,-4.483 l 3.142,-18.585 c 0.488,-2.886 -1.109,-5.571 -3.56,-5.985 L 4.691,-27.745 c -2.451,-0.414 -4.842,1.596 -5.33,4.482"
             style="fill:#792019;fill-opacity:1;fill-rule:nonzero;stroke:none"
             id="path1035"
             inkscape:connector-curvature="0" /></g><g
           id="g1037"
           transform="translate(389.4507,246.4318)"><path
             d="m 0,0 c 0,0 -0.256,-0.02 -0.704,-0.054 -0.445,-0.048 -1.086,-0.091 -1.847,-0.189 -0.761,-0.099 -1.652,-0.193 -2.601,-0.333 -0.242,-0.038 -0.466,-0.061 -0.734,-0.113 -0.234,-0.038 -0.5,-0.117 -0.759,-0.225 -0.498,-0.213 -0.963,-0.548 -1.351,-0.978 -0.774,-0.867 -1.21,-2.116 -1.196,-3.313 -0.008,-0.6 0.121,-1.175 0.221,-1.669 0.103,-0.507 0.2,-0.986 0.289,-1.429 0.176,-0.886 0.356,-1.618 0.466,-2.134 0.123,-0.513 0.192,-0.807 0.192,-0.807 0,0 -0.03,0.3 -0.083,0.825 -0.066,0.524 -0.136,1.275 -0.262,2.169 -0.061,0.447 -0.127,0.932 -0.197,1.445 -0.072,0.524 -0.145,1.031 -0.127,1.556 0.032,1.048 0.42,2.124 1.1,2.869 0.333,0.379 0.733,0.676 1.165,0.869 0.209,0.086 0.419,0.165 0.671,0.22 0.214,0.053 0.473,0.094 0.702,0.141 0.942,0.18 1.815,0.384 2.566,0.541 0.751,0.157 1.37,0.328 1.807,0.429 C -0.248,-0.066 0,0 0,0"
             style="fill:#f7f7f5;fill-opacity:1;fill-rule:nonzero;stroke:none"
             id="path1039"
             inkscape:connector-curvature="0" /></g><g
           id="g1041"
           transform="translate(353.1628,239.0568)"><path
             d="m 0,0 3.064,-18.124 c 0.449,-2.657 -1.016,-5.12 -3.272,-5.501 l -11.246,-1.902 c -1.766,-0.298 -3.547,0.78 -4.443,2.656 -3.542,7.415 -5.733,14.041 -6.967,18.394 -0.798,2.817 0.683,5.675 3.141,6.091 L -4.899,4.12 C -2.642,4.501 -0.449,2.657 0,0"
             style="fill:#ffffff;fill-opacity:1;fill-rule:nonzero;stroke:none"
             id="path1043"
             inkscape:connector-curvature="0" /></g><g
           id="g1045"
           transform="translate(333.5508,240.0163)"><path
             d="m 0,0 c -1.017,-0.172 -1.899,-0.851 -2.418,-1.863 -0.516,-1.005 -0.624,-2.243 -0.297,-3.397 1.204,-4.247 3.382,-10.865 6.921,-18.273 0.779,-1.632 2.323,-2.556 3.841,-2.299 l 11.246,1.901 c 1.947,0.329 3.215,2.462 2.828,4.754 L 19.057,-1.053 C 18.669,1.239 16.77,2.835 14.824,2.506 Z m 3.224,-24.128 c -3.585,7.504 -5.792,14.211 -7.012,18.515 -0.431,1.52 -0.289,3.15 0.39,4.473 0.682,1.33 1.84,2.222 3.177,2.448 l 14.824,2.506 c 2.559,0.433 5.055,-1.667 5.564,-4.68 l 3.064,-18.124 c 0.51,-3.013 -1.158,-5.816 -3.717,-6.249 L 8.268,-27.14 c -1.996,-0.337 -4.023,0.873 -5.044,3.012"
             style="fill:#792019;fill-opacity:1;fill-rule:nonzero;stroke:none"
             id="path1047"
             inkscape:connector-curvature="0" /></g><g
           id="g1049"
           transform="translate(343.5578,238.6732)"><path
             d="m 0,0 c 0,0 -0.256,-0.02 -0.704,-0.054 -0.445,-0.048 -1.086,-0.091 -1.847,-0.189 -0.761,-0.099 -1.652,-0.193 -2.601,-0.333 -0.242,-0.038 -0.466,-0.061 -0.734,-0.113 -0.234,-0.038 -0.5,-0.117 -0.759,-0.225 -0.498,-0.213 -0.963,-0.548 -1.351,-0.978 -0.774,-0.867 -1.21,-2.116 -1.196,-3.313 -0.008,-0.6 0.121,-1.175 0.221,-1.669 0.103,-0.507 0.2,-0.986 0.29,-1.429 0.175,-0.886 0.355,-1.618 0.465,-2.134 0.123,-0.513 0.192,-0.807 0.192,-0.807 0,0 -0.03,0.3 -0.083,0.825 -0.066,0.524 -0.136,1.275 -0.262,2.169 -0.061,0.447 -0.127,0.932 -0.197,1.445 -0.072,0.524 -0.145,1.031 -0.127,1.556 0.032,1.048 0.421,2.124 1.1,2.869 0.333,0.379 0.733,0.676 1.165,0.869 0.209,0.086 0.419,0.165 0.671,0.22 0.214,0.053 0.473,0.094 0.702,0.141 0.942,0.18 1.815,0.384 2.566,0.541 0.751,0.157 1.37,0.328 1.807,0.429 C -0.248,-0.066 0,0 0,0"
             style="fill:#f7f7f5;fill-opacity:1;fill-rule:nonzero;stroke:none"
             id="path1051"
             inkscape:connector-curvature="0" /></g><g
           id="g1053"
           transform="translate(487.5557,344.7628)"
           style="stroke:#000000;stroke-opacity:1;fill:none"><path
             d="m 0,0 c 0,3.282 2.67,5.951 5.952,5.951 3.281,0 5.951,-2.669 5.951,-5.951 0,-3.281 -2.67,-5.951 -5.951,-5.951 C 2.67,-5.951 0,-3.281 0,0 m 7.44,-30.454 v 21.662 c 4.215,0.711 7.439,4.378 7.439,8.792 0,4.923 -4.004,8.928 -8.927,8.928 -4.923,0 -8.928,-4.005 -8.928,-8.928 0,-4.414 3.225,-8.081 7.44,-8.792 V -29.19"
             style="fill:none;fill-opacity:1;fill-rule:nonzero;stroke:#000000;stroke-opacity:1"
             id="path1055"
             inkscape:connector-curvature="0" /></g><g
           id="g1057"
           transform="translate(327.5606,344.7628)"
           style="fill:none;fill-opacity:1;stroke:#000000;stroke-opacity:1"><path
             d="m 0,0 c 0,3.282 2.67,5.951 5.952,5.951 3.281,0 5.951,-2.669 5.951,-5.951 0,-3.281 -2.67,-5.951 -5.951,-5.951 C 2.67,-5.951 0,-3.281 0,0 m 7.44,-29.19 v 20.398 c 4.215,0.711 7.439,4.378 7.439,8.792 0,4.923 -4.004,8.928 -8.927,8.928 -4.923,0 -8.928,-4.005 -8.928,-8.928 0,-4.414 3.225,-8.081 7.44,-8.792 v -21.662"
             style="fill:none;fill-opacity:1;fill-rule:nonzero;stroke:#000000;stroke-opacity:1"
             id="path1059"
             inkscape:connector-curvature="0" /></g><path
           d="m 404.636,364.472 h 6.842 v -39.418 h -6.842 z"
           style="fill:#ffffff;fill-opacity:1;fill-rule:nonzero;stroke:none"
           id="path1061"
           inkscape:connector-curvature="0" /><path
           d="m 400.71,332.247 h -6.825 v 25.017 h 6.825 z"
           style="fill:#ffffff;fill-opacity:1;fill-rule:nonzero;stroke:none"
           id="path1063"
           inkscape:connector-curvature="0" /><path
           d="m 422.409,332.274 h -6.927 v 24.987 h 6.927 z"
           style="fill:#ffffff;fill-opacity:1;fill-rule:nonzero;stroke:none"
           id="path1065"
           inkscape:connector-curvature="0" /><path
           d="m 372.052,353.671 h 6.803 v -17.787 h -6.803 z"
           style="fill:#ffffff;fill-opacity:1;fill-rule:nonzero;stroke:none"
           id="path1067"
           inkscape:connector-curvature="0" /><path
           d="m 433.21,337.629 h -6.825 v 14.214 h 6.825 z"
           style="fill:#ffffff;fill-opacity:1;fill-rule:nonzero;stroke:none"
           id="path1069"
           inkscape:connector-curvature="0" /><path
           d="m 465.884,337.611 h -6.839 v 14.219 h 6.839 z"
           style="fill:#ffffff;fill-opacity:1;fill-rule:nonzero;stroke:none"
           id="path1071"
           inkscape:connector-curvature="0" /><path
           d="m 361.279,350.044 h 6.855 V 339.48 h -6.855 z"
           style="fill:#ffffff;fill-opacity:1;fill-rule:nonzero;stroke:none"
           id="path1073"
           inkscape:connector-curvature="0" /><path
           d="m 382.953,350.043 h 6.863 v -10.566 h -6.863 z"
           style="fill:#ffffff;fill-opacity:1;fill-rule:nonzero;stroke:none"
           id="path1075"
           inkscape:connector-curvature="0" /><path
           d="m 444.103,339.402 h -6.72 v 10.619 h 6.72 z"
           style="fill:#ffffff;fill-opacity:1;fill-rule:nonzero;stroke:none"
           id="path1077"
           inkscape:connector-curvature="0" /><path
           d="m 476.787,340.344 h -6.781 v 8.807 h 6.781 z"
           style="fill:#ffffff;fill-opacity:1;fill-rule:nonzero;stroke:none"
           id="path1079"
           inkscape:connector-curvature="0" /><path
           d="m 357.219,341.299 h -6.976 v 6.925 h 6.976 z"
           style="fill:#ffffff;fill-opacity:1;fill-rule:nonzero;stroke:none"
           id="path1081"
           inkscape:connector-curvature="0" /><path
           d="m 448.185,348.254 h 6.874 v -6.981 h -6.874 z"
           style="fill:#ffffff;fill-opacity:1;fill-rule:nonzero;stroke:none"
           id="path1083"
           inkscape:connector-curvature="0" /><path
           d="m 487.556,343.029 h -6.806 v 3.418 h 6.806 z"
           style="fill:#ffffff;fill-opacity:1;fill-rule:nonzero;stroke:none"
           id="path1085"
           inkscape:connector-curvature="0" /><path
           d="m 339.468,346.422 h 6.81 v -3.352 h -6.81 z"
           style="fill:#ffffff;fill-opacity:1;fill-rule:nonzero;stroke:none"
           id="path1087"
           inkscape:connector-curvature="0" /></g></g></g></svg>