  0
SECTION
  2
HEADER
  9
$ACADVER
  1
AC1014
  9
$HANDSEED
  5
FFFF
  9
$MEASUREMENT
 70
     1
  0
ENDSEC
  0
SECTION
  2
TABLES
  0
TABLE
  2
VPORT
  5
8
330
0
100
AcDbSymbolTable
 70
     4
  0
VPORT
  5
2E
330
8
100
AcDbSymbolTableRecord
100
AcDbViewportTableRecord
  2
*ACTIVE
 70
     0
 10
0.0
 20
0.0
 11
1.0
 21
1.0
 12
210.0
 22
148.5
 13
0.0
 23
0.0
 14
10.0
 24
10.0
 15
10.0
 25
10.0
 16
0.0
 26
0.0
 36
1.0
 17
0.0
 27
0.0
 37
0.0
 40
341.0
 41
1.24
 42
50.0
 43
0.0
 44
0.0
 50
0.0
 51
0.0
 71
     0
 72
   100
 73
     1
 74
     3
 75
     0
 76
     0
 77
     0
 78
     0
  0
ENDTAB
  0
TABLE
  2
LTYPE
  5
5
330
0
100
AcDbSymbolTable
 70
     1
  0
LTYPE
  5
14
330
5
100
AcDbSymbolTableRecord
100
AcDbLinetypeTableRecord
  2
BYBLOCK
 70
     0
  3

 72
    65
 73
     0
 40
0.0
  0
LTYPE
  5
15
330
5
100
AcDbSymbolTableRecord
100
AcDbLinetypeTableRecord
  2
BYLAYER
 70
     0
  3

 72
    65
 73
     0
 40
0.0
  0
LTYPE
  5
16
330
5
100
AcDbSymbolTableRecord
100
AcDbLinetypeTableRecord
  2
CONTINUOUS
 70
     0
  3
Solid line
 72
    65
 73
     0
 40
0.0
  0
ENDTAB
  0
TABLE
  2
LAYER
  5
2
100
AcDbSymbolTable
 70
2
  0
LAYER
  5
50
100
AcDbSymbolTableRecord
100
AcDbLayerTableRecord
  2
0
 70
0
  6
CONTINUOUS
  0
LAYER
  5
51
100
AcDbSymbolTableRecord
100
AcDbLayerTableRecord
  2
SNAP_ON_AIR_LOGO_final
 70
0
  6
CONTINUOUS
  0
ENDTAB
  0
TABLE
  2
STYLE
  5
3
330
0
100
AcDbSymbolTable
 70
     1
  0
STYLE
  5
11
330
3
100
AcDbSymbolTableRecord
100
AcDbTextStyleTableRecord
  2
STANDARD
 70
     0
 40
0.0
 41
1.0
 50
0.0
 71
     0
 42
2.5
  3
txt
  4

  0
ENDTAB
  0
TABLE
  2
VIEW
  5
6
330
0
100
AcDbSymbolTable
 70
     0
  0
ENDTAB
  0
TABLE
  2
UCS
  5
7
330
0
100
AcDbSymbolTable
 70
     0
  0
ENDTAB
  0
TABLE
  2
APPID
  5
9
330
0
100
AcDbSymbolTable
 70
     2
  0
APPID
  5
12
330
9
100
AcDbSymbolTableRecord
100
AcDbRegAppTableRecord
  2
ACAD
 70
     0
  0
ENDTAB
  0
TABLE
  2
DIMSTYLE
  5
A
330
0
100
AcDbSymbolTable
 70
     1
  0
DIMSTYLE
105
27
330
A
100
AcDbSymbolTableRecord
100
AcDbDimStyleTableRecord
  2
ISO-25
 70
     0
  3

  4

  5

  6

  7

 40
1.0
 41
2.5
 42
0.625
 43
3.75
 44
1.25
 45
0.0
 46
0.0
 47
0.0
 48
0.0
140
2.5
141
2.5
142
0.0
143
0.03937007874016
144
1.0
145
0.0
146
1.0
147
0.625
 71
     0
 72
     0
 73
     0
 74
     0
 75
     0
 76
     0
 77
     1
 78
     8
170
     0
171
     3
172
     1
173
     0
174
     0
175
     0
176
     0
177
     0
178
     0
270
     2
271
     2
272
     2
273
     2
274
     3
340
11
275
     0
280
     0
281
     0
282
     0
283
     0
284
     8
285
     0
286
     0
287
     3
288
     0
  0
ENDTAB
  0
TABLE
  2
BLOCK_RECORD
  5
1
330
0
100
AcDbSymbolTable
 70
     1
  0
BLOCK_RECORD
  5
1F
330
1
100
AcDbSymbolTableRecord
100
AcDbBlockTableRecord
  2
*MODEL_SPACE
  0
BLOCK_RECORD
  5
1B
330
1
100
AcDbSymbolTableRecord
100
AcDbBlockTableRecord
  2
*PAPER_SPACE
  0
ENDTAB
  0
ENDSEC
  0
SECTION
  2
BLOCKS
  0
BLOCK
  5
20
330
1F
100
AcDbEntity
  8
0
100
AcDbBlockBegin
  2
*MODEL_SPACE
 70
     0
 10
0.0
 20
0.0
 30
0.0
  3
*MODEL_SPACE
  1

  0
ENDBLK
  5
21
330
1F
100
AcDbEntity
  8
0
100
AcDbBlockEnd
  0
BLOCK
  5
1C
330
1B
100
AcDbEntity
 67
     1
  8
0
100
AcDbBlockBegin
  2
*PAPER_SPACE
  1

  0
ENDBLK
  5
1D
330
1B
100
AcDbEntity
 67
     1
  8
0
100
AcDbBlockEnd
  0
ENDSEC
  0
SECTION
  2
ENTITIES
  0
LWPOLYLINE
  5
100
100
AcDbEntity
  8
SNAP_ON_AIR_LOGO_final
 62
7
100
AcDbPolyline
 90
4
 70
1
 10
0.224661
 20
1.045642
 30
0.0
 10
24.793491
 20
1.045642
 30
0.0
 10
24.793491
 20
18.717634
 30
0.0
 10
0.224661
 20
18.717634
 30
0.0
  0
SPLINE
  5
101
100
AcDbEntity
  8
SNAP_ON_AIR_LOGO_final
 62
7
100
AcDbSpline
 70
8
 71
3
 72
8
 73
4
 74
0
 40
0
 40
0
 40
0
 40
0
 40
1
 40
1
 40
1
 40
1
 10
14.647375
 20
14.349931
 30
0.0
 10
13.752747
 20
14.349931
 30
0.0
 10
13.024820
 20
13.622045
 30
0.0
 10
13.024820
 20
12.727418
 30
0.0
  0
LWPOLYLINE
  5
102
100
AcDbEntity
  8
SNAP_ON_AIR_LOGO_final
 62
7
100
AcDbPolyline
 90
2
 70
0
 10
19.873823
 20
14.349931
 30
0.0
 10
14.647375
 20
14.349931
 30
0.0
  0
SPLINE
  5
103
100
AcDbEntity
  8
SNAP_ON_AIR_LOGO_final
 62
7
100
AcDbSpline
 70
8
 71
3
 72
8
 73
4
 74
0
 40
0
 40
0
 40
0
 40
0
 40
1
 40
1
 40
1
 40
1
 10
13.024820
 20
7.500846
 30
0.0
 10
13.024820
 20
6.742913
 30
0.0
 10
13.547168
 20
6.104713
 30
0.0
 10
14.250827
 20
5.927364
 30
0.0
  0
LWPOLYLINE
  5
104
100
AcDbEntity
  8
SNAP_ON_AIR_LOGO_final
 62
7
100
AcDbPolyline
 90
2
 70
0
 10
13.024820
 20
12.727418
 30
0.0
 10
13.024820
 20
7.500846
 30
0.0
  0
SPLINE
  5
105
100
AcDbEntity
  8
SNAP_ON_AIR_LOGO_final
 62
7
100
AcDbSpline
 70
8
 71
3
 72
8
 73
4
 74
0
 40
0
 40
0
 40
0
 40
0
 40
1
 40
1
 40
1
 40
1
 10
19.873823
 20
5.878291
 30
0.0
 10
20.768451
 20
5.878291
 30
0.0
 10
21.496337
 20
6.606177
 30
0.0
 10
21.496337
 20
7.500846
 30
0.0
  0
LWPOLYLINE
  5
106
100
AcDbEntity
  8
SNAP_ON_AIR_LOGO_final
 62
7
100
AcDbPolyline
 90
4
 70
0
 10
14.250827
 20
5.927364
 30
0.0
 10
12.515845
 20
3.573787
 30
0.0
 10
18.112840
 20
5.878291
 30
0.0
 10
19.873823
 20
5.878291
 30
0.0
  0
SPLINE
  5
107
100
AcDbEntity
  8
SNAP_ON_AIR_LOGO_final
 62
7
100
AcDbSpline
 70
8
 71
3
 72
8
 73
4
 74
0
 40
0
 40
0
 40
0
 40
0
 40
1
 40
1
 40
1
 40
1
 10
21.496337
 20
12.727418
 30
0.0
 10
21.496337
 20
13.622045
 30
0.0
 10
20.768451
 20
14.349931
 30
0.0
 10
19.873823
 20
14.349931
 30
0.0
  0
SPLINE
  5
108
100
AcDbEntity
  8
SNAP_ON_AIR_LOGO_final
 62
7
100
AcDbSpline
 70
8
 71
3
 72
8
 73
4
 74
0
 40
0
 40
0
 40
0
 40
0
 40
1
 40
1
 40
1
 40
1
 10
21.353174
 20
11.810499
 30
0.0
 10
21.353174
 20
11.810499
 30
0.0
 10
21.352679
 20
11.821188
 30
0.0
 10
21.350532
 20
11.841247
 30
0.0
  0
SPLINE
  5
109
100
AcDbEntity
  8
SNAP_ON_AIR_LOGO_final
 62
7
100
AcDbSpline
 70
8
 71
3
 72
8
 73
4
 74
0
 40
0
 40
0
 40
0
 40
0
 40
1
 40
1
 40
1
 40
1
 10
21.350532
 20
11.841247
 30
0.0
 10
21.348180
 20
11.861223
 30
0.0
 10
21.344878
 20
11.890691
 30
0.0
 10
21.337944
 20
11.927754
 30
0.0
  0
SPLINE
  5
10a
100
AcDbEntity
  8
SNAP_ON_AIR_LOGO_final
 62
7
100
AcDbSpline
 70
8
 71
3
 72
8
 73
4
 74
0
 40
0
 40
0
 40
0
 40
0
 40
1
 40
1
 40
1
 40
1
 10
21.337944
 20
11.927754
 30
0.0
 10
21.324902
 20
12.002004
 30
0.0
 10
21.300221
 20
12.107869
 30
0.0
 10
21.253087
 20
12.229664
 30
0.0
  0
SPLINE
  5
10b
100
AcDbEntity
  8
SNAP_ON_AIR_LOGO_final
 62
7
100
AcDbSpline
 70
8
 71
3
 72
8
 73
4
 74
0
 40
0
 40
0
 40
0
 40
0
 40
1
 40
1
 40
1
 40
1
 10
21.253087
 20
12.229664
 30
0.0
 10
21.229232
 20
12.290335
 30
0.0
 10
21.199804
 20
12.355010
 30
0.0
 10
21.162122
 20
12.419725
 30
0.0
  0
SPLINE
  5
10c
100
AcDbEntity
  8
SNAP_ON_AIR_LOGO_final
 62
7
100
AcDbSpline
 70
8
 71
3
 72
8
 73
4
 74
0
 40
0
 40
0
 40
0
 40
0
 40
1
 40
1
 40
1
 40
1
 10
21.162122
 20
12.419725
 30
0.0
 10
21.124440
 20
12.484317
 30
0.0
 10
21.078958
 20
12.549446
 30
0.0
 10
21.024024
 20
12.609002
 30
0.0
  0
SPLINE
  5
10d
100
AcDbEntity
  8
SNAP_ON_AIR_LOGO_final
 62
7
100
AcDbSpline
 70
8
 71
3
 72
8
 73
4
 74
0
 40
0
 40
0
 40
0
 40
0
 40
1
 40
1
 40
1
 40
1
 10
21.024024
 20
12.609002
 30
0.0
 10
20.969296
 20
12.668600
 30
0.0
 10
20.904993
 20
12.722667
 30
0.0
 10
20.833509
 20
12.763692
 30
0.0
  0
SPLINE
  5
10e
100
AcDbEntity
  8
SNAP_ON_AIR_LOGO_final
 62
7
100
AcDbSpline
 70
8
 71
3
 72
8
 73
4
 74
0
 40
0
 40
0
 40
0
 40
0
 40
1
 40
1
 40
1
 40
1
 10
20.833509
 20
12.763692
 30
0.0
 10
20.762272
 20
12.805378
 30
0.0
 10
20.684184
 20
12.833030
 30
0.0
 10
20.605766
 20
12.847270
 30
0.0
  0
SPLINE
  5
10f
100
AcDbEntity
  8
SNAP_ON_AIR_LOGO_final
 62
7
100
AcDbSpline
 70
8
 71
3
 72
8
 73
4
 74
0
 40
0
 40
0
 40
0
 40
0
 40
1
 40
1
 40
1
 40
1
 10
20.605766
 20
12.847270
 30
0.0
 10
20.586120
 20
12.849952
 30
0.0
 10
20.566433
 20
12.853997
 30
0.0
 10
20.546870
 20
12.855111
 30
0.0
  0
LWPOLYLINE
  5
110
100
AcDbEntity
  8
SNAP_ON_AIR_LOGO_final
 62
7
100
AcDbPolyline
 90
2
 70
0
 10
21.496337
 20
7.500846
 30
0.0
 10
21.496337
 20
12.727418
 30
0.0
  0
SPLINE
  5
111
100
AcDbEntity
  8
SNAP_ON_AIR_LOGO_final
 62
7
100
AcDbSpline
 70
8
 71
3
 72
8
 73
4
 74
0
 40
0
 40
0
 40
0
 40
0
 40
1
 40
1
 40
1
 40
1
 10
20.488263
 20
12.858166
 30
0.0
 10
20.449631
 20
12.857134
 30
0.0
 10
20.410917
 20
12.856391
 30
0.0
 10
20.373772
 20
12.849828
 30
0.0
  0
SPLINE
  5
112
100
AcDbEntity
  8
SNAP_ON_AIR_LOGO_final
 62
7
100
AcDbSpline
 70
8
 71
3
 72
8
 73
4
 74
0
 40
0
 40
0
 40
0
 40
0
 40
1
 40
1
 40
1
 40
1
 10
20.373772
 20
12.849828
 30
0.0
 10
20.355406
 20
12.846981
 30
0.0
 10
20.335677
 20
12.844793
 30
0.0
 10
20.318755
 20
12.841326
 30
0.0
  0
SPLINE
  5
113
100
AcDbEntity
  8
SNAP_ON_AIR_LOGO_final
 62
7
100
AcDbSpline
 70
8
 71
3
 72
8
 73
4
 74
0
 40
0
 40
0
 40
0
 40
0
 40
1
 40
1
 40
1
 40
1
 10
20.318755
 20
12.841326
 30
0.0
 10
20.301545
 20
12.837818
 30
0.0
 10
20.284375
 20
12.834351
 30
0.0
 10
20.267330
 20
12.830884
 30
0.0
  0
SPLINE
  5
114
100
AcDbEntity
  8
SNAP_ON_AIR_LOGO_final
 62
7
100
AcDbSpline
 70
8
 71
3
 72
8
 73
4
 74
0
 40
0
 40
0
 40
0
 40
0
 40
1
 40
1
 40
1
 40
1
 10
20.267330
 20
12.830884
 30
0.0
 10
20.233280
 20
12.823827
 30
0.0
 10
20.199642
 20
12.816852
 30
0.0
 10
20.166542
 20
12.810000
 30
0.0
  0
SPLINE
  5
115
100
AcDbEntity
  8
SNAP_ON_AIR_LOGO_final
 62
7
100
AcDbSpline
 70
8
 71
3
 72
8
 73
4
 74
0
 40
0
 40
0
 40
0
 40
0
 40
1
 40
1
 40
1
 40
1
 10
20.166542
 20
12.810000
 30
0.0
 10
20.034263
 20
12.781811
 30
0.0
 10
19.911394
 20
12.752260
 30
0.0
 10
19.806478
 20
12.724483
 30
0.0
  0
SPLINE
  5
116
100
AcDbEntity
  8
SNAP_ON_AIR_LOGO_final
 62
7
100
AcDbSpline
 70
8
 71
3
 72
8
 73
4
 74
0
 40
0
 40
0
 40
0
 40
0
 40
1
 40
1
 40
1
 40
1
 10
19.806478
 20
12.724483
 30
0.0
 10
19.701563
 20
12.696500
 30
0.0
 10
19.614601
 20
12.670746
 30
0.0
 10
19.553931
 20
12.651307
 30
0.0
  0
SPLINE
  5
117
100
AcDbEntity
  8
SNAP_ON_AIR_LOGO_final
 62
7
100
AcDbSpline
 70
8
 71
3
 72
8
 73
4
 74
0
 40
0
 40
0
 40
0
 40
0
 40
1
 40
1
 40
1
 40
1
 10
19.553931
 20
12.651307
 30
0.0
 10
19.523512
 20
12.642103
 30
0.0
 10
19.499863
 20
12.633394
 30
0.0
 10
19.483602
 20
12.628111
 30
0.0
  0
SPLINE
  5
118
100
AcDbEntity
  8
SNAP_ON_AIR_LOGO_final
 62
7
100
AcDbSpline
 70
8
 71
3
 72
8
 73
4
 74
0
 40
0
 40
0
 40
0
 40
0
 40
1
 40
1
 40
1
 40
1
 10
19.483602
 20
12.628111
 30
0.0
 10
19.467464
 20
12.622374
 30
0.0
 10
19.458838
 20
12.619320
 30
0.0
 10
19.458838
 20
12.619320
 30
0.0
  0
SPLINE
  5
119
100
AcDbEntity
  8
SNAP_ON_AIR_LOGO_final
 62
7
100
AcDbSpline
 70
8
 71
3
 72
8
 73
4
 74
0
 40
0
 40
0
 40
0
 40
0
 40
1
 40
1
 40
1
 40
1
 10
19.458838
 20
12.619320
 30
0.0
 10
19.458838
 20
12.619320
 30
0.0
 10
19.468001
 20
12.619238
 30
0.0
 10
19.485129
 20
12.619155
 30
0.0
  0
SPLINE
  5
11a
100
AcDbEntity
  8
SNAP_ON_AIR_LOGO_final
 62
7
100
AcDbSpline
 70
8
 71
3
 72
8
 73
4
 74
0
 40
0
 40
0
 40
0
 40
0
 40
1
 40
1
 40
1
 40
1
 10
19.485129
 20
12.619155
 30
0.0
 10
19.502216
 20
12.619485
 30
0.0
 10
19.527392
 20
12.619073
 30
0.0
 10
19.559172
 20
12.620352
 30
0.0
  0
SPLINE
  5
11b
100
AcDbEntity
  8
SNAP_ON_AIR_LOGO_final
 62
7
100
AcDbSpline
 70
8
 71
3
 72
8
 73
4
 74
0
 40
0
 40
0
 40
0
 40
0
 40
1
 40
1
 40
1
 40
1
 10
19.559172
 20
12.620352
 30
0.0
 10
19.622815
 20
12.621920
 30
0.0
 10
19.713450
 20
12.626213
 30
0.0
 10
19.821708
 20
12.634220
 30
0.0
  0
SPLINE
  5
11c
100
AcDbEntity
  8
SNAP_ON_AIR_LOGO_final
 62
7
100
AcDbSpline
 70
8
 71
3
 72
8
 73
4
 74
0
 40
0
 40
0
 40
0
 40
0
 40
1
 40
1
 40
1
 40
1
 10
19.821708
 20
12.634220
 30
0.0
 10
19.929925
 20
12.642516
 30
0.0
 10
20.055724
 20
12.655021
 30
0.0
 10
20.189902
 20
12.671860
 30
0.0
  0
SPLINE
  5
11d
100
AcDbEntity
  8
SNAP_ON_AIR_LOGO_final
 62
7
100
AcDbSpline
 70
8
 71
3
 72
8
 73
4
 74
0
 40
0
 40
0
 40
0
 40
0
 40
1
 40
1
 40
1
 40
1
 10
20.189902
 20
12.671860
 30
0.0
 10
20.223415
 20
12.676277
 30
0.0
 10
20.257465
 20
12.680734
 30
0.0
 10
20.291969
 20
12.685274
 30
0.0
  0
SPLINE
  5
11e
100
AcDbEntity
  8
SNAP_ON_AIR_LOGO_final
 62
7
100
AcDbSpline
 70
8
 71
3
 72
8
 73
4
 74
0
 40
0
 40
0
 40
0
 40
0
 40
1
 40
1
 40
1
 40
1
 10
20.291969
 20
12.685274
 30
0.0
 10
20.326515
 20
12.689897
 30
0.0
 10
20.361803
 20
12.695138
 30
0.0
 10
20.393954
 20
12.697986
 30
0.0
  0
SPLINE
  5
11f
100
AcDbEntity
  8
SNAP_ON_AIR_LOGO_final
 62
7
100
AcDbSpline
 70
8
 71
3
 72
8
 73
4
 74
0
 40
0
 40
0
 40
0
 40
0
 40
1
 40
1
 40
1
 40
1
 10
20.393954
 20
12.697986
 30
0.0
 10
20.459908
 20
12.704383
 30
0.0
 10
20.527141
 20
12.704590
 30
0.0
 10
20.592765
 20
12.691754
 30
0.0
  0
SPLINE
  5
120
100
AcDbEntity
  8
SNAP_ON_AIR_LOGO_final
 62
7
100
AcDbSpline
 70
8
 71
3
 72
8
 73
4
 74
0
 40
0
 40
0
 40
0
 40
0
 40
1
 40
1
 40
1
 40
1
 10
20.592765
 20
12.691754
 30
0.0
 10
20.658430
 20
12.680569
 30
0.0
 10
20.722485
 20
12.658364
 30
0.0
 10
20.782496
 20
12.626832
 30
0.0
  0
SPLINE
  5
121
100
AcDbEntity
  8
SNAP_ON_AIR_LOGO_final
 62
7
100
AcDbSpline
 70
8
 71
3
 72
8
 73
4
 74
0
 40
0
 40
0
 40
0
 40
0
 40
1
 40
1
 40
1
 40
1
 10
20.782496
 20
12.626832
 30
0.0
 10
20.842424
 20
12.595011
 30
0.0
 10
20.898142
 20
12.553697
 30
0.0
 10
20.948330
 20
12.506357
 30
0.0
  0
SPLINE
  5
122
100
AcDbEntity
  8
SNAP_ON_AIR_LOGO_final
 62
7
100
AcDbSpline
 70
8
 71
3
 72
8
 73
4
 74
0
 40
0
 40
0
 40
0
 40
0
 40
1
 40
1
 40
1
 40
1
 10
20.948330
 20
12.506357
 30
0.0
 10
21.048911
 20
12.411471
 30
0.0
 10
21.126628
 20
12.295205
 30
0.0
 10
21.185276
 20
12.189506
 30
0.0
  0
SPLINE
  5
123
100
AcDbEntity
  8
SNAP_ON_AIR_LOGO_final
 62
7
100
AcDbSpline
 70
8
 71
3
 72
8
 73
4
 74
0
 40
0
 40
0
 40
0
 40
0
 40
1
 40
1
 40
1
 40
1
 10
21.185276
 20
12.189506
 30
0.0
 10
21.244296
 20
12.083518
 30
0.0
 10
21.285528
 20
11.987559
 30
0.0
 10
21.312685
 20
11.919459
 30
0.0
  0
SPLINE
  5
124
100
AcDbEntity
  8
SNAP_ON_AIR_LOGO_final
 62
7
100
AcDbSpline
 70
8
 71
3
 72
8
 73
4
 74
0
 40
0
 40
0
 40
0
 40
0
 40
1
 40
1
 40
1
 40
1
 10
21.312685
 20
11.919459
 30
0.0
 10
21.325893
 20
11.885243
 30
0.0
 10
21.336665
 20
11.858169
 30
0.0
 10
21.343062
 20
11.839348
 30
0.0
  0
SPLINE
  5
125
100
AcDbEntity
  8
SNAP_ON_AIR_LOGO_final
 62
7
100
AcDbSpline
 70
8
 71
3
 72
8
 73
4
 74
0
 40
0
 40
0
 40
0
 40
0
 40
1
 40
1
 40
1
 40
1
 10
21.343062
 20
11.839348
 30
0.0
 10
21.349666
 20
11.820528
 30
0.0
 10
21.353174
 20
11.810499
 30
0.0
 10
21.353174
 20
11.810499
 30
0.0
  0
SPLINE
  5
126
100
AcDbEntity
  8
SNAP_ON_AIR_LOGO_final
 62
7
100
AcDbSpline
 70
8
 71
3
 72
8
 73
4
 74
0
 40
0
 40
0
 40
0
 40
0
 40
1
 40
1
 40
1
 40
1
 10
13.276138
 20
10.444994
 30
0.0
 10
13.276138
 20
10.444994
 30
0.0
 10
13.276138
 20
10.455643
 30
0.0
 10
13.276179
 20
10.475578
 30
0.0
  0
SPLINE
  5
127
100
AcDbEntity
  8
SNAP_ON_AIR_LOGO_final
 62
7
100
AcDbSpline
 70
8
 71
3
 72
8
 73
4
 74
0
 40
0
 40
0
 40
0
 40
0
 40
1
 40
1
 40
1
 40
1
 10
13.276179
 20
10.475578
 30
0.0
 10
13.276055
 20
10.495430
 30
0.0
 10
13.277335
 20
10.524568
 30
0.0
 10
13.278573
 20
10.561218
 30
0.0
  0
SPLINE
  5
128
100
AcDbEntity
  8
SNAP_ON_AIR_LOGO_final
 62
7
100
AcDbSpline
 70
8
 71
3
 72
8
 73
4
 74
0
 40
0
 40
0
 40
0
 40
0
 40
1
 40
1
 40
1
 40
1
 10
13.278573
 20
10.561218
 30
0.0
 10
13.281834
 20
10.634478
 30
0.0
 10
13.289180
 20
10.738650
 30
0.0
 10
13.310105
 20
10.858134
 30
0.0
  0
SPLINE
  5
129
100
AcDbEntity
  8
SNAP_ON_AIR_LOGO_final
 62
7
100
AcDbSpline
 70
8
 71
3
 72
8
 73
4
 74
0
 40
0
 40
0
 40
0
 40
0
 40
1
 40
1
 40
1
 40
1
 10
13.310105
 20
10.858134
 30
0.0
 10
13.330742
 20
10.977206
 30
0.0
 10
13.365947
 20
11.112622
 30
0.0
 10
13.429714
 20
11.235285
 30
0.0
  0
SPLINE
  5
12a
100
AcDbEntity
  8
SNAP_ON_AIR_LOGO_final
 62
7
100
AcDbSpline
 70
8
 71
3
 72
8
 73
4
 74
0
 40
0
 40
0
 40
0
 40
0
 40
1
 40
1
 40
1
 40
1
 10
13.429714
 20
11.235285
 30
0.0
 10
13.461576
 20
11.296451
 30
0.0
 10
13.500620
 20
11.353820
 30
0.0
 10
13.546763
 20
11.403554
 30
0.0
  0
SPLINE
  5
12b
100
AcDbEntity
  8
SNAP_ON_AIR_LOGO_final
 62
7
100
AcDbSpline
 70
8
 71
3
 72
8
 73
4
 74
0
 40
0
 40
0
 40
0
 40
0
 40
1
 40
1
 40
1
 40
1
 10
13.546763
 20
11.403554
 30
0.0
 10
13.593071
 20
11.453040
 30
0.0
 10
13.646231
 20
11.495097
 30
0.0
 10
13.704590
 20
11.527248
 30
0.0
  0
SPLINE
  5
12c
100
AcDbEntity
  8
SNAP_ON_AIR_LOGO_final
 62
7
100
AcDbSpline
 70
8
 71
3
 72
8
 73
4
 74
0
 40
0
 40
0
 40
0
 40
0
 40
1
 40
1
 40
1
 40
1
 10
13.704590
 20
11.527248
 30
0.0
 10
13.762331
 20
11.560927
 30
0.0
 10
13.825932
 20
11.582842
 30
0.0
 10
13.890317
 20
11.598443
 30
0.0
  0
SPLINE
  5
12d
100
AcDbEntity
  8
SNAP_ON_AIR_LOGO_final
 62
7
100
AcDbSpline
 70
8
 71
3
 72
8
 73
4
 74
0
 40
0
 40
0
 40
0
 40
0
 40
1
 40
1
 40
1
 40
1
 10
13.890317
 20
11.598443
 30
0.0
 10
13.921602
 20
11.606368
 30
0.0
 10
13.956643
 20
11.613013
 30
0.0
 10
13.990817
 20
11.619988
 30
0.0
  0
SPLINE
  5
12e
100
AcDbEntity
  8
SNAP_ON_AIR_LOGO_final
 62
7
100
AcDbSpline
 70
8
 71
3
 72
8
 73
4
 74
0
 40
0
 40
0
 40
0
 40
0
 40
1
 40
1
 40
1
 40
1
 10
13.990817
 20
11.619988
 30
0.0
 10
14.024867
 20
11.627045
 30
0.0
 10
14.058504
 20
11.634021
 30
0.0
 10
14.091605
 20
11.640872
 30
0.0
  0
SPLINE
  5
12f
100
AcDbEntity
  8
SNAP_ON_AIR_LOGO_final
 62
7
100
AcDbSpline
 70
8
 71
3
 72
8
 73
4
 74
0
 40
0
 40
0
 40
0
 40
0
 40
1
 40
1
 40
1
 40
1
 10
14.091605
 20
11.640872
 30
0.0
 10
14.223884
 20
11.669061
 30
0.0
 10
14.346794
 20
11.698612
 30
0.0
 10
14.451709
 20
11.726389
 30
0.0
  0
SPLINE
  5
130
100
AcDbEntity
  8
SNAP_ON_AIR_LOGO_final
 62
7
100
AcDbSpline
 70
8
 71
3
 72
8
 73
4
 74
0
 40
0
 40
0
 40
0
 40
0
 40
1
 40
1
 40
1
 40
1
 10
14.451709
 20
11.726389
 30
0.0
 10
14.556583
 20
11.754372
 30
0.0
 10
14.643586
 20
11.780126
 30
0.0
 10
14.704257
 20
11.799565
 30
0.0
  0
SPLINE
  5
131
100
AcDbEntity
  8
SNAP_ON_AIR_LOGO_final
 62
7
100
AcDbSpline
 70
8
 71
3
 72
8
 73
4
 74
0
 40
0
 40
0
 40
0
 40
0
 40
1
 40
1
 40
1
 40
1
 10
14.704257
 20
11.799565
 30
0.0
 10
14.734675
 20
11.808811
 30
0.0
 10
14.758324
 20
11.817478
 30
0.0
 10
14.774544
 20
11.822761
 30
0.0
  0
SPLINE
  5
132
100
AcDbEntity
  8
SNAP_ON_AIR_LOGO_final
 62
7
100
AcDbSpline
 70
8
 71
3
 72
8
 73
4
 74
0
 40
0
 40
0
 40
0
 40
0
 40
1
 40
1
 40
1
 40
1
 10
14.774544
 20
11.822761
 30
0.0
 10
14.790682
 20
11.828498
 30
0.0
 10
14.799308
 20
11.831552
 30
0.0
 10
14.799308
 20
11.831552
 30
0.0
  0
SPLINE
  5
133
100
AcDbEntity
  8
SNAP_ON_AIR_LOGO_final
 62
7
100
AcDbSpline
 70
8
 71
3
 72
8
 73
4
 74
0
 40
0
 40
0
 40
0
 40
0
 40
1
 40
1
 40
1
 40
1
 10
14.799308
 20
11.831552
 30
0.0
 10
14.799308
 20
11.831552
 30
0.0
 10
14.790187
 20
11.831634
 30
0.0
 10
14.773017
 20
11.831717
 30
0.0
  0
SPLINE
  5
134
100
AcDbEntity
  8
SNAP_ON_AIR_LOGO_final
 62
7
100
AcDbSpline
 70
8
 71
3
 72
8
 73
4
 74
0
 40
0
 40
0
 40
0
 40
0
 40
1
 40
1
 40
1
 40
1
 10
14.773017
 20
11.831717
 30
0.0
 10
14.755972
 20
11.831387
 30
0.0
 10
14.730754
 20
11.831841
 30
0.0
 10
14.699015
 20
11.830561
 30
0.0
  0
SPLINE
  5
135
100
AcDbEntity
  8
SNAP_ON_AIR_LOGO_final
 62
7
100
AcDbSpline
 70
8
 71
3
 72
8
 73
4
 74
0
 40
0
 40
0
 40
0
 40
0
 40
1
 40
1
 40
1
 40
1
 10
14.699015
 20
11.830561
 30
0.0
 10
14.635331
 20
11.828952
 30
0.0
 10
14.544697
 20
11.824659
 30
0.0
 10
14.436438
 20
11.816652
 30
0.0
  0
SPLINE
  5
136
100
AcDbEntity
  8
SNAP_ON_AIR_LOGO_final
 62
7
100
AcDbSpline
 70
8
 71
3
 72
8
 73
4
 74
0
 40
0
 40
0
 40
0
 40
0
 40
1
 40
1
 40
1
 40
1
 10
14.436438
 20
11.816652
 30
0.0
 10
14.328221
 20
11.808357
 30
0.0
 10
14.202422
 20
11.795851
 30
0.0
 10
14.068285
 20
11.779012
 30
0.0
  0
SPLINE
  5
137
100
AcDbEntity
  8
SNAP_ON_AIR_LOGO_final
 62
7
100
AcDbSpline
 70
8
 71
3
 72
8
 73
4
 74
0
 40
0
 40
0
 40
0
 40
0
 40
1
 40
1
 40
1
 40
1
 10
14.068285
 20
11.779012
 30
0.0
 10
14.034772
 20
11.774637
 30
0.0
 10
14.000681
 20
11.770138
 30
0.0
 10
13.966177
 20
11.765639
 30
0.0
  0
SPLINE
  5
138
100
AcDbEntity
  8
SNAP_ON_AIR_LOGO_final
 62
7
100
AcDbSpline
 70
8
 71
3
 72
8
 73
4
 74
0
 40
0
 40
0
 40
0
 40
0
 40
1
 40
1
 40
1
 40
1
 10
13.966177
 20
11.765639
 30
0.0
 10
13.948966
 20
11.763287
 30
0.0
 10
13.931631
 20
11.760934
 30
0.0
 10
13.914214
 20
11.758582
 30
0.0
  0
SPLINE
  5
139
100
AcDbEntity
  8
SNAP_ON_AIR_LOGO_final
 62
7
100
AcDbSpline
 70
8
 71
3
 72
8
 73
4
 74
0
 40
0
 40
0
 40
0
 40
0
 40
1
 40
1
 40
1
 40
1
 10
13.914214
 20
11.758582
 30
0.0
 10
13.897086
 20
11.756270
 30
0.0
 10
13.877729
 20
11.751854
 30
0.0
 10
13.859487
 20
11.748511
 30
0.0
  0
SPLINE
  5
13a
100
AcDbEntity
  8
SNAP_ON_AIR_LOGO_final
 62
7
100
AcDbSpline
 70
8
 71
3
 72
8
 73
4
 74
0
 40
0
 40
0
 40
0
 40
0
 40
1
 40
1
 40
1
 40
1
 10
13.859487
 20
11.748511
 30
0.0
 10
13.822217
 20
11.742485
 30
0.0
 10
13.785402
 20
11.730475
 30
0.0
 10
13.748587
 20
11.718753
 30
0.0
  0
LWPOLYLINE
  5
13b
100
AcDbEntity
  8
SNAP_ON_AIR_LOGO_final
 62
7
100
AcDbPolyline
 90
2
 70
0
 10
20.546870
 20
12.855111
 30
0.0
 10
20.488263
 20
12.858166
 30
0.0
  0
SPLINE
  5
13c
100
AcDbEntity
  8
SNAP_ON_AIR_LOGO_final
 62
7
100
AcDbSpline
 70
8
 71
3
 72
8
 73
4
 74
0
 40
0
 40
0
 40
0
 40
0
 40
1
 40
1
 40
1
 40
1
 10
13.694231
 20
11.696631
 30
0.0
 10
13.676153
 20
11.689120
 30
0.0
 10
13.658860
 20
11.678843
 30
0.0
 10
13.641195
 20
11.669845
 30
0.0
  0
SPLINE
  5
13d
100
AcDbEntity
  8
SNAP_ON_AIR_LOGO_final
 62
7
100
AcDbSpline
 70
8
 71
3
 72
8
 73
4
 74
0
 40
0
 40
0
 40
0
 40
0
 40
1
 40
1
 40
1
 40
1
 10
13.641195
 20
11.669845
 30
0.0
 10
13.571816
 20
11.630636
 30
0.0
 10
13.507183
 20
11.578839
 30
0.0
 10
13.453569
 20
11.516063
 30
0.0
  0
SPLINE
  5
13e
100
AcDbEntity
  8
SNAP_ON_AIR_LOGO_final
 62
7
100
AcDbSpline
 70
8
 71
3
 72
8
 73
4
 74
0
 40
0
 40
0
 40
0
 40
0
 40
1
 40
1
 40
1
 40
1
 10
13.453569
 20
11.516063
 30
0.0
 10
13.399585
 20
11.453783
 30
0.0
 10
13.356579
 20
11.381597
 30
0.0
 10
13.324510
 20
11.307306
 30
0.0
  0
SPLINE
  5
13f
100
AcDbEntity
  8
SNAP_ON_AIR_LOGO_final
 62
7
100
AcDbSpline
 70
8
 71
3
 72
8
 73
4
 74
0
 40
0
 40
0
 40
0
 40
0
 40
1
 40
1
 40
1
 40
1
 10
13.324510
 20
11.307306
 30
0.0
 10
13.292193
 20
11.233015
 30
0.0
 10
13.270649
 20
11.156536
 30
0.0
 10
13.256327
 20
11.083153
 30
0.0
  0
SPLINE
  5
140
100
AcDbEntity
  8
SNAP_ON_AIR_LOGO_final
 62
7
100
AcDbSpline
 70
8
 71
3
 72
8
 73
4
 74
0
 40
0
 40
0
 40
0
 40
0
 40
1
 40
1
 40
1
 40
1
 10
13.256327
 20
11.083153
 30
0.0
 10
13.242005
 20
11.009647
 30
0.0
 10
13.235443
 20
10.938905
 30
0.0
 10
13.232884
 20
10.873777
 30
0.0
  0
SPLINE
  5
141
100
AcDbEntity
  8
SNAP_ON_AIR_LOGO_final
 62
7
100
AcDbSpline
 70
8
 71
3
 72
8
 73
4
 74
0
 40
0
 40
0
 40
0
 40
0
 40
1
 40
1
 40
1
 40
1
 10
13.232884
 20
10.873777
 30
0.0
 10
13.228385
 20
10.743231
 30
0.0
 10
13.239859
 20
10.635138
 30
0.0
 10
13.251952
 20
10.560723
 30
0.0
  0
SPLINE
  5
142
100
AcDbEntity
  8
SNAP_ON_AIR_LOGO_final
 62
7
100
AcDbSpline
 70
8
 71
3
 72
8
 73
4
 74
0
 40
0
 40
0
 40
0
 40
0
 40
1
 40
1
 40
1
 40
1
 10
13.251952
 20
10.560723
 30
0.0
 10
13.257607
 20
10.523454
 30
0.0
 10
13.264169
 20
10.494522
 30
0.0
 10
13.268544
 20
10.474917
 30
0.0
  0
SPLINE
  5
143
100
AcDbEntity
  8
SNAP_ON_AIR_LOGO_final
 62
7
100
AcDbSpline
 70
8
 71
3
 72
8
 73
4
 74
0
 40
0
 40
0
 40
0
 40
0
 40
1
 40
1
 40
1
 40
1
 10
13.268544
 20
10.474917
 30
0.0
 10
13.273084
 20
10.455271
 30
0.0
 10
13.276138
 20
10.444994
 30
0.0
 10
13.276138
 20
10.444994
 30
0.0
  0
SPLINE
  5
144
100
AcDbEntity
  8
SNAP_ON_AIR_LOGO_final
 62
7
100
AcDbSpline
 70
8
 71
3
 72
8
 73
4
 74
0
 40
0
 40
0
 40
0
 40
0
 40
1
 40
1
 40
1
 40
1
 10
18.834159
 20
7.697708
 30
0.0
 10
18.834159
 20
7.697708
 30
0.0
 10
18.827225
 20
7.694365
 30
0.0
 10
18.814265
 20
7.688050
 30
0.0
  0
SPLINE
  5
145
100
AcDbEntity
  8
SNAP_ON_AIR_LOGO_final
 62
7
100
AcDbSpline
 70
8
 71
3
 72
8
 73
4
 74
0
 40
0
 40
0
 40
0
 40
0
 40
1
 40
1
 40
1
 40
1
 10
18.814265
 20
7.688050
 30
0.0
 10
18.801265
 20
7.681942
 30
0.0
 10
18.782238
 20
7.672986
 30
0.0
 10
18.758052
 20
7.661553
 30
0.0
  0
SPLINE
  5
146
100
AcDbEntity
  8
SNAP_ON_AIR_LOGO_final
 62
7
100
AcDbSpline
 70
8
 71
3
 72
8
 73
4
 74
0
 40
0
 40
0
 40
0
 40
0
 40
1
 40
1
 40
1
 40
1
 10
18.758052
 20
7.661553
 30
0.0
 10
18.733990
 20
7.650080
 30
0.0
 10
18.704150
 20
7.637533
 30
0.0
 10
18.670678
 20
7.622138
 30
0.0
  0
SPLINE
  5
147
100
AcDbEntity
  8
SNAP_ON_AIR_LOGO_final
 62
7
100
AcDbSpline
 70
8
 71
3
 72
8
 73
4
 74
0
 40
0
 40
0
 40
0
 40
0
 40
1
 40
1
 40
1
 40
1
 10
18.670678
 20
7.622138
 30
0.0
 10
18.636793
 20
7.607527
 30
0.0
 10
18.598574
 20
7.591307
 30
0.0
 10
18.556765
 20
7.574468
 30
0.0
  0
SPLINE
  5
148
100
AcDbEntity
  8
SNAP_ON_AIR_LOGO_final
 62
7
100
AcDbSpline
 70
8
 71
3
 72
8
 73
4
 74
0
 40
0
 40
0
 40
0
 40
0
 40
1
 40
1
 40
1
 40
1
 10
18.556765
 20
7.574468
 30
0.0
 10
18.473353
 20
7.540253
 30
0.0
 10
18.375330
 20
7.503768
 30
0.0
 10
18.269465
 20
7.469800
 30
0.0
  0
SPLINE
  5
149
100
AcDbEntity
  8
SNAP_ON_AIR_LOGO_final
 62
7
100
AcDbSpline
 70
8
 71
3
 72
8
 73
4
 74
0
 40
0
 40
0
 40
0
 40
0
 40
1
 40
1
 40
1
 40
1
 10
18.269465
 20
7.469800
 30
0.0
 10
18.243051
 20
7.461092
 30
0.0
 10
18.215893
 20
7.453539
 30
0.0
 10
18.188695
 20
7.444913
 30
0.0
  0
SPLINE
  5
14a
100
AcDbEntity
  8
SNAP_ON_AIR_LOGO_final
 62
7
100
AcDbSpline
 70
8
 71
3
 72
8
 73
4
 74
0
 40
0
 40
0
 40
0
 40
0
 40
1
 40
1
 40
1
 40
1
 10
18.188695
 20
7.444913
 30
0.0
 10
18.161207
 20
7.437360
 30
0.0
 10
18.133430
 20
7.429683
 30
0.0
 10
18.105406
 20
7.421965
 30
0.0
  0
SPLINE
  5
14b
100
AcDbEntity
  8
SNAP_ON_AIR_LOGO_final
 62
7
100
AcDbSpline
 70
8
 71
3
 72
8
 73
4
 74
0
 40
0
 40
0
 40
0
 40
0
 40
1
 40
1
 40
1
 40
1
 10
18.105406
 20
7.421965
 30
0.0
 10
18.077300
 20
7.414784
 30
0.0
 10
18.048986
 20
7.407520
 30
0.0
 10
18.020384
 20
7.401164
 30
0.0
  0
LWPOLYLINE
  5
14c
100
AcDbEntity
  8
SNAP_ON_AIR_LOGO_final
 62
7
100
AcDbPolyline
 90
2
 70
0
 10
13.748587
 20
11.718753
 30
0.0
 10
13.694231
 20
11.696631
 30
0.0
  0
SPLINE
  5
14d
100
AcDbEntity
  8
SNAP_ON_AIR_LOGO_final
 62
7
100
AcDbSpline
 70
8
 71
3
 72
8
 73
4
 74
0
 40
0
 40
0
 40
0
 40
0
 40
1
 40
1
 40
1
 40
1
 10
17.934248
 20
7.382797
 30
0.0
 10
17.876714
 20
7.370622
 30
0.0
 10
17.818602
 20
7.362409
 30
0.0
 10
17.761398
 20
7.354360
 30
0.0
  0
SPLINE
  5
14e
100
AcDbEntity
  8
SNAP_ON_AIR_LOGO_final
 62
7
100
AcDbSpline
 70
8
 71
3
 72
8
 73
4
 74
0
 40
0
 40
0
 40
0
 40
0
 40
1
 40
1
 40
1
 40
1
 10
17.761398
 20
7.354360
 30
0.0
 10
17.732672
 20
7.351182
 30
0.0
 10
17.704194
 20
7.348046
 30
0.0
 10
17.676005
 20
7.344950
 30
0.0
  0
SPLINE
  5
14f
100
AcDbEntity
  8
SNAP_ON_AIR_LOGO_final
 62
7
100
AcDbSpline
 70
8
 71
3
 72
8
 73
4
 74
0
 40
0
 40
0
 40
0
 40
0
 40
1
 40
1
 40
1
 40
1
 10
17.676005
 20
7.344950
 30
0.0
 10
17.647733
 20
7.342887
 30
0.0
 10
17.619791
 20
7.340906
 30
0.0
 10
17.592304
 20
7.338924
 30
0.0
  0
SPLINE
  5
150
100
AcDbEntity
  8
SNAP_ON_AIR_LOGO_final
 62
7
100
AcDbSpline
 70
8
 71
3
 72
8
 73
4
 74
0
 40
0
 40
0
 40
0
 40
0
 40
1
 40
1
 40
1
 40
1
 10
17.592304
 20
7.338924
 30
0.0
 10
17.564734
 20
7.337893
 30
0.0
 10
17.537576
 20
7.336902
 30
0.0
 10
17.511038
 20
7.335953
 30
0.0
  0
SPLINE
  5
151
100
AcDbEntity
  8
SNAP_ON_AIR_LOGO_final
 62
7
100
AcDbSpline
 70
8
 71
3
 72
8
 73
4
 74
0
 40
0
 40
0
 40
0
 40
0
 40
1
 40
1
 40
1
 40
1
 10
17.511038
 20
7.335953
 30
0.0
 10
17.484334
 20
7.335912
 30
0.0
 10
17.458250
 20
7.335912
 30
0.0
 10
17.432867
 20
7.335870
 30
0.0
  0
SPLINE
  5
152
100
AcDbEntity
  8
SNAP_ON_AIR_LOGO_final
 62
7
100
AcDbSpline
 70
8
 71
3
 72
8
 73
4
 74
0
 40
0
 40
0
 40
0
 40
0
 40
1
 40
1
 40
1
 40
1
 10
17.432867
 20
7.335870
 30
0.0
 10
17.382019
 20
7.337562
 30
0.0
 10
17.333689
 20
7.339090
 30
0.0
 10
17.288990
 20
7.343341
 30
0.0
  0
SPLINE
  5
153
100
AcDbEntity
  8
SNAP_ON_AIR_LOGO_final
 62
7
100
AcDbSpline
 70
8
 71
3
 72
8
 73
4
 74
0
 40
0
 40
0
 40
0
 40
0
 40
1
 40
1
 40
1
 40
1
 10
17.288990
 20
7.343341
 30
0.0
 10
17.277806
 20
7.344166
 30
0.0
 10
17.266827
 20
7.344950
 30
0.0
 10
17.256096
 20
7.345734
 30
0.0
  0
SPLINE
  5
154
100
AcDbEntity
  8
SNAP_ON_AIR_LOGO_final
 62
7
100
AcDbSpline
 70
8
 71
3
 72
8
 73
4
 74
0
 40
0
 40
0
 40
0
 40
0
 40
1
 40
1
 40
1
 40
1
 10
17.256096
 20
7.345734
 30
0.0
 10
17.245406
 20
7.347014
 30
0.0
 10
17.234923
 20
7.348252
 30
0.0
 10
17.224729
 20
7.349449
 30
0.0
  0
SPLINE
  5
155
100
AcDbEntity
  8
SNAP_ON_AIR_LOGO_final
 62
7
100
AcDbSpline
 70
8
 71
3
 72
8
 73
4
 74
0
 40
0
 40
0
 40
0
 40
0
 40
1
 40
1
 40
1
 40
1
 10
17.224729
 20
7.349449
 30
0.0
 10
17.204299
 20
7.351719
 30
0.0
 10
17.184777
 20
7.353452
 30
0.0
 10
17.166493
 20
7.355846
 30
0.0
  0
SPLINE
  5
156
100
AcDbEntity
  8
SNAP_ON_AIR_LOGO_final
 62
7
100
AcDbSpline
 70
8
 71
3
 72
8
 73
4
 74
0
 40
0
 40
0
 40
0
 40
0
 40
1
 40
1
 40
1
 40
1
 10
17.166493
 20
7.355846
 30
0.0
 10
17.130214
 20
7.362409
 30
0.0
 10
17.097898
 20
7.365834
 30
0.0
 10
17.071524
 20
7.370663
 30
0.0
  0
SPLINE
  5
157
100
AcDbEntity
  8
SNAP_ON_AIR_LOGO_final
 62
7
100
AcDbSpline
 70
8
 71
3
 72
8
 73
4
 74
0
 40
0
 40
0
 40
0
 40
0
 40
1
 40
1
 40
1
 40
1
 10
17.071524
 20
7.370663
 30
0.0
 10
17.045316
 20
7.376152
 30
0.0
 10
17.024350
 20
7.379330
 30
0.0
 10
17.010069
 20
7.382013
 30
0.0
  0
SPLINE
  5
158
100
AcDbEntity
  8
SNAP_ON_AIR_LOGO_final
 62
7
100
AcDbSpline
 70
8
 71
3
 72
8
 73
4
 74
0
 40
0
 40
0
 40
0
 40
0
 40
1
 40
1
 40
1
 40
1
 10
17.010069
 20
7.382013
 30
0.0
 10
16.995748
 20
7.384366
 30
0.0
 10
16.988071
 20
7.385604
 30
0.0
 10
16.988071
 20
7.385604
 30
0.0
  0
SPLINE
  5
159
100
AcDbEntity
  8
SNAP_ON_AIR_LOGO_final
 62
7
100
AcDbSpline
 70
8
 71
3
 72
8
 73
4
 74
0
 40
0
 40
0
 40
0
 40
0
 40
1
 40
1
 40
1
 40
1
 10
16.988071
 20
7.385604
 30
0.0
 10
16.988071
 20
7.385604
 30
0.0
 10
16.995129
 20
7.381683
 30
0.0
 10
17.008336
 20
7.374378
 30
0.0
  0
SPLINE
  5
15a
100
AcDbEntity
  8
SNAP_ON_AIR_LOGO_final
 62
7
100
AcDbSpline
 70
8
 71
3
 72
8
 73
4
 74
0
 40
0
 40
0
 40
0
 40
0
 40
1
 40
1
 40
1
 40
1
 10
17.008336
 20
7.374378
 30
0.0
 10
17.021667
 20
7.367403
 30
0.0
 10
17.041065
 20
7.356383
 30
0.0
 10
17.066324
 20
7.343836
 30
0.0
  0
SPLINE
  5
15b
100
AcDbEntity
  8
SNAP_ON_AIR_LOGO_final
 62
7
100
AcDbSpline
 70
8
 71
3
 72
8
 73
4
 74
0
 40
0
 40
0
 40
0
 40
0
 40
1
 40
1
 40
1
 40
1
 10
17.066324
 20
7.343836
 30
0.0
 10
17.091583
 20
7.331619
 30
0.0
 10
17.122744
 20
7.318329
 30
0.0
 10
17.158858
 20
7.303595
 30
0.0
  0
SPLINE
  5
15c
100
AcDbEntity
  8
SNAP_ON_AIR_LOGO_final
 62
7
100
AcDbSpline
 70
8
 71
3
 72
8
 73
4
 74
0
 40
0
 40
0
 40
0
 40
0
 40
1
 40
1
 40
1
 40
1
 10
17.158858
 20
7.303595
 30
0.0
 10
17.195219
 20
7.291089
 30
0.0
 10
17.236326
 20
7.274456
 30
0.0
 10
17.282098
 20
7.263189
 30
0.0
  0
SPLINE
  5
15d
100
AcDbEntity
  8
SNAP_ON_AIR_LOGO_final
 62
7
100
AcDbSpline
 70
8
 71
3
 72
8
 73
4
 74
0
 40
0
 40
0
 40
0
 40
0
 40
1
 40
1
 40
1
 40
1
 10
17.282098
 20
7.263189
 30
0.0
 10
17.304963
 20
7.257370
 30
0.0
 10
17.328819
 20
7.250312
 30
0.0
 10
17.353665
 20
7.245400
 30
0.0
  0
SPLINE
  5
15e
100
AcDbEntity
  8
SNAP_ON_AIR_LOGO_final
 62
7
100
AcDbSpline
 70
8
 71
3
 72
8
 73
4
 74
0
 40
0
 40
0
 40
0
 40
0
 40
1
 40
1
 40
1
 40
1
 10
17.353665
 20
7.245400
 30
0.0
 10
17.378635
 20
7.240695
 30
0.0
 10
17.404430
 20
7.235825
 30
0.0
 10
17.430927
 20
7.230790
 30
0.0
  0
SPLINE
  5
15f
100
AcDbEntity
  8
SNAP_ON_AIR_LOGO_final
 62
7
100
AcDbSpline
 70
8
 71
3
 72
8
 73
4
 74
0
 40
0
 40
0
 40
0
 40
0
 40
1
 40
1
 40
1
 40
1
 10
17.430927
 20
7.230790
 30
0.0
 10
17.457590
 20
7.227447
 30
0.0
 10
17.484953
 20
7.223980
 30
0.0
 10
17.512936
 20
7.220430
 30
0.0
  0
SPLINE
  5
160
100
AcDbEntity
  8
SNAP_ON_AIR_LOGO_final
 62
7
100
AcDbSpline
 70
8
 71
3
 72
8
 73
4
 74
0
 40
0
 40
0
 40
0
 40
0
 40
1
 40
1
 40
1
 40
1
 10
17.512936
 20
7.220430
 30
0.0
 10
17.540919
 20
7.217954
 30
0.0
 10
17.569562
 20
7.216716
 30
0.0
 10
17.598742
 20
7.214776
 30
0.0
  0
SPLINE
  5
161
100
AcDbEntity
  8
SNAP_ON_AIR_LOGO_final
 62
7
100
AcDbSpline
 70
8
 71
3
 72
8
 73
4
 74
0
 40
0
 40
0
 40
0
 40
0
 40
1
 40
1
 40
1
 40
1
 10
17.598742
 20
7.214776
 30
0.0
 10
17.627840
 20
7.213992
 30
0.0
 10
17.657432
 20
7.214157
 30
0.0
 10
17.687396
 20
7.214198
 30
0.0
  0
SPLINE
  5
162
100
AcDbEntity
  8
SNAP_ON_AIR_LOGO_final
 62
7
100
AcDbSpline
 70
8
 71
3
 72
8
 73
4
 74
0
 40
0
 40
0
 40
0
 40
0
 40
1
 40
1
 40
1
 40
1
 10
17.687396
 20
7.214198
 30
0.0
 10
17.717236
 20
7.215519
 30
0.0
 10
17.747530
 20
7.216510
 30
0.0
 10
17.777866
 20
7.219110
 30
0.0
  0
SPLINE
  5
163
100
AcDbEntity
  8
SNAP_ON_AIR_LOGO_final
 62
7
100
AcDbSpline
 70
8
 71
3
 72
8
 73
4
 74
0
 40
0
 40
0
 40
0
 40
0
 40
1
 40
1
 40
1
 40
1
 10
17.777866
 20
7.219110
 30
0.0
 10
17.838537
 20
7.224351
 30
0.0
 10
17.899868
 20
7.232812
 30
0.0
 10
17.960415
 20
7.244823
 30
0.0
  0
SPLINE
  5
164
100
AcDbEntity
  8
SNAP_ON_AIR_LOGO_final
 62
7
100
AcDbSpline
 70
8
 71
3
 72
8
 73
4
 74
0
 40
0
 40
0
 40
0
 40
0
 40
1
 40
1
 40
1
 40
1
 10
17.960415
 20
7.244823
 30
0.0
 10
18.021045
 20
7.256627
 30
0.0
 10
18.080808
 20
7.272269
 30
0.0
 10
18.138878
 20
7.290223
 30
0.0
  0
SPLINE
  5
165
100
AcDbEntity
  8
SNAP_ON_AIR_LOGO_final
 62
7
100
AcDbSpline
 70
8
 71
3
 72
8
 73
4
 74
0
 40
0
 40
0
 40
0
 40
0
 40
1
 40
1
 40
1
 40
1
 10
18.138878
 20
7.290223
 30
0.0
 10
18.196949
 20
7.308135
 30
0.0
 10
18.253163
 20
7.328895
 30
0.0
 10
18.306528
 20
7.351678
 30
0.0
  0
SPLINE
  5
166
100
AcDbEntity
  8
SNAP_ON_AIR_LOGO_final
 62
7
100
AcDbSpline
 70
8
 71
3
 72
8
 73
4
 74
0
 40
0
 40
0
 40
0
 40
0
 40
1
 40
1
 40
1
 40
1
 10
18.306528
 20
7.351678
 30
0.0
 10
18.360059
 20
7.374006
 30
0.0
 10
18.410618
 20
7.398894
 30
0.0
 10
18.457793
 20
7.423864
 30
0.0
  0
SPLINE
  5
167
100
AcDbEntity
  8
SNAP_ON_AIR_LOGO_final
 62
7
100
AcDbSpline
 70
8
 71
3
 72
8
 73
4
 74
0
 40
0
 40
0
 40
0
 40
0
 40
1
 40
1
 40
1
 40
1
 10
18.457793
 20
7.423864
 30
0.0
 10
18.504885
 20
7.449164
 30
0.0
 10
18.548510
 20
7.474877
 30
0.0
 10
18.587885
 20
7.500466
 30
0.0
  0
SPLINE
  5
168
100
AcDbEntity
  8
SNAP_ON_AIR_LOGO_final
 62
7
100
AcDbSpline
 70
8
 71
3
 72
8
 73
4
 74
0
 40
0
 40
0
 40
0
 40
0
 40
1
 40
1
 40
1
 40
1
 10
18.587885
 20
7.500466
 30
0.0
 10
18.627424
 20
7.525601
 30
0.0
 10
18.662299
 20
7.551396
 30
0.0
 10
18.693006
 20
7.574303
 30
0.0
  0
SPLINE
  5
169
100
AcDbEntity
  8
SNAP_ON_AIR_LOGO_final
 62
7
100
AcDbSpline
 70
8
 71
3
 72
8
 73
4
 74
0
 40
0
 40
0
 40
0
 40
0
 40
1
 40
1
 40
1
 40
1
 10
18.693006
 20
7.574303
 30
0.0
 10
18.723713
 20
7.597292
 30
0.0
 10
18.749509
 20
7.618960
 30
0.0
 10
18.770475
 20
7.637244
 30
0.0
  0
SPLINE
  5
16a
100
AcDbEntity
  8
SNAP_ON_AIR_LOGO_final
 62
7
100
AcDbSpline
 70
8
 71
3
 72
8
 73
4
 74
0
 40
0
 40
0
 40
0
 40
0
 40
1
 40
1
 40
1
 40
1
 10
18.770475
 20
7.637244
 30
0.0
 10
18.812449
 20
7.673646
 30
0.0
 10
18.834159
 20
7.697708
 30
0.0
 10
18.834159
 20
7.697708
 30
0.0
  0
SPLINE
  5
16b
100
AcDbEntity
  8
SNAP_ON_AIR_LOGO_final
 62
7
100
AcDbSpline
 70
8
 71
3
 72
8
 73
4
 74
0
 40
0
 40
0
 40
0
 40
0
 40
1
 40
1
 40
1
 40
1
 10
13.606138
 20
11.108161
 30
0.0
 10
13.640477
 20
11.167593
 30
0.0
 10
13.694710
 20
11.207009
 30
0.0
 10
13.756536
 20
11.217451
 30
0.0
  0
LWPOLYLINE
  5
16c
100
AcDbEntity
  8
SNAP_ON_AIR_LOGO_final
 62
7
100
AcDbPolyline
 90
3
 70
0
 10
18.020384
 20
7.401164
 30
0.0
 10
17.977502
 20
7.391217
 30
0.0
 10
17.934248
 20
7.382797
 30
0.0
  0
SPLINE
  5
16d
100
AcDbEntity
  8
SNAP_ON_AIR_LOGO_final
 62
7
100
AcDbSpline
 70
8
 71
3
 72
8
 73
4
 74
0
 40
0
 40
0
 40
0
 40
0
 40
1
 40
1
 40
1
 40
1
 10
20.587627
 20
12.372344
 30
0.0
 10
20.649412
 20
12.382786
 30
0.0
 10
20.713550
 20
12.363388
 30
0.0
 10
20.765553
 20
12.318607
 30
0.0
  0
SPLINE
  5
16e
100
AcDbEntity
  8
SNAP_ON_AIR_LOGO_final
 62
7
100
AcDbSpline
 70
8
 71
3
 72
8
 73
4
 74
0
 40
0
 40
0
 40
0
 40
0
 40
1
 40
1
 40
1
 40
1
 10
20.765553
 20
12.318607
 30
0.0
 10
20.817474
 20
12.273785
 30
0.0
 10
20.852804
 20
12.207377
 30
0.0
 10
20.863576
 20
12.134366
 30
0.0
  0
SPLINE
  5
16f
100
AcDbEntity
  8
SNAP_ON_AIR_LOGO_final
 62
7
100
AcDbSpline
 70
8
 71
3
 72
8
 73
4
 74
0
 40
0
 40
0
 40
0
 40
0
 40
1
 40
1
 40
1
 40
1
 10
20.863576
 20
12.134366
 30
0.0
 10
20.866919
 20
12.111501
 30
0.0
 10
20.944801
 20
11.565916
 30
0.0
 10
20.844921
 20
10.862877
 30
0.0
  0
SPLINE
  5
170
100
AcDbEntity
  8
SNAP_ON_AIR_LOGO_final
 62
7
100
AcDbSpline
 70
8
 71
3
 72
8
 73
4
 74
0
 40
0
 40
0
 40
0
 40
0
 40
1
 40
1
 40
1
 40
1
 10
20.844921
 20
10.862877
 30
0.0
 10
20.763077
 20
10.286090
 30
0.0
 10
20.587008
 20
9.771378
 30
0.0
 10
20.321583
 20
9.332979
 30
0.0
  0
SPLINE
  5
171
100
AcDbEntity
  8
SNAP_ON_AIR_LOGO_final
 62
7
100
AcDbSpline
 70
8
 71
3
 72
8
 73
4
 74
0
 40
0
 40
0
 40
0
 40
0
 40
1
 40
1
 40
1
 40
1
 10
20.321583
 20
9.332979
 30
0.0
 10
19.805632
 20
8.480945
 30
0.0
 10
18.975638
 20
7.952819
 30
0.0
 10
17.854588
 20
7.763336
 30
0.0
  0
SPLINE
  5
172
100
AcDbEntity
  8
SNAP_ON_AIR_LOGO_final
 62
7
100
AcDbSpline
 70
8
 71
3
 72
8
 73
4
 74
0
 40
0
 40
0
 40
0
 40
0
 40
1
 40
1
 40
1
 40
1
 10
17.854588
 20
7.763336
 30
0.0
 10
16.082584
 20
7.463737
 30
0.0
 10
15.029470
 20
8.272683
 30
0.0
 10
14.458172
 20
9.003870
 30
0.0
  0
SPLINE
  5
173
100
AcDbEntity
  8
SNAP_ON_AIR_LOGO_final
 62
7
100
AcDbSpline
 70
8
 71
3
 72
8
 73
4
 74
0
 40
0
 40
0
 40
0
 40
0
 40
1
 40
1
 40
1
 40
1
 10
14.458172
 20
9.003870
 30
0.0
 10
14.293164
 20
9.214692
 30
0.0
 10
14.142519
 20
9.451349
 30
0.0
 10
14.010446
 20
9.707282
 30
0.0
  0
SPLINE
  5
174
100
AcDbEntity
  8
SNAP_ON_AIR_LOGO_final
 62
7
100
AcDbSpline
 70
8
 71
3
 72
8
 73
4
 74
0
 40
0
 40
0
 40
0
 40
0
 40
1
 40
1
 40
1
 40
1
 10
14.010446
 20
9.707282
 30
0.0
 10
13.684680
 20
10.338383
 30
0.0
 10
13.578568
 20
10.879097
 30
0.0
 10
13.574193
 20
10.901797
 30
0.0
  0
SPLINE
  5
175
100
AcDbEntity
  8
SNAP_ON_AIR_LOGO_final
 62
7
100
AcDbSpline
 70
8
 71
3
 72
8
 73
4
 74
0
 40
0
 40
0
 40
0
 40
0
 40
1
 40
1
 40
1
 40
1
 10
13.574193
 20
10.901797
 30
0.0
 10
13.560284
 20
10.974313
 30
0.0
 10
13.571799
 20
11.048728
 30
0.0
 10
13.606138
 20
11.108161
 30
0.0
  0
SPLINE
  5
176
100
AcDbEntity
  8
SNAP_ON_AIR_LOGO_final
 62
7
100
AcDbSpline
 70
8
 71
3
 72
8
 73
4
 74
0
 40
0
 40
0
 40
0
 40
0
 40
1
 40
1
 40
1
 40
1
 10
19.458128
 20
10.138565
 30
0.0
 10
19.342688
 20
10.821299
 30
0.0
 10
18.985762
 20
11.391275
 30
0.0
 10
18.512900
 20
11.743992
 30
0.0
  0
LWPOLYLINE
  5
177
100
AcDbEntity
  8
SNAP_ON_AIR_LOGO_final
 62
7
100
AcDbPolyline
 90
2
 70
0
 10
13.756536
 20
11.217451
 30
0.0
 10
20.587627
 20
12.372344
 30
0.0
  0
SPLINE
  5
178
100
AcDbEntity
  8
SNAP_ON_AIR_LOGO_final
 62
7
100
AcDbSpline
 70
8
 71
3
 72
8
 73
4
 74
0
 40
0
 40
0
 40
0
 40
0
 40
1
 40
1
 40
1
 40
1
 10
19.288662
 20
11.875115
 30
0.0
 10
19.661438
 20
11.438862
 30
0.0
 10
19.932765
 20
10.876191
 30
0.0
 10
20.040817
 20
10.237083
 30
0.0
  0
SPLINE
  5
179
100
AcDbEntity
  8
SNAP_ON_AIR_LOGO_final
 62
7
100
AcDbSpline
 70
8
 71
3
 72
8
 73
4
 74
0
 40
0
 40
0
 40
0
 40
0
 40
1
 40
1
 40
1
 40
1
 10
20.040817
 20
10.237083
 30
0.0
 10
20.091417
 20
9.937856
 30
0.0
 10
20.102354
 20
9.642715
 30
0.0
 10
20.078788
 20
9.358428
 30
0.0
  0
SPLINE
  5
17a
100
AcDbEntity
  8
SNAP_ON_AIR_LOGO_final
 62
7
100
AcDbSpline
 70
8
 71
3
 72
8
 73
4
 74
0
 40
0
 40
0
 40
0
 40
0
 40
1
 40
1
 40
1
 40
1
 10
20.078788
 20
9.358428
 30
0.0
 10
19.869824
 20
9.054289
 30
0.0
 10
19.593544
 20
8.772108
 30
0.0
 10
19.229312
 20
8.542301
 30
0.0
  0
SPLINE
  5
17b
100
AcDbEntity
  8
SNAP_ON_AIR_LOGO_final
 62
7
100
AcDbSpline
 70
8
 71
3
 72
8
 73
4
 74
0
 40
0
 40
0
 40
0
 40
0
 40
1
 40
1
 40
1
 40
1
 10
19.229312
 20
8.542301
 30
0.0
 10
19.462544
 20
8.997581
 30
0.0
 10
19.556234
 20
9.558229
 30
0.0
 10
19.458128
 20
10.138565
 30
0.0
  0
LWPOLYLINE
  5
17c
100
AcDbEntity
  8
SNAP_ON_AIR_LOGO_final
 62
7
100
AcDbPolyline
 90
2
 70
0
 10
18.512900
 20
11.743992
 30
0.0
 10
19.288662
 20
11.875115
 30
0.0
  0
SPLINE
  5
17d
100
AcDbEntity
  8
SNAP_ON_AIR_LOGO_final
 62
7
100
AcDbSpline
 70
8
 71
3
 72
8
 73
4
 74
0
 40
0
 40
0
 40
0
 40
0
 40
1
 40
1
 40
1
 40
1
 10
15.922516
 20
11.306059
 30
0.0
 10
15.591881
 20
10.817514
 30
0.0
 10
15.442143
 20
10.161897
 30
0.0
 10
15.557542
 20
9.479122
 30
0.0
  0
SPLINE
  5
17e
100
AcDbEntity
  8
SNAP_ON_AIR_LOGO_final
 62
7
100
AcDbSpline
 70
8
 71
3
 72
8
 73
4
 74
0
 40
0
 40
0
 40
0
 40
0
 40
1
 40
1
 40
1
 40
1
 10
15.557542
 20
9.479122
 30
0.0
 10
15.650653
 20
8.928420
 30
0.0
 10
15.900931
 20
8.450977
 30
0.0
 10
16.242339
 20
8.101768
 30
0.0
  0
SPLINE
  5
17f
100
AcDbEntity
  8
SNAP_ON_AIR_LOGO_final
 62
7
100
AcDbSpline
 70
8
 71
3
 72
8
 73
4
 74
0
 40
0
 40
0
 40
0
 40
0
 40
1
 40
1
 40
1
 40
1
 10
16.242339
 20
8.101768
 30
0.0
 10
15.817931
 20
8.223482
 30
0.0
 10
15.464843
 20
8.426791
 30
0.0
 10
15.172261
 20
8.670837
 30
0.0
  0
SPLINE
  5
180
100
AcDbEntity
  8
SNAP_ON_AIR_LOGO_final
 62
7
100
AcDbSpline
 70
8
 71
3
 72
8
 73
4
 74
0
 40
0
 40
0
 40
0
 40
0
 40
1
 40
1
 40
1
 40
1
 10
15.172261
 20
8.670837
 30
0.0
 10
15.084226
 20
8.893957
 30
0.0
 10
15.016993
 20
9.131399
 30
0.0
 10
14.974853
 20
9.380645
 30
0.0
  0
SPLINE
  5
181
100
AcDbEntity
  8
SNAP_ON_AIR_LOGO_final
 62
7
100
AcDbSpline
 70
8
 71
3
 72
8
 73
4
 74
0
 40
0
 40
0
 40
0
 40
0
 40
1
 40
1
 40
1
 40
1
 10
14.974853
 20
9.380645
 30
0.0
 10
14.866801
 20
10.019712
 30
0.0
 10
14.938079
 20
10.640330
 30
0.0
 10
15.146754
 20
11.174894
 30
0.0
  0
SPLINE
  5
182
100
AcDbEntity
  8
SNAP_ON_AIR_LOGO_final
 62
7
100
AcDbSpline
 70
8
 71
3
 72
8
 73
4
 74
0
 40
0
 40
0
 40
0
 40
0
 40
1
 40
1
 40
1
 40
1
 10
14.626887
 20
9.181690
 30
0.0
 10
15.220348
 20
8.422107
 30
0.0
 10
16.207509
 20
7.762486
 30
0.0
 10
17.808973
 20
8.033194
 30
0.0
  0
SPLINE
  5
183
100
AcDbEntity
  8
SNAP_ON_AIR_LOGO_final
 62
7
100
AcDbSpline
 70
8
 71
3
 72
8
 73
4
 74
0
 40
0
 40
0
 40
0
 40
0
 40
1
 40
1
 40
1
 40
1
 10
17.808973
 20
8.033194
 30
0.0
 10
19.018677
 20
8.237741
 30
0.0
 10
19.722625
 20
8.828230
 30
0.0
 10
20.128294
 20
9.498169
 30
0.0
  0
SPLINE
  5
184
100
AcDbEntity
  8
SNAP_ON_AIR_LOGO_final
 62
7
100
AcDbSpline
 70
8
 71
3
 72
8
 73
4
 74
0
 40
0
 40
0
 40
0
 40
0
 40
1
 40
1
 40
1
 40
1
 10
20.128294
 20
9.498169
 30
0.0
 10
20.128294
 20
9.498169
 30
0.0
 10
19.075881
 20
9.973548
 30
0.0
 10
17.567693
 20
9.454792
 30
0.0
  0
SPLINE
  5
185
100
AcDbEntity
  8
SNAP_ON_AIR_LOGO_final
 62
7
100
AcDbSpline
 70
8
 71
3
 72
8
 73
4
 74
0
 40
0
 40
0
 40
0
 40
0
 40
1
 40
1
 40
1
 40
1
 10
17.567693
 20
9.454792
 30
0.0
 10
17.567693
 20
9.454792
 30
0.0
 10
16.129545
 20
10.227004
 30
0.0
 10
14.626887
 20
9.181690
 30
0.0
  0
SPLINE
  5
186
100
AcDbEntity
  8
SNAP_ON_AIR_LOGO_final
 62
7
100
AcDbSpline
 70
8
 71
3
 72
8
 73
4
 74
0
 40
0
 40
0
 40
0
 40
0
 40
1
 40
1
 40
1
 40
1
 10
14.626887
 20
9.181694
 30
0.0
 10
14.643768
 20
9.160067
 30
0.0
 10
14.660896
 20
9.138853
 30
0.0
 10
14.678437
 20
9.117309
 30
0.0
  0
SPLINE
  5
187
100
AcDbEntity
  8
SNAP_ON_AIR_LOGO_final
 62
7
100
AcDbSpline
 70
8
 71
3
 72
8
 73
4
 74
0
 40
0
 40
0
 40
0
 40
0
 40
1
 40
1
 40
1
 40
1
 10
14.678437
 20
9.117309
 30
0.0
 10
16.126284
 20
10.015362
 30
0.0
 10
17.471527
 20
9.293130
 30
0.0
 10
17.471527
 20
9.293130
 30
0.0
  0
SPLINE
  5
188
100
AcDbEntity
  8
SNAP_ON_AIR_LOGO_final
 62
7
100
AcDbSpline
 70
8
 71
3
 72
8
 73
4
 74
0
 40
0
 40
0
 40
0
 40
0
 40
1
 40
1
 40
1
 40
1
 10
17.471527
 20
9.293130
 30
0.0
 10
18.908561
 20
9.787206
 30
0.0
 10
19.931630
 20
9.379225
 30
0.0
 10
20.024947
 20
9.339727
 30
0.0
  0
SPLINE
  5
189
100
AcDbEntity
  8
SNAP_ON_AIR_LOGO_final
 62
7
100
AcDbSpline
 70
8
 71
3
 72
8
 73
4
 74
0
 40
0
 40
0
 40
0
 40
0
 40
1
 40
1
 40
1
 40
1
 10
20.024947
 20
9.339727
 30
0.0
 10
20.061556
 20
9.391566
 30
0.0
 10
20.095771
 20
9.444436
 30
0.0
 10
20.128294
 20
9.498173
 30
0.0
  0
SPLINE
  5
18a
100
AcDbEntity
  8
SNAP_ON_AIR_LOGO_final
 62
7
100
AcDbSpline
 70
8
 71
3
 72
8
 73
4
 74
0
 40
0
 40
0
 40
0
 40
0
 40
1
 40
1
 40
1
 40
1
 10
20.128294
 20
9.498173
 30
0.0
 10
20.128294
 20
9.498173
 30
0.0
 10
19.075881
 20
9.973553
 30
0.0
 10
17.567693
 20
9.454796
 30
0.0
  0
SPLINE
  5
18b
100
AcDbEntity
  8
SNAP_ON_AIR_LOGO_final
 62
7
100
AcDbSpline
 70
8
 71
3
 72
8
 73
4
 74
0
 40
0
 40
0
 40
0
 40
0
 40
1
 40
1
 40
1
 40
1
 10
17.567693
 20
9.454796
 30
0.0
 10
17.567693
 20
9.454796
 30
0.0
 10
16.129545
 20
10.227008
 30
0.0
 10
14.626887
 20
9.181694
 30
0.0
  0
SPLINE
  5
18c
100
AcDbEntity
  8
SNAP_ON_AIR_LOGO_final
 62
7
100
AcDbSpline
 70
8
 71
3
 72
8
 73
4
 74
0
 40
0
 40
0
 40
0
 40
0
 40
1
 40
1
 40
1
 40
1
 10
14.626887
 20
9.181690
 30
0.0
 10
15.220348
 20
8.422107
 30
0.0
 10
16.207509
 20
7.762486
 30
0.0
 10
17.808973
 20
8.033235
 30
0.0
  0
SPLINE
  5
18d
100
AcDbEntity
  8
SNAP_ON_AIR_LOGO_final
 62
7
100
AcDbSpline
 70
8
 71
3
 72
8
 73
4
 74
0
 40
0
 40
0
 40
0
 40
0
 40
1
 40
1
 40
1
 40
1
 10
17.808973
 20
8.033235
 30
0.0
 10
19.018677
 20
8.237741
 30
0.0
 10
19.722625
 20
8.828230
 30
0.0
 10
20.128294
 20
9.498169
 30
0.0
  0
SPLINE
  5
18e
100
AcDbEntity
  8
SNAP_ON_AIR_LOGO_final
 62
7
100
AcDbSpline
 70
8
 71
3
 72
8
 73
4
 74
0
 40
0
 40
0
 40
0
 40
0
 40
1
 40
1
 40
1
 40
1
 10
20.128294
 20
9.498169
 30
0.0
 10
20.128294
 20
9.498169
 30
0.0
 10
20.126932
 20
9.498664
 30
0.0
 10
20.123837
 20
9.500398
 30
0.0
  0
SPLINE
  5
18f
100
AcDbEntity
  8
SNAP_ON_AIR_LOGO_final
 62
7
100
AcDbSpline
 70
8
 71
3
 72
8
 73
4
 74
0
 40
0
 40
0
 40
0
 40
0
 40
1
 40
1
 40
1
 40
1
 10
20.123837
 20
9.500398
 30
0.0
 10
19.707395
 20
8.884650
 30
0.0
 10
19.018512
 20
8.356029
 30
0.0
 10
17.887556
 20
8.164854
 30
0.0
  0
SPLINE
  5
190
100
AcDbEntity
  8
SNAP_ON_AIR_LOGO_final
 62
7
100
AcDbSpline
 70
8
 71
3
 72
8
 73
4
 74
0
 40
0
 40
0
 40
0
 40
0
 40
1
 40
1
 40
1
 40
1
 10
17.887556
 20
8.164854
 30
0.0
 10
16.322825
 20
7.900296
 30
0.0
 10
15.344290
 20
8.523926
 30
0.0
 10
14.746702
 20
9.261305
 30
0.0
  0
SPLINE
  5
191
100
AcDbEntity
  8
SNAP_ON_AIR_LOGO_final
 62
7
100
AcDbSpline
 70
8
 71
3
 72
8
 73
4
 74
0
 40
0
 40
0
 40
0
 40
0
 40
1
 40
1
 40
1
 40
1
 10
14.746702
 20
9.261305
 30
0.0
 10
14.706874
 20
9.236005
 30
0.0
 10
14.666922
 20
9.209590
 30
0.0
 10
14.626887
 20
9.181690
 30
0.0
  0
LWPOLYLINE
  5
192
100
AcDbEntity
  8
SNAP_ON_AIR_LOGO_final
 62
7
100
AcDbPolyline
 90
2
 70
0
 10
15.146754
 20
11.174894
 30
0.0
 10
15.922516
 20
11.306059
 30
0.0
  0
SPLINE
  5
193
100
AcDbEntity
  8
SNAP_ON_AIR_LOGO_final
 62
7
100
AcDbSpline
 70
8
 71
3
 72
8
 73
4
 74
0
 40
0
 40
0
 40
0
 40
0
 40
1
 40
1
 40
1
 40
1
 10
19.875202
 20
10.995094
 30
0.0
 10
19.893238
 20
10.888445
 30
0.0
 10
19.834424
 20
10.789556
 30
0.0
 10
19.743830
 20
10.774244
 30
0.0
  0
LWPOLYLINE
  5
194
100
AcDbEntity
  8
SNAP_ON_AIR_LOGO_final
 62
7
100
AcDbPolyline
 90
2
 70
0
 10
19.746926
 20
11.753934
 30
0.0
 10
19.875202
 20
10.995094
 30
0.0
  0
SPLINE
  5
195
100
AcDbEntity
  8
SNAP_ON_AIR_LOGO_final
 62
7
100
AcDbSpline
 70
8
 71
3
 72
8
 73
4
 74
0
 40
0
 40
0
 40
0
 40
0
 40
1
 40
1
 40
1
 40
1
 10
19.091680
 20
10.663963
 30
0.0
 10
19.001045
 20
10.648651
 30
0.0
 10
18.913010
 20
10.722735
 30
0.0
 10
18.894974
 20
10.829384
 30
0.0
  0
LWPOLYLINE
  5
196
100
AcDbEntity
  8
SNAP_ON_AIR_LOGO_final
 62
7
100
AcDbPolyline
 90
2
 70
0
 10
19.743830
 20
10.774244
 30
0.0
 10
19.091680
 20
10.663963
 30
0.0
  0
SPLINE
  5
197
100
AcDbEntity
  8
SNAP_ON_AIR_LOGO_final
 62
7
100
AcDbSpline
 70
8
 71
3
 72
8
 73
4
 74
0
 40
0
 40
0
 40
0
 40
0
 40
1
 40
1
 40
1
 40
1
 10
18.766699
 20
11.588224
 30
0.0
 10
18.748662
 20
11.694873
 30
0.0
 10
18.807476
 20
11.793762
 30
0.0
 10
18.898070
 20
11.809075
 30
0.0
  0
LWPOLYLINE
  5
198
100
AcDbEntity
  8
SNAP_ON_AIR_LOGO_final
 62
7
100
AcDbPolyline
 90
2
 70
0
 10
18.894974
 20
10.829384
 30
0.0
 10
18.766699
 20
11.588224
 30
0.0
  0
SPLINE
  5
199
100
AcDbEntity
  8
SNAP_ON_AIR_LOGO_final
 62
7
100
AcDbSpline
 70
8
 71
3
 72
8
 73
4
 74
0
 40
0
 40
0
 40
0
 40
0
 40
1
 40
1
 40
1
 40
1
 10
19.550220
 20
11.919355
 30
0.0
 10
19.640814
 20
11.934668
 30
0.0
 10
19.728890
 20
11.860624
 30
0.0
 10
19.746926
 20
11.753934
 30
0.0
  0
SPLINE
  5
19a
100
AcDbEntity
  8
SNAP_ON_AIR_LOGO_final
 62
7
100
AcDbSpline
 70
8
 71
3
 72
8
 73
4
 74
0
 40
0
 40
0
 40
0
 40
0
 40
1
 40
1
 40
1
 40
1
 10
19.276264
 20
11.720004
 30
0.0
 10
19.276264
 20
11.720004
 30
0.0
 10
19.265698
 20
11.719179
 30
0.0
 10
19.247208
 20
11.717775
 30
0.0
  0
SPLINE
  5
19b
100
AcDbEntity
  8
SNAP_ON_AIR_LOGO_final
 62
7
100
AcDbSpline
 70
8
 71
3
 72
8
 73
4
 74
0
 40
0
 40
0
 40
0
 40
0
 40
1
 40
1
 40
1
 40
1
 10
19.247208
 20
11.717775
 30
0.0
 10
19.228842
 20
11.715794
 30
0.0
 10
19.202386
 20
11.714019
 30
0.0
 10
19.170977
 20
11.709975
 30
0.0
  0
SPLINE
  5
19c
100
AcDbEntity
  8
SNAP_ON_AIR_LOGO_final
 62
7
100
AcDbSpline
 70
8
 71
3
 72
8
 73
4
 74
0
 40
0
 40
0
 40
0
 40
0
 40
1
 40
1
 40
1
 40
1
 10
19.170977
 20
11.709975
 30
0.0
 10
19.139569
 20
11.705889
 30
0.0
 10
19.102795
 20
11.702009
 30
0.0
 10
19.063627
 20
11.696231
 30
0.0
  0
SPLINE
  5
19d
100
AcDbEntity
  8
SNAP_ON_AIR_LOGO_final
 62
7
100
AcDbSpline
 70
8
 71
3
 72
8
 73
4
 74
0
 40
0
 40
0
 40
0
 40
0
 40
1
 40
1
 40
1
 40
1
 10
19.063627
 20
11.696231
 30
0.0
 10
19.053639
 20
11.694663
 30
0.0
 10
19.044394
 20
11.693713
 30
0.0
 10
19.033333
 20
11.691567
 30
0.0
  0
SPLINE
  5
19e
100
AcDbEntity
  8
SNAP_ON_AIR_LOGO_final
 62
7
100
AcDbSpline
 70
8
 71
3
 72
8
 73
4
 74
0
 40
0
 40
0
 40
0
 40
0
 40
1
 40
1
 40
1
 40
1
 10
19.033333
 20
11.691567
 30
0.0
 10
19.023675
 20
11.689999
 30
0.0
 10
19.012696
 20
11.686738
 30
0.0
 10
19.002007
 20
11.682281
 30
0.0
  0
SPLINE
  5
19f
100
AcDbEntity
  8
SNAP_ON_AIR_LOGO_final
 62
7
100
AcDbSpline
 70
8
 71
3
 72
8
 73
4
 74
0
 40
0
 40
0
 40
0
 40
0
 40
1
 40
1
 40
1
 40
1
 10
19.002007
 20
11.682281
 30
0.0
 10
18.981453
 20
11.673490
 30
0.0
 10
18.962261
 20
11.659663
 30
0.0
 10
18.946247
 20
11.641916
 30
0.0
  0
SPLINE
  5
1a0
100
AcDbEntity
  8
SNAP_ON_AIR_LOGO_final
 62
7
100
AcDbSpline
 70
8
 71
3
 72
8
 73
4
 74
0
 40
0
 40
0
 40
0
 40
0
 40
1
 40
1
 40
1
 40
1
 10
18.946247
 20
11.641916
 30
0.0
 10
18.914302
 20
11.606133
 30
0.0
 10
18.896307
 20
11.554583
 30
0.0
 10
18.896885
 20
11.505179
 30
0.0
  0
SPLINE
  5
1a1
100
AcDbEntity
  8
SNAP_ON_AIR_LOGO_final
 62
7
100
AcDbSpline
 70
8
 71
3
 72
8
 73
4
 74
0
 40
0
 40
0
 40
0
 40
0
 40
1
 40
1
 40
1
 40
1
 10
18.896885
 20
11.505179
 30
0.0
 10
18.896555
 20
11.480416
 30
0.0
 10
18.901879
 20
11.456684
 30
0.0
 10
18.906006
 20
11.436295
 30
0.0
  0
SPLINE
  5
1a2
100
AcDbEntity
  8
SNAP_ON_AIR_LOGO_final
 62
7
100
AcDbSpline
 70
8
 71
3
 72
8
 73
4
 74
0
 40
0
 40
0
 40
0
 40
0
 40
1
 40
1
 40
1
 40
1
 10
18.906006
 20
11.436295
 30
0.0
 10
18.910258
 20
11.415370
 30
0.0
 10
18.914261
 20
11.395600
 30
0.0
 10
18.917934
 20
11.377317
 30
0.0
  0
SPLINE
  5
1a3
100
AcDbEntity
  8
SNAP_ON_AIR_LOGO_final
 62
7
100
AcDbSpline
 70
8
 71
3
 72
8
 73
4
 74
0
 40
0
 40
0
 40
0
 40
0
 40
1
 40
1
 40
1
 40
1
 10
18.917934
 20
11.377317
 30
0.0
 10
18.925198
 20
11.340749
 30
0.0
 10
18.932627
 20
11.310537
 30
0.0
 10
18.937167
 20
11.289241
 30
0.0
  0
SPLINE
  5
1a4
100
AcDbEntity
  8
SNAP_ON_AIR_LOGO_final
 62
7
100
AcDbSpline
 70
8
 71
3
 72
8
 73
4
 74
0
 40
0
 40
0
 40
0
 40
0
 40
1
 40
1
 40
1
 40
1
 10
18.937167
 20
11.289241
 30
0.0
 10
18.942244
 20
11.268068
 30
0.0
 10
18.945092
 20
11.255933
 30
0.0
 10
18.945092
 20
11.255933
 30
0.0
  0
SPLINE
  5
1a5
100
AcDbEntity
  8
SNAP_ON_AIR_LOGO_final
 62
7
100
AcDbSpline
 70
8
 71
3
 72
8
 73
4
 74
0
 40
0
 40
0
 40
0
 40
0
 40
1
 40
1
 40
1
 40
1
 10
18.945092
 20
11.255933
 30
0.0
 10
18.945092
 20
11.255933
 30
0.0
 10
18.943854
 20
11.268315
 30
0.0
 10
18.941666
 20
11.289983
 30
0.0
  0
SPLINE
  5
1a6
100
AcDbEntity
  8
SNAP_ON_AIR_LOGO_final
 62
7
100
AcDbSpline
 70
8
 71
3
 72
8
 73
4
 74
0
 40
0
 40
0
 40
0
 40
0
 40
1
 40
1
 40
1
 40
1
 10
18.941666
 20
11.289983
 30
0.0
 10
18.938942
 20
11.311610
 30
0.0
 10
18.936053
 20
11.342606
 30
0.0
 10
18.930853
 20
11.379504
 30
0.0
  0
SPLINE
  5
1a7
100
AcDbEntity
  8
SNAP_ON_AIR_LOGO_final
 62
7
100
AcDbSpline
 70
8
 71
3
 72
8
 73
4
 74
0
 40
0
 40
0
 40
0
 40
0
 40
1
 40
1
 40
1
 40
1
 10
18.930853
 20
11.379504
 30
0.0
 10
18.928335
 20
11.397953
 30
0.0
 10
18.925611
 20
11.417970
 30
0.0
 10
18.922722
 20
11.439143
 30
0.0
  0
SPLINE
  5
1a8
100
AcDbEntity
  8
SNAP_ON_AIR_LOGO_final
 62
7
100
AcDbSpline
 70
8
 71
3
 72
8
 73
4
 74
0
 40
0
 40
0
 40
0
 40
0
 40
1
 40
1
 40
1
 40
1
 10
18.922722
 20
11.439143
 30
0.0
 10
18.919750
 20
11.460770
 30
0.0
 10
18.916737
 20
11.481695
 30
0.0
 10
18.917480
 20
11.503363
 30
0.0
  0
SPLINE
  5
1a9
100
AcDbEntity
  8
SNAP_ON_AIR_LOGO_final
 62
7
100
AcDbSpline
 70
8
 71
3
 72
8
 73
4
 74
0
 40
0
 40
0
 40
0
 40
0
 40
1
 40
1
 40
1
 40
1
 10
18.917480
 20
11.503363
 30
0.0
 10
18.918801
 20
11.546617
 30
0.0
 10
18.934815
 20
11.591027
 30
0.0
 10
18.962880
 20
11.621775
 30
0.0
  0
SPLINE
  5
1aa
100
AcDbEntity
  8
SNAP_ON_AIR_LOGO_final
 62
7
100
AcDbSpline
 70
8
 71
3
 72
8
 73
4
 74
0
 40
0
 40
0
 40
0
 40
0
 40
1
 40
1
 40
1
 40
1
 10
18.962880
 20
11.621775
 30
0.0
 10
18.976624
 20
11.637417
 30
0.0
 10
18.993133
 20
11.649675
 30
0.0
 10
19.010963
 20
11.657641
 30
0.0
  0
SPLINE
  5
1ab
100
AcDbEntity
  8
SNAP_ON_AIR_LOGO_final
 62
7
100
AcDbSpline
 70
8
 71
3
 72
8
 73
4
 74
0
 40
0
 40
0
 40
0
 40
0
 40
1
 40
1
 40
1
 40
1
 10
19.010963
 20
11.657641
 30
0.0
 10
19.019589
 20
11.661190
 30
0.0
 10
19.028256
 20
11.664451
 30
0.0
 10
19.038657
 20
11.666721
 30
0.0
  0
SPLINE
  5
1ac
100
AcDbEntity
  8
SNAP_ON_AIR_LOGO_final
 62
7
100
AcDbSpline
 70
8
 71
3
 72
8
 73
4
 74
0
 40
0
 40
0
 40
0
 40
0
 40
1
 40
1
 40
1
 40
1
 10
19.038657
 20
11.666721
 30
0.0
 10
19.047489
 20
11.668908
 30
0.0
 10
19.058179
 20
11.670601
 30
0.0
 10
19.067630
 20
11.672540
 30
0.0
  0
SPLINE
  5
1ad
100
AcDbEntity
  8
SNAP_ON_AIR_LOGO_final
 62
7
100
AcDbSpline
 70
8
 71
3
 72
8
 73
4
 74
0
 40
0
 40
0
 40
0
 40
0
 40
1
 40
1
 40
1
 40
1
 10
19.067630
 20
11.672540
 30
0.0
 10
19.106509
 20
11.679969
 30
0.0
 10
19.142540
 20
11.688389
 30
0.0
 10
19.173536
 20
11.694869
 30
0.0
  0
SPLINE
  5
1ae
100
AcDbEntity
  8
SNAP_ON_AIR_LOGO_final
 62
7
100
AcDbSpline
 70
8
 71
3
 72
8
 73
4
 74
0
 40
0
 40
0
 40
0
 40
0
 40
1
 40
1
 40
1
 40
1
 10
19.173536
 20
11.694869
 30
0.0
 10
19.204532
 20
11.701349
 30
0.0
 10
19.230080
 20
11.708406
 30
0.0
 10
19.248116
 20
11.712575
 30
0.0
  0
SPLINE
  5
1af
100
AcDbEntity
  8
SNAP_ON_AIR_LOGO_final
 62
7
100
AcDbSpline
 70
8
 71
3
 72
8
 73
4
 74
0
 40
0
 40
0
 40
0
 40
0
 40
1
 40
1
 40
1
 40
1
 10
19.248116
 20
11.712575
 30
0.0
 10
19.266028
 20
11.717280
 30
0.0
 10
19.276264
 20
11.720004
 30
0.0
 10
19.276264
 20
11.720004
 30
0.0
  0
SPLINE
  5
1b0
100
AcDbEntity
  8
SNAP_ON_AIR_LOGO_final
 62
7
100
AcDbSpline
 70
8
 71
3
 72
8
 73
4
 74
0
 40
0
 40
0
 40
0
 40
0
 40
1
 40
1
 40
1
 40
1
 10
20.652412
 20
11.901344
 30
0.0
 10
20.664712
 20
11.713017
 30
0.0
 10
20.671646
 20
11.407062
 30
0.0
 10
20.630332
 20
11.046668
 30
0.0
  0
SPLINE
  5
1b1
100
AcDbEntity
  8
SNAP_ON_AIR_LOGO_final
 62
7
100
AcDbSpline
 70
8
 71
3
 72
8
 73
4
 74
0
 40
0
 40
0
 40
0
 40
0
 40
1
 40
1
 40
1
 40
1
 10
20.630332
 20
11.046668
 30
0.0
 10
20.621747
 20
10.971800
 30
0.0
 10
20.572426
 20
10.914307
 30
0.0
 10
20.508371
 20
10.903493
 30
0.0
  0
LWPOLYLINE
  5
1b2
100
AcDbEntity
  8
SNAP_ON_AIR_LOGO_final
 62
7
100
AcDbPolyline
 90
2
 70
0
 10
18.898070
 20
11.809075
 30
0.0
 10
19.550220
 20
11.919355
 30
0.0
  0
SPLINE
  5
1b3
100
AcDbEntity
  8
SNAP_ON_AIR_LOGO_final
 62
7
100
AcDbSpline
 70
8
 71
3
 72
8
 73
4
 74
0
 40
0
 40
0
 40
0
 40
0
 40
1
 40
1
 40
1
 40
1
 10
20.058126
 20
10.827386
 30
0.0
 10
19.975127
 20
10.813354
 30
0.0
 10
19.894480
 20
10.881165
 30
0.0
 10
19.877971
 20
10.978857
 30
0.0
  0
LWPOLYLINE
  5
1b4
100
AcDbEntity
  8
SNAP_ON_AIR_LOGO_final
 62
7
100
AcDbPolyline
 90
2
 70
0
 10
20.508371
 20
10.903493
 30
0.0
 10
20.058126
 20
10.827386
 30
0.0
  0
SPLINE
  5
1b5
100
AcDbEntity
  8
SNAP_ON_AIR_LOGO_final
 62
7
100
AcDbSpline
 70
8
 71
3
 72
8
 73
4
 74
0
 40
0
 40
0
 40
0
 40
0
 40
1
 40
1
 40
1
 40
1
 10
19.744165
 20
11.770179
 30
0.0
 10
19.727656
 20
11.867872
 30
0.0
 10
19.781558
 20
11.958465
 30
0.0
 10
19.864516
 20
11.972498
 30
0.0
  0
LWPOLYLINE
  5
1b6
100
AcDbEntity
  8
SNAP_ON_AIR_LOGO_final
 62
7
100
AcDbPolyline
 90
2
 70
0
 10
19.877971
 20
10.978857
 30
0.0
 10
19.744165
 20
11.770179
 30
0.0
  0
SPLINE
  5
1b7
100
AcDbEntity
  8
SNAP_ON_AIR_LOGO_final
 62
7
100
AcDbSpline
 70
8
 71
3
 72
8
 73
4
 74
0
 40
0
 40
0
 40
0
 40
0
 40
1
 40
1
 40
1
 40
1
 10
20.469698
 20
12.074813
 30
0.0
 10
20.560044
 20
12.090084
 30
0.0
 10
20.645396
 20
12.008777
 30
0.0
 10
20.652412
 20
11.901344
 30
0.0
  0
SPLINE
  5
1b8
100
AcDbEntity
  8
SNAP_ON_AIR_LOGO_final
 62
7
100
AcDbSpline
 70
8
 71
3
 72
8
 73
4
 74
0
 40
0
 40
0
 40
0
 40
0
 40
1
 40
1
 40
1
 40
1
 10
20.260181
 20
11.886345
 30
0.0
 10
20.260181
 20
11.886345
 30
0.0
 10
20.249615
 20
11.885520
 30
0.0
 10
20.231125
 20
11.884117
 30
0.0
  0
SPLINE
  5
1b9
100
AcDbEntity
  8
SNAP_ON_AIR_LOGO_final
 62
7
100
AcDbSpline
 70
8
 71
3
 72
8
 73
4
 74
0
 40
0
 40
0
 40
0
 40
0
 40
1
 40
1
 40
1
 40
1
 10
20.231125
 20
11.884117
 30
0.0
 10
20.212759
 20
11.882136
 30
0.0
 10
20.186303
 20
11.880361
 30
0.0
 10
20.154894
 20
11.876316
 30
0.0
  0
SPLINE
  5
1ba
100
AcDbEntity
  8
SNAP_ON_AIR_LOGO_final
 62
7
100
AcDbSpline
 70
8
 71
3
 72
8
 73
4
 74
0
 40
0
 40
0
 40
0
 40
0
 40
1
 40
1
 40
1
 40
1
 10
20.154894
 20
11.876316
 30
0.0
 10
20.123486
 20
11.872230
 30
0.0
 10
20.086712
 20
11.868351
 30
0.0
 10
20.047544
 20
11.862572
 30
0.0
  0
SPLINE
  5
1bb
100
AcDbEntity
  8
SNAP_ON_AIR_LOGO_final
 62
7
100
AcDbSpline
 70
8
 71
3
 72
8
 73
4
 74
0
 40
0
 40
0
 40
0
 40
0
 40
1
 40
1
 40
1
 40
1
 10
20.047544
 20
11.862572
 30
0.0
 10
20.037556
 20
11.861004
 30
0.0
 10
20.028311
 20
11.860055
 30
0.0
 10
20.017250
 20
11.857909
 30
0.0
  0
SPLINE
  5
1bc
100
AcDbEntity
  8
SNAP_ON_AIR_LOGO_final
 62
7
100
AcDbSpline
 70
8
 71
3
 72
8
 73
4
 74
0
 40
0
 40
0
 40
0
 40
0
 40
1
 40
1
 40
1
 40
1
 10
20.017250
 20
11.857909
 30
0.0
 10
20.007592
 20
11.856340
 30
0.0
 10
19.996614
 20
11.853080
 30
0.0
 10
19.985924
 20
11.848622
 30
0.0
  0
SPLINE
  5
1bd
100
AcDbEntity
  8
SNAP_ON_AIR_LOGO_final
 62
7
100
AcDbSpline
 70
8
 71
3
 72
8
 73
4
 74
0
 40
0
 40
0
 40
0
 40
0
 40
1
 40
1
 40
1
 40
1
 10
19.985924
 20
11.848622
 30
0.0
 10
19.965370
 20
11.839831
 30
0.0
 10
19.946178
 20
11.826005
 30
0.0
 10
19.930164
 20
11.808257
 30
0.0
  0
SPLINE
  5
1be
100
AcDbEntity
  8
SNAP_ON_AIR_LOGO_final
 62
7
100
AcDbSpline
 70
8
 71
3
 72
8
 73
4
 74
0
 40
0
 40
0
 40
0
 40
0
 40
1
 40
1
 40
1
 40
1
 10
19.930164
 20
11.808257
 30
0.0
 10
19.898219
 20
11.772474
 30
0.0
 10
19.880224
 20
11.720924
 30
0.0
 10
19.880802
 20
11.671521
 30
0.0
  0
SPLINE
  5
1bf
100
AcDbEntity
  8
SNAP_ON_AIR_LOGO_final
 62
7
100
AcDbSpline
 70
8
 71
3
 72
8
 73
4
 74
0
 40
0
 40
0
 40
0
 40
0
 40
1
 40
1
 40
1
 40
1
 10
19.880802
 20
11.671521
 30
0.0
 10
19.880472
 20
11.646716
 30
0.0
 10
19.885796
 20
11.623025
 30
0.0
 10
19.889924
 20
11.602637
 30
0.0
  0
SPLINE
  5
1c0
100
AcDbEntity
  8
SNAP_ON_AIR_LOGO_final
 62
7
100
AcDbSpline
 70
8
 71
3
 72
8
 73
4
 74
0
 40
0
 40
0
 40
0
 40
0
 40
1
 40
1
 40
1
 40
1
 10
19.889924
 20
11.602637
 30
0.0
 10
19.894175
 20
11.581711
 30
0.0
 10
19.898178
 20
11.561942
 30
0.0
 10
19.901893
 20
11.543658
 30
0.0
  0
SPLINE
  5
1c1
100
AcDbEntity
  8
SNAP_ON_AIR_LOGO_final
 62
7
100
AcDbSpline
 70
8
 71
3
 72
8
 73
4
 74
0
 40
0
 40
0
 40
0
 40
0
 40
1
 40
1
 40
1
 40
1
 10
19.901893
 20
11.543658
 30
0.0
 10
19.909115
 20
11.507090
 30
0.0
 10
19.916544
 20
11.476879
 30
0.0
 10
19.921084
 20
11.455582
 30
0.0
  0
SPLINE
  5
1c2
100
AcDbEntity
  8
SNAP_ON_AIR_LOGO_final
 62
7
100
AcDbSpline
 70
8
 71
3
 72
8
 73
4
 74
0
 40
0
 40
0
 40
0
 40
0
 40
1
 40
1
 40
1
 40
1
 10
19.921084
 20
11.455582
 30
0.0
 10
19.926161
 20
11.434409
 30
0.0
 10
19.929009
 20
11.422275
 30
0.0
 10
19.929009
 20
11.422275
 30
0.0
  0
SPLINE
  5
1c3
100
AcDbEntity
  8
SNAP_ON_AIR_LOGO_final
 62
7
100
AcDbSpline
 70
8
 71
3
 72
8
 73
4
 74
0
 40
0
 40
0
 40
0
 40
0
 40
1
 40
1
 40
1
 40
1
 10
19.929009
 20
11.422275
 30
0.0
 10
19.929009
 20
11.422275
 30
0.0
 10
19.927771
 20
11.434657
 30
0.0
 10
19.925583
 20
11.456325
 30
0.0
  0
SPLINE
  5
1c4
100
AcDbEntity
  8
SNAP_ON_AIR_LOGO_final
 62
7
100
AcDbSpline
 70
8
 71
3
 72
8
 73
4
 74
0
 40
0
 40
0
 40
0
 40
0
 40
1
 40
1
 40
1
 40
1
 10
19.925583
 20
11.456325
 30
0.0
 10
19.922859
 20
11.477952
 30
0.0
 10
19.919970
 20
11.508948
 30
0.0
 10
19.914770
 20
11.545845
 30
0.0
  0
SPLINE
  5
1c5
100
AcDbEntity
  8
SNAP_ON_AIR_LOGO_final
 62
7
100
AcDbSpline
 70
8
 71
3
 72
8
 73
4
 74
0
 40
0
 40
0
 40
0
 40
0
 40
1
 40
1
 40
1
 40
1
 10
19.914770
 20
11.545845
 30
0.0
 10
19.912252
 20
11.564294
 30
0.0
 10
19.909528
 20
11.584312
 30
0.0
 10
19.906639
 20
11.605485
 30
0.0
  0
SPLINE
  5
1c6
100
AcDbEntity
  8
SNAP_ON_AIR_LOGO_final
 62
7
100
AcDbSpline
 70
8
 71
3
 72
8
 73
4
 74
0
 40
0
 40
0
 40
0
 40
0
 40
1
 40
1
 40
1
 40
1
 10
19.906639
 20
11.605485
 30
0.0
 10
19.903667
 20
11.627111
 30
0.0
 10
19.900654
 20
11.648037
 30
0.0
 10
19.901397
 20
11.669705
 30
0.0
  0
SPLINE
  5
1c7
100
AcDbEntity
  8
SNAP_ON_AIR_LOGO_final
 62
7
100
AcDbSpline
 70
8
 71
3
 72
8
 73
4
 74
0
 40
0
 40
0
 40
0
 40
0
 40
1
 40
1
 40
1
 40
1
 10
19.901397
 20
11.669705
 30
0.0
 10
19.902718
 20
11.712959
 30
0.0
 10
19.918732
 20
11.757327
 30
0.0
 10
19.946797
 20
11.788116
 30
0.0
  0
SPLINE
  5
1c8
100
AcDbEntity
  8
SNAP_ON_AIR_LOGO_final
 62
7
100
AcDbSpline
 70
8
 71
3
 72
8
 73
4
 74
0
 40
0
 40
0
 40
0
 40
0
 40
1
 40
1
 40
1
 40
1
 10
19.946797
 20
11.788116
 30
0.0
 10
19.960541
 20
11.803759
 30
0.0
 10
19.977050
 20
11.816017
 30
0.0
 10
19.994880
 20
11.823982
 30
0.0
  0
SPLINE
  5
1c9
100
AcDbEntity
  8
SNAP_ON_AIR_LOGO_final
 62
7
100
AcDbSpline
 70
8
 71
3
 72
8
 73
4
 74
0
 40
0
 40
0
 40
0
 40
0
 40
1
 40
1
 40
1
 40
1
 10
19.994880
 20
11.823982
 30
0.0
 10
20.003506
 20
11.827532
 30
0.0
 10
20.012173
 20
11.830792
 30
0.0
 10
20.022574
 20
11.833062
 30
0.0
  0
SPLINE
  5
1ca
100
AcDbEntity
  8
SNAP_ON_AIR_LOGO_final
 62
7
100
AcDbSpline
 70
8
 71
3
 72
8
 73
4
 74
0
 40
0
 40
0
 40
0
 40
0
 40
1
 40
1
 40
1
 40
1
 10
20.022574
 20
11.833062
 30
0.0
 10
20.031406
 20
11.835250
 30
0.0
 10
20.042096
 20
11.836942
 30
0.0
 10
20.051548
 20
11.838882
 30
0.0
  0
SPLINE
  5
1cb
100
AcDbEntity
  8
SNAP_ON_AIR_LOGO_final
 62
7
100
AcDbSpline
 70
8
 71
3
 72
8
 73
4
 74
0
 40
0
 40
0
 40
0
 40
0
 40
1
 40
1
 40
1
 40
1
 10
20.051548
 20
11.838882
 30
0.0
 10
20.090426
 20
11.846311
 30
0.0
 10
20.126458
 20
11.854731
 30
0.0
 10
20.157453
 20
11.861210
 30
0.0
  0
SPLINE
  5
1cc
100
AcDbEntity
  8
SNAP_ON_AIR_LOGO_final
 62
7
100
AcDbSpline
 70
8
 71
3
 72
8
 73
4
 74
0
 40
0
 40
0
 40
0
 40
0
 40
1
 40
1
 40
1
 40
1
 10
20.157453
 20
11.861210
 30
0.0
 10
20.188449
 20
11.867690
 30
0.0
 10
20.213997
 20
11.874748
 30
0.0
 10
20.232033
 20
11.878916
 30
0.0
  0
SPLINE
  5
1cd
100
AcDbEntity
  8
SNAP_ON_AIR_LOGO_final
 62
7
100
AcDbSpline
 70
8
 71
3
 72
8
 73
4
 74
0
 40
0
 40
0
 40
0
 40
0
 40
1
 40
1
 40
1
 40
1
 10
20.232033
 20
11.878916
 30
0.0
 10
20.249946
 20
11.883621
 30
0.0
 10
20.260181
 20
11.886345
 30
0.0
 10
20.260181
 20
11.886345
 30
0.0
  0
LWPOLYLINE
  5
1ce
100
AcDbEntity
  8
SNAP_ON_AIR_LOGO_final
 62
7
100
AcDbPolyline
 90
2
 70
0
 10
19.864516
 20
11.972498
 30
0.0
 10
20.469698
 20
12.074813
 30
0.0
  0
SPLINE
  5
1cf
100
AcDbEntity
  8
SNAP_ON_AIR_LOGO_final
 62
7
100
AcDbSpline
 70
8
 71
3
 72
8
 73
4
 74
0
 40
0
 40
0
 40
0
 40
0
 40
1
 40
1
 40
1
 40
1
 10
17.778151
 20
10.632847
 30
0.0
 10
17.795485
 20
10.530326
 30
0.0
 10
17.738942
 20
10.435275
 30
0.0
 10
17.651856
 20
10.420582
 30
0.0
  0
LWPOLYLINE
  5
1d0
100
AcDbEntity
  8
SNAP_ON_AIR_LOGO_final
 62
7
100
AcDbPolyline
 90
2
 70
0
 10
17.647316
 20
11.406711
 30
0.0
 10
17.778151
 20
10.632847
 30
0.0
  0
SPLINE
  5
1d1
100
AcDbEntity
  8
SNAP_ON_AIR_LOGO_final
 62
7
100
AcDbSpline
 70
8
 71
3
 72
8
 73
4
 74
0
 40
0
 40
0
 40
0
 40
0
 40
1
 40
1
 40
1
 40
1
 10
16.986953
 20
10.308155
 30
0.0
 10
16.899867
 20
10.293420
 30
0.0
 10
16.815217
 20
10.364616
 30
0.0
 10
16.797882
 20
10.467137
 30
0.0
  0
LWPOLYLINE
  5
1d2
100
AcDbEntity
  8
SNAP_ON_AIR_LOGO_final
 62
7
100
AcDbPolyline
 90
2
 70
0
 10
17.651856
 20
10.420582
 30
0.0
 10
16.986953
 20
10.308155
 30
0.0
  0
SPLINE
  5
1d3
100
AcDbEntity
  8
SNAP_ON_AIR_LOGO_final
 62
7
100
AcDbSpline
 70
8
 71
3
 72
8
 73
4
 74
0
 40
0
 40
0
 40
0
 40
0
 40
1
 40
1
 40
1
 40
1
 10
16.667089
 20
11.241001
 30
0.0
 10
16.649754
 20
11.343522
 30
0.0
 10
16.706257
 20
11.438532
 30
0.0
 10
16.793342
 20
11.453267
 30
0.0
  0
LWPOLYLINE
  5
1d4
100
AcDbEntity
  8
SNAP_ON_AIR_LOGO_final
 62
7
100
AcDbPolyline
 90
2
 70
0
 10
16.797882
 20
10.467137
 30
0.0
 10
16.667089
 20
11.241001
 30
0.0
  0
SPLINE
  5
1d5
100
AcDbEntity
  8
SNAP_ON_AIR_LOGO_final
 62
7
100
AcDbSpline
 70
8
 71
3
 72
8
 73
4
 74
0
 40
0
 40
0
 40
0
 40
0
 40
1
 40
1
 40
1
 40
1
 10
17.458287
 20
11.565694
 30
0.0
 10
17.545331
 20
11.580387
 30
0.0
 10
17.629982
 20
11.509232
 30
0.0
 10
17.647316
 20
11.406711
 30
0.0
  0
SPLINE
  5
1d6
100
AcDbEntity
  8
SNAP_ON_AIR_LOGO_final
 62
7
100
AcDbSpline
 70
8
 71
3
 72
8
 73
4
 74
0
 40
0
 40
0
 40
0
 40
0
 40
1
 40
1
 40
1
 40
1
 10
17.167711
 20
11.363531
 30
0.0
 10
17.167711
 20
11.363531
 30
0.0
 10
17.157145
 20
11.362706
 30
0.0
 10
17.138655
 20
11.361303
 30
0.0
  0
SPLINE
  5
1d7
100
AcDbEntity
  8
SNAP_ON_AIR_LOGO_final
 62
7
100
AcDbSpline
 70
8
 71
3
 72
8
 73
4
 74
0
 40
0
 40
0
 40
0
 40
0
 40
1
 40
1
 40
1
 40
1
 10
17.138655
 20
11.361303
 30
0.0
 10
17.120288
 20
11.359322
 30
0.0
 10
17.093832
 20
11.357547
 30
0.0
 10
17.062424
 20
11.353502
 30
0.0
  0
SPLINE
  5
1d8
100
AcDbEntity
  8
SNAP_ON_AIR_LOGO_final
 62
7
100
AcDbSpline
 70
8
 71
3
 72
8
 73
4
 74
0
 40
0
 40
0
 40
0
 40
0
 40
1
 40
1
 40
1
 40
1
 10
17.062424
 20
11.353502
 30
0.0
 10
17.031015
 20
11.349416
 30
0.0
 10
16.994241
 20
11.345537
 30
0.0
 10
16.955073
 20
11.339758
 30
0.0
  0
SPLINE
  5
1d9
100
AcDbEntity
  8
SNAP_ON_AIR_LOGO_final
 62
7
100
AcDbSpline
 70
8
 71
3
 72
8
 73
4
 74
0
 40
0
 40
0
 40
0
 40
0
 40
1
 40
1
 40
1
 40
1
 10
16.955073
 20
11.339758
 30
0.0
 10
16.945085
 20
11.338190
 30
0.0
 10
16.935840
 20
11.337241
 30
0.0
 10
16.924779
 20
11.335095
 30
0.0
  0
SPLINE
  5
1da
100
AcDbEntity
  8
SNAP_ON_AIR_LOGO_final
 62
7
100
AcDbSpline
 70
8
 71
3
 72
8
 73
4
 74
0
 40
0
 40
0
 40
0
 40
0
 40
1
 40
1
 40
1
 40
1
 10
16.924779
 20
11.335095
 30
0.0
 10
16.915121
 20
11.333526
 30
0.0
 10
16.904143
 20
11.330266
 30
0.0
 10
16.893453
 20
11.325808
 30
0.0
  0
SPLINE
  5
1db
100
AcDbEntity
  8
SNAP_ON_AIR_LOGO_final
 62
7
100
AcDbSpline
 70
8
 71
3
 72
8
 73
4
 74
0
 40
0
 40
0
 40
0
 40
0
 40
1
 40
1
 40
1
 40
1
 10
16.893453
 20
11.325808
 30
0.0
 10
16.872899
 20
11.317017
 30
0.0
 10
16.853708
 20
11.303191
 30
0.0
 10
16.837694
 20
11.285443
 30
0.0
  0
SPLINE
  5
1dc
100
AcDbEntity
  8
SNAP_ON_AIR_LOGO_final
 62
7
100
AcDbSpline
 70
8
 71
3
 72
8
 73
4
 74
0
 40
0
 40
0
 40
0
 40
0
 40
1
 40
1
 40
1
 40
1
 10
16.837694
 20
11.285443
 30
0.0
 10
16.805749
 20
11.249660
 30
0.0
 10
16.787754
 20
11.198110
 30
0.0
 10
16.788332
 20
11.148707
 30
0.0
  0
SPLINE
  5
1dd
100
AcDbEntity
  8
SNAP_ON_AIR_LOGO_final
 62
7
100
AcDbSpline
 70
8
 71
3
 72
8
 73
4
 74
0
 40
0
 40
0
 40
0
 40
0
 40
1
 40
1
 40
1
 40
1
 10
16.788332
 20
11.148707
 30
0.0
 10
16.788001
 20
11.123943
 30
0.0
 10
16.793326
 20
11.100211
 30
0.0
 10
16.797453
 20
11.079823
 30
0.0
  0
SPLINE
  5
1de
100
AcDbEntity
  8
SNAP_ON_AIR_LOGO_final
 62
7
100
AcDbSpline
 70
8
 71
3
 72
8
 73
4
 74
0
 40
0
 40
0
 40
0
 40
0
 40
1
 40
1
 40
1
 40
1
 10
16.797453
 20
11.079823
 30
0.0
 10
16.801704
 20
11.058897
 30
0.0
 10
16.805707
 20
11.039128
 30
0.0
 10
16.809422
 20
11.020844
 30
0.0
  0
SPLINE
  5
1df
100
AcDbEntity
  8
SNAP_ON_AIR_LOGO_final
 62
7
100
AcDbSpline
 70
8
 71
3
 72
8
 73
4
 74
0
 40
0
 40
0
 40
0
 40
0
 40
1
 40
1
 40
1
 40
1
 10
16.809422
 20
11.020844
 30
0.0
 10
16.816645
 20
10.984276
 30
0.0
 10
16.824074
 20
10.954065
 30
0.0
 10
16.828614
 20
10.932768
 30
0.0
  0
SPLINE
  5
1e0
100
AcDbEntity
  8
SNAP_ON_AIR_LOGO_final
 62
7
100
AcDbSpline
 70
8
 71
3
 72
8
 73
4
 74
0
 40
0
 40
0
 40
0
 40
0
 40
1
 40
1
 40
1
 40
1
 10
16.828614
 20
10.932768
 30
0.0
 10
16.833690
 20
10.911595
 30
0.0
 10
16.836538
 20
10.899461
 30
0.0
 10
16.836538
 20
10.899461
 30
0.0
  0
SPLINE
  5
1e1
100
AcDbEntity
  8
SNAP_ON_AIR_LOGO_final
 62
7
100
AcDbSpline
 70
8
 71
3
 72
8
 73
4
 74
0
 40
0
 40
0
 40
0
 40
0
 40
1
 40
1
 40
1
 40
1
 10
16.836538
 20
10.899461
 30
0.0
 10
16.836538
 20
10.899461
 30
0.0
 10
16.835300
 20
10.911843
 30
0.0
 10
16.833113
 20
10.933511
 30
0.0
  0
SPLINE
  5
1e2
100
AcDbEntity
  8
SNAP_ON_AIR_LOGO_final
 62
7
100
AcDbSpline
 70
8
 71
3
 72
8
 73
4
 74
0
 40
0
 40
0
 40
0
 40
0
 40
1
 40
1
 40
1
 40
1
 10
16.833113
 20
10.933511
 30
0.0
 10
16.830389
 20
10.955138
 30
0.0
 10
16.827499
 20
10.986134
 30
0.0
 10
16.822299
 20
11.023031
 30
0.0
  0
SPLINE
  5
1e3
100
AcDbEntity
  8
SNAP_ON_AIR_LOGO_final
 62
7
100
AcDbSpline
 70
8
 71
3
 72
8
 73
4
 74
0
 40
0
 40
0
 40
0
 40
0
 40
1
 40
1
 40
1
 40
1
 10
16.822299
 20
11.023031
 30
0.0
 10
16.819781
 20
11.041480
 30
0.0
 10
16.817057
 20
11.061498
 30
0.0
 10
16.814168
 20
11.082671
 30
0.0
  0
SPLINE
  5
1e4
100
AcDbEntity
  8
SNAP_ON_AIR_LOGO_final
 62
7
100
AcDbSpline
 70
8
 71
3
 72
8
 73
4
 74
0
 40
0
 40
0
 40
0
 40
0
 40
1
 40
1
 40
1
 40
1
 10
16.814168
 20
11.082671
 30
0.0
 10
16.811197
 20
11.104297
 30
0.0
 10
16.808184
 20
11.125223
 30
0.0
 10
16.808927
 20
11.146891
 30
0.0
  0
SPLINE
  5
1e5
100
AcDbEntity
  8
SNAP_ON_AIR_LOGO_final
 62
7
100
AcDbSpline
 70
8
 71
3
 72
8
 73
4
 74
0
 40
0
 40
0
 40
0
 40
0
 40
1
 40
1
 40
1
 40
1
 10
16.808927
 20
11.146891
 30
0.0
 10
16.810247
 20
11.190145
 30
0.0
 10
16.826261
 20
11.234554
 30
0.0
 10
16.854327
 20
11.265302
 30
0.0
  0
SPLINE
  5
1e6
100
AcDbEntity
  8
SNAP_ON_AIR_LOGO_final
 62
7
100
AcDbSpline
 70
8
 71
3
 72
8
 73
4
 74
0
 40
0
 40
0
 40
0
 40
0
 40
1
 40
1
 40
1
 40
1
 10
16.854327
 20
11.265302
 30
0.0
 10
16.868071
 20
11.280945
 30
0.0
 10
16.884580
 20
11.293203
 30
0.0
 10
16.902409
 20
11.301168
 30
0.0
  0
SPLINE
  5
1e7
100
AcDbEntity
  8
SNAP_ON_AIR_LOGO_final
 62
7
100
AcDbSpline
 70
8
 71
3
 72
8
 73
4
 74
0
 40
0
 40
0
 40
0
 40
0
 40
1
 40
1
 40
1
 40
1
 10
16.902409
 20
11.301168
 30
0.0
 10
16.911035
 20
11.304718
 30
0.0
 10
16.919703
 20
11.307978
 30
0.0
 10
16.930103
 20
11.310248
 30
0.0
  0
SPLINE
  5
1e8
100
AcDbEntity
  8
SNAP_ON_AIR_LOGO_final
 62
7
100
AcDbSpline
 70
8
 71
3
 72
8
 73
4
 74
0
 40
0
 40
0
 40
0
 40
0
 40
1
 40
1
 40
1
 40
1
 10
16.930103
 20
11.310248
 30
0.0
 10
16.938936
 20
11.312436
 30
0.0
 10
16.949625
 20
11.314128
 30
0.0
 10
16.959077
 20
11.316068
 30
0.0
  0
SPLINE
  5
1e9
100
AcDbEntity
  8
SNAP_ON_AIR_LOGO_final
 62
7
100
AcDbSpline
 70
8
 71
3
 72
8
 73
4
 74
0
 40
0
 40
0
 40
0
 40
0
 40
1
 40
1
 40
1
 40
1
 10
16.959077
 20
11.316068
 30
0.0
 10
16.997956
 20
11.323497
 30
0.0
 10
17.033987
 20
11.331917
 30
0.0
 10
17.064983
 20
11.338396
 30
0.0
  0
SPLINE
  5
1ea
100
AcDbEntity
  8
SNAP_ON_AIR_LOGO_final
 62
7
100
AcDbSpline
 70
8
 71
3
 72
8
 73
4
 74
0
 40
0
 40
0
 40
0
 40
0
 40
1
 40
1
 40
1
 40
1
 10
17.064983
 20
11.338396
 30
0.0
 10
17.095979
 20
11.344876
 30
0.0
 10
17.121526
 20
11.351934
 30
0.0
 10
17.139563
 20
11.356102
 30
0.0
  0
SPLINE
  5
1eb
100
AcDbEntity
  8
SNAP_ON_AIR_LOGO_final
 62
7
100
AcDbSpline
 70
8
 71
3
 72
8
 73
4
 74
0
 40
0
 40
0
 40
0
 40
0
 40
1
 40
1
 40
1
 40
1
 10
17.139563
 20
11.356102
 30
0.0
 10
17.157475
 20
11.360807
 30
0.0
 10
17.167711
 20
11.363531
 30
0.0
 10
17.167711
 20
11.363531
 30
0.0
  0
LWPOLYLINE
  5
1ec
100
AcDbEntity
  8
SNAP_ON_AIR_LOGO_final
 62
7
100
AcDbPolyline
 90
2
 70
0
 10
16.793342
 20
11.453267
 30
0.0
 10
17.458287
 20
11.565694
 30
0.0
  0
SPLINE
  5
1ed
100
AcDbEntity
  8
SNAP_ON_AIR_LOGO_final
 62
7
100
AcDbSpline
 70
8
 71
3
 72
8
 73
4
 74
0
 40
0
 40
0
 40
0
 40
0
 40
1
 40
1
 40
1
 40
1
 10
18.895536
 20
10.826004
 30
0.0
 10
18.913242
 20
10.721212
 30
0.0
 10
18.855460
 20
10.624056
 30
0.0
 10
18.766476
 20
10.608992
 30
0.0
  0
LWPOLYLINE
  5
1ee
100
AcDbEntity
  8
SNAP_ON_AIR_LOGO_final
 62
7
100
AcDbPolyline
 90
2
 70
0
 10
18.766104
 20
11.591613
 30
0.0
 10
18.895536
 20
10.826004
 30
0.0
  0
SPLINE
  5
1ef
100
AcDbEntity
  8
SNAP_ON_AIR_LOGO_final
 62
7
100
AcDbSpline
 70
8
 71
3
 72
8
 73
4
 74
0
 40
0
 40
0
 40
0
 40
0
 40
1
 40
1
 40
1
 40
1
 10
17.970696
 20
10.474484
 30
0.0
 10
17.881671
 20
10.459419
 30
0.0
 10
17.795163
 20
10.532183
 30
0.0
 10
17.777457
 20
10.636975
 30
0.0
  0
LWPOLYLINE
  5
1f0
100
AcDbEntity
  8
SNAP_ON_AIR_LOGO_final
 62
7
100
AcDbPolyline
 90
2
 70
0
 10
18.766476
 20
10.608992
 30
0.0
 10
17.970696
 20
10.474484
 30
0.0
  0
SPLINE
  5
1f1
100
AcDbEntity
  8
SNAP_ON_AIR_LOGO_final
 62
7
100
AcDbSpline
 70
8
 71
3
 72
8
 73
4
 74
0
 40
0
 40
0
 40
0
 40
0
 40
1
 40
1
 40
1
 40
1
 10
17.648026
 20
11.402584
 30
0.0
 10
17.630279
 20
11.507375
 30
0.0
 10
17.688102
 20
11.604531
 30
0.0
 10
17.777086
 20
11.619596
 30
0.0
  0
LWPOLYLINE
  5
1f2
100
AcDbEntity
  8
SNAP_ON_AIR_LOGO_final
 62
7
100
AcDbPolyline
 90
2
 70
0
 10
17.777457
 20
10.636975
 30
0.0
 10
17.648026
 20
11.402584
 30
0.0
  0
SPLINE
  5
1f3
100
AcDbEntity
  8
SNAP_ON_AIR_LOGO_final
 62
7
100
AcDbSpline
 70
8
 71
3
 72
8
 73
4
 74
0
 40
0
 40
0
 40
0
 40
0
 40
1
 40
1
 40
1
 40
1
 10
18.572865
 20
11.754104
 30
0.0
 10
18.661891
 20
11.769168
 30
0.0
 10
18.748398
 20
11.696404
 30
0.0
 10
18.766104
 20
11.591613
 30
0.0
  0
SPLINE
  5
1f4
100
AcDbEntity
  8
SNAP_ON_AIR_LOGO_final
 62
7
100
AcDbSpline
 70
8
 71
3
 72
8
 73
4
 74
0
 40
0
 40
0
 40
0
 40
0
 40
1
 40
1
 40
1
 40
1
 10
18.151632
 20
11.529873
 30
0.0
 10
18.151632
 20
11.529873
 30
0.0
 10
18.141066
 20
11.529047
 30
0.0
 10
18.122576
 20
11.527644
 30
0.0
  0
SPLINE
  5
1f5
100
AcDbEntity
  8
SNAP_ON_AIR_LOGO_final
 62
7
100
AcDbSpline
 70
8
 71
3
 72
8
 73
4
 74
0
 40
0
 40
0
 40
0
 40
0
 40
1
 40
1
 40
1
 40
1
 10
18.122576
 20
11.527644
 30
0.0
 10
18.104209
 20
11.525663
 30
0.0
 10
18.077754
 20
11.523888
 30
0.0
 10
18.046345
 20
11.519844
 30
0.0
  0
SPLINE
  5
1f6
100
AcDbEntity
  8
SNAP_ON_AIR_LOGO_final
 62
7
100
AcDbSpline
 70
8
 71
3
 72
8
 73
4
 74
0
 40
0
 40
0
 40
0
 40
0
 40
1
 40
1
 40
1
 40
1
 10
18.046345
 20
11.519844
 30
0.0
 10
18.014936
 20
11.515758
 30
0.0
 10
17.978162
 20
11.511878
 30
0.0
 10
17.938995
 20
11.506100
 30
0.0
  0
SPLINE
  5
1f7
100
AcDbEntity
  8
SNAP_ON_AIR_LOGO_final
 62
7
100
AcDbSpline
 70
8
 71
3
 72
8
 73
4
 74
0
 40
0
 40
0
 40
0
 40
0
 40
1
 40
1
 40
1
 40
1
 10
17.938995
 20
11.506100
 30
0.0
 10
17.929007
 20
11.504531
 30
0.0
 10
17.919762
 20
11.503582
 30
0.0
 10
17.908700
 20
11.501436
 30
0.0
  0
SPLINE
  5
1f8
100
AcDbEntity
  8
SNAP_ON_AIR_LOGO_final
 62
7
100
AcDbSpline
 70
8
 71
3
 72
8
 73
4
 74
0
 40
0
 40
0
 40
0
 40
0
 40
1
 40
1
 40
1
 40
1
 10
17.908700
 20
11.501436
 30
0.0
 10
17.899043
 20
11.499868
 30
0.0
 10
17.888064
 20
11.496607
 30
0.0
 10
17.877374
 20
11.492150
 30
0.0
  0
SPLINE
  5
1f9
100
AcDbEntity
  8
SNAP_ON_AIR_LOGO_final
 62
7
100
AcDbSpline
 70
8
 71
3
 72
8
 73
4
 74
0
 40
0
 40
0
 40
0
 40
0
 40
1
 40
1
 40
1
 40
1
 10
17.877374
 20
11.492150
 30
0.0
 10
17.856821
 20
11.483359
 30
0.0
 10
17.837629
 20
11.469532
 30
0.0
 10
17.821615
 20
11.451785
 30
0.0
  0
SPLINE
  5
1fa
100
AcDbEntity
  8
SNAP_ON_AIR_LOGO_final
 62
7
100
AcDbSpline
 70
8
 71
3
 72
8
 73
4
 74
0
 40
0
 40
0
 40
0
 40
0
 40
1
 40
1
 40
1
 40
1
 10
17.821615
 20
11.451785
 30
0.0
 10
17.789670
 20
11.416001
 30
0.0
 10
17.771675
 20
11.364452
 30
0.0
 10
17.772253
 20
11.315048
 30
0.0
  0
SPLINE
  5
1fb
100
AcDbEntity
  8
SNAP_ON_AIR_LOGO_final
 62
7
100
AcDbSpline
 70
8
 71
3
 72
8
 73
4
 74
0
 40
0
 40
0
 40
0
 40
0
 40
1
 40
1
 40
1
 40
1
 10
17.772253
 20
11.315048
 30
0.0
 10
17.771923
 20
11.290285
 30
0.0
 10
17.777247
 20
11.266553
 30
0.0
 10
17.781374
 20
11.246164
 30
0.0
  0
SPLINE
  5
1fc
100
AcDbEntity
  8
SNAP_ON_AIR_LOGO_final
 62
7
100
AcDbSpline
 70
8
 71
3
 72
8
 73
4
 74
0
 40
0
 40
0
 40
0
 40
0
 40
1
 40
1
 40
1
 40
1
 10
17.781374
 20
11.246164
 30
0.0
 10
17.785625
 20
11.225239
 30
0.0
 10
17.789629
 20
11.205469
 30
0.0
 10
17.793302
 20
11.187185
 30
0.0
  0
SPLINE
  5
1fd
100
AcDbEntity
  8
SNAP_ON_AIR_LOGO_final
 62
7
100
AcDbSpline
 70
8
 71
3
 72
8
 73
4
 74
0
 40
0
 40
0
 40
0
 40
0
 40
1
 40
1
 40
1
 40
1
 10
17.793302
 20
11.187185
 30
0.0
 10
17.800566
 20
11.150618
 30
0.0
 10
17.807995
 20
11.120406
 30
0.0
 10
17.812535
 20
11.099109
 30
0.0
  0
SPLINE
  5
1fe
100
AcDbEntity
  8
SNAP_ON_AIR_LOGO_final
 62
7
100
AcDbSpline
 70
8
 71
3
 72
8
 73
4
 74
0
 40
0
 40
0
 40
0
 40
0
 40
1
 40
1
 40
1
 40
1
 10
17.812535
 20
11.099109
 30
0.0
 10
17.817612
 20
11.077937
 30
0.0
 10
17.820459
 20
11.065802
 30
0.0
 10
17.820459
 20
11.065802
 30
0.0
  0
SPLINE
  5
1ff
100
AcDbEntity
  8
SNAP_ON_AIR_LOGO_final
 62
7
100
AcDbSpline
 70
8
 71
3
 72
8
 73
4
 74
0
 40
0
 40
0
 40
0
 40
0
 40
1
 40
1
 40
1
 40
1
 10
17.820459
 20
11.065802
 30
0.0
 10
17.820459
 20
11.065802
 30
0.0
 10
17.819221
 20
11.078184
 30
0.0
 10
17.817034
 20
11.099852
 30
0.0
  0
SPLINE
  5
200
100
AcDbEntity
  8
SNAP_ON_AIR_LOGO_final
 62
7
100
AcDbSpline
 70
8
 71
3
 72
8
 73
4
 74
0
 40
0
 40
0
 40
0
 40
0
 40
1
 40
1
 40
1
 40
1
 10
17.817034
 20
11.099852
 30
0.0
 10
17.814310
 20
11.121479
 30
0.0
 10
17.811421
 20
11.152475
 30
0.0
 10
17.806220
 20
11.189373
 30
0.0
  0
SPLINE
  5
201
100
AcDbEntity
  8
SNAP_ON_AIR_LOGO_final
 62
7
100
AcDbSpline
 70
8
 71
3
 72
8
 73
4
 74
0
 40
0
 40
0
 40
0
 40
0
 40
1
 40
1
 40
1
 40
1
 10
17.806220
 20
11.189373
 30
0.0
 10
17.803703
 20
11.207822
 30
0.0
 10
17.800979
 20
11.227839
 30
0.0
 10
17.798090
 20
11.249012
 30
0.0
  0
SPLINE
  5
202
100
AcDbEntity
  8
SNAP_ON_AIR_LOGO_final
 62
7
100
AcDbSpline
 70
8
 71
3
 72
8
 73
4
 74
0
 40
0
 40
0
 40
0
 40
0
 40
1
 40
1
 40
1
 40
1
 10
17.798090
 20
11.249012
 30
0.0
 10
17.795118
 20
11.270639
 30
0.0
 10
17.792105
 20
11.291564
 30
0.0
 10
17.792848
 20
11.313232
 30
0.0
  0
SPLINE
  5
203
100
AcDbEntity
  8
SNAP_ON_AIR_LOGO_final
 62
7
100
AcDbSpline
 70
8
 71
3
 72
8
 73
4
 74
0
 40
0
 40
0
 40
0
 40
0
 40
1
 40
1
 40
1
 40
1
 10
17.792848
 20
11.313232
 30
0.0
 10
17.794169
 20
11.356486
 30
0.0
 10
17.810182
 20
11.400896
 30
0.0
 10
17.838248
 20
11.431644
 30
0.0
  0
SPLINE
  5
204
100
AcDbEntity
  8
SNAP_ON_AIR_LOGO_final
 62
7
100
AcDbSpline
 70
8
 71
3
 72
8
 73
4
 74
0
 40
0
 40
0
 40
0
 40
0
 40
1
 40
1
 40
1
 40
1
 10
17.838248
 20
11.431644
 30
0.0
 10
17.851992
 20
11.447286
 30
0.0
 10
17.868501
 20
11.459544
 30
0.0
 10
17.886331
 20
11.467510
 30
0.0
  0
SPLINE
  5
205
100
AcDbEntity
  8
SNAP_ON_AIR_LOGO_final
 62
7
100
AcDbSpline
 70
8
 71
3
 72
8
 73
4
 74
0
 40
0
 40
0
 40
0
 40
0
 40
1
 40
1
 40
1
 40
1
 10
17.886331
 20
11.467510
 30
0.0
 10
17.894957
 20
11.471059
 30
0.0
 10
17.903624
 20
11.474320
 30
0.0
 10
17.914025
 20
11.476590
 30
0.0
  0
SPLINE
  5
206
100
AcDbEntity
  8
SNAP_ON_AIR_LOGO_final
 62
7
100
AcDbSpline
 70
8
 71
3
 72
8
 73
4
 74
0
 40
0
 40
0
 40
0
 40
0
 40
1
 40
1
 40
1
 40
1
 10
17.914025
 20
11.476590
 30
0.0
 10
17.922857
 20
11.478777
 30
0.0
 10
17.933547
 20
11.480469
 30
0.0
 10
17.942998
 20
11.482409
 30
0.0
  0
SPLINE
  5
207
100
AcDbEntity
  8
SNAP_ON_AIR_LOGO_final
 62
7
100
AcDbSpline
 70
8
 71
3
 72
8
 73
4
 74
0
 40
0
 40
0
 40
0
 40
0
 40
1
 40
1
 40
1
 40
1
 10
17.942998
 20
11.482409
 30
0.0
 10
17.981877
 20
11.489838
 30
0.0
 10
18.017908
 20
11.498258
 30
0.0
 10
18.048904
 20
11.504738
 30
0.0
  0
SPLINE
  5
208
100
AcDbEntity
  8
SNAP_ON_AIR_LOGO_final
 62
7
100
AcDbSpline
 70
8
 71
3
 72
8
 73
4
 74
0
 40
0
 40
0
 40
0
 40
0
 40
1
 40
1
 40
1
 40
1
 10
18.048904
 20
11.504738
 30
0.0
 10
18.079900
 20
11.511218
 30
0.0
 10
18.105448
 20
11.518275
 30
0.0
 10
18.123484
 20
11.522444
 30
0.0
  0
SPLINE
  5
209
100
AcDbEntity
  8
SNAP_ON_AIR_LOGO_final
 62
7
100
AcDbSpline
 70
8
 71
3
 72
8
 73
4
 74
0
 40
0
 40
0
 40
0
 40
0
 40
1
 40
1
 40
1
 40
1
 10
18.123484
 20
11.522444
 30
0.0
 10
18.141396
 20
11.527149
 30
0.0
 10
18.151632
 20
11.529873
 30
0.0
 10
18.151632
 20
11.529873
 30
0.0
  0
LWPOLYLINE
  5
20a
100
AcDbEntity
  8
SNAP_ON_AIR_LOGO_final
 62
7
100
AcDbPolyline
 90
2
 70
0
 10
17.777086
 20
11.619596
 30
0.0
 10
18.572865
 20
11.754104
 30
0.0
  0
SPLINE
  5
20b
100
AcDbEntity
  8
SNAP_ON_AIR_LOGO_final
 62
7
100
AcDbSpline
 70
8
 71
3
 72
8
 73
4
 74
0
 40
0
 40
0
 40
0
 40
0
 40
1
 40
1
 40
1
 40
1
 10
15.912252
 20
10.300924
 30
0.0
 10
15.928101
 20
10.207235
 30
0.0
 10
15.876427
 20
10.120397
 30
0.0
 10
15.796853
 20
10.106983
 30
0.0
  0
LWPOLYLINE
  5
20c
100
AcDbEntity
  8
SNAP_ON_AIR_LOGO_final
 62
7
100
AcDbPolyline
 90
2
 70
0
 10
15.776011
 20
11.106815
 30
0.0
 10
15.912252
 20
10.300924
 30
0.0
  0
SPLINE
  5
20d
100
AcDbEntity
  8
SNAP_ON_AIR_LOGO_final
 62
7
100
AcDbSpline
 70
8
 71
3
 72
8
 73
4
 74
0
 40
0
 40
0
 40
0
 40
0
 40
1
 40
1
 40
1
 40
1
 10
15.104751
 20
9.989934
 30
0.0
 10
15.025177
 20
9.976520
 30
0.0
 10
14.947832
 20
10.041525
 30
0.0
 10
14.932025
 20
10.135214
 30
0.0
  0
LWPOLYLINE
  5
20e
100
AcDbEntity
  8
SNAP_ON_AIR_LOGO_final
 62
7
100
AcDbPolyline
 90
2
 70
0
 10
15.796853
 20
10.106983
 30
0.0
 10
15.104751
 20
9.989934
 30
0.0
  0
SPLINE
  5
20f
100
AcDbEntity
  8
SNAP_ON_AIR_LOGO_final
 62
7
100
AcDbSpline
 70
8
 71
3
 72
8
 73
4
 74
0
 40
0
 40
0
 40
0
 40
0
 40
1
 40
1
 40
1
 40
1
 10
14.795783
 20
10.941105
 30
0.0
 10
14.779935
 20
11.034753
 30
0.0
 10
14.831567
 20
11.121591
 30
0.0
 10
14.911141
 20
11.135046
 30
0.0
  0
LWPOLYLINE
  5
210
100
AcDbEntity
  8
SNAP_ON_AIR_LOGO_final
 62
7
100
AcDbPolyline
 90
2
 70
0
 10
14.932025
 20
10.135214
 30
0.0
 10
14.795783
 20
10.941105
 30
0.0
  0
SPLINE
  5
211
100
AcDbEntity
  8
SNAP_ON_AIR_LOGO_final
 62
7
100
AcDbSpline
 70
8
 71
3
 72
8
 73
4
 74
0
 40
0
 40
0
 40
0
 40
0
 40
1
 40
1
 40
1
 40
1
 10
15.603284
 20
11.252054
 30
0.0
 10
15.682858
 20
11.265509
 30
0.0
 10
15.760162
 20
11.200504
 30
0.0
 10
15.776011
 20
11.106815
 30
0.0
  0
SPLINE
  5
212
100
AcDbEntity
  8
SNAP_ON_AIR_LOGO_final
 62
7
100
AcDbSpline
 70
8
 71
3
 72
8
 73
4
 74
0
 40
0
 40
0
 40
0
 40
0
 40
1
 40
1
 40
1
 40
1
 10
15.314429
 20
11.050214
 30
0.0
 10
15.314429
 20
11.050214
 30
0.0
 10
15.303863
 20
11.049388
 30
0.0
 10
15.285373
 20
11.047985
 30
0.0
  0
SPLINE
  5
213
100
AcDbEntity
  8
SNAP_ON_AIR_LOGO_final
 62
7
100
AcDbSpline
 70
8
 71
3
 72
8
 73
4
 74
0
 40
0
 40
0
 40
0
 40
0
 40
1
 40
1
 40
1
 40
1
 10
15.285373
 20
11.047985
 30
0.0
 10
15.267006
 20
11.046004
 30
0.0
 10
15.240551
 20
11.044229
 30
0.0
 10
15.209142
 20
11.040184
 30
0.0
  0
SPLINE
  5
214
100
AcDbEntity
  8
SNAP_ON_AIR_LOGO_final
 62
7
100
AcDbSpline
 70
8
 71
3
 72
8
 73
4
 74
0
 40
0
 40
0
 40
0
 40
0
 40
1
 40
1
 40
1
 40
1
 10
15.209142
 20
11.040184
 30
0.0
 10
15.177734
 20
11.036098
 30
0.0
 10
15.140960
 20
11.032219
 30
0.0
 10
15.101792
 20
11.026441
 30
0.0
  0
SPLINE
  5
215
100
AcDbEntity
  8
SNAP_ON_AIR_LOGO_final
 62
7
100
AcDbSpline
 70
8
 71
3
 72
8
 73
4
 74
0
 40
0
 40
0
 40
0
 40
0
 40
1
 40
1
 40
1
 40
1
 10
15.101792
 20
11.026441
 30
0.0
 10
15.091804
 20
11.024872
 30
0.0
 10
15.082559
 20
11.023923
 30
0.0
 10
15.071498
 20
11.021777
 30
0.0
  0
SPLINE
  5
216
100
AcDbEntity
  8
SNAP_ON_AIR_LOGO_final
 62
7
100
AcDbSpline
 70
8
 71
3
 72
8
 73
4
 74
0
 40
0
 40
0
 40
0
 40
0
 40
1
 40
1
 40
1
 40
1
 10
15.071498
 20
11.021777
 30
0.0
 10
15.061840
 20
11.020208
 30
0.0
 10
15.050861
 20
11.016948
 30
0.0
 10
15.040172
 20
11.012490
 30
0.0
  0
SPLINE
  5
217
100
AcDbEntity
  8
SNAP_ON_AIR_LOGO_final
 62
7
100
AcDbSpline
 70
8
 71
3
 72
8
 73
4
 74
0
 40
0
 40
0
 40
0
 40
0
 40
1
 40
1
 40
1
 40
1
 10
15.040172
 20
11.012490
 30
0.0
 10
15.019618
 20
11.003699
 30
0.0
 10
15.000426
 20
10.989873
 30
0.0
 10
14.984412
 20
10.972126
 30
0.0
  0
SPLINE
  5
218
100
AcDbEntity
  8
SNAP_ON_AIR_LOGO_final
 62
7
100
AcDbSpline
 70
8
 71
3
 72
8
 73
4
 74
0
 40
0
 40
0
 40
0
 40
0
 40
1
 40
1
 40
1
 40
1
 10
14.984412
 20
10.972126
 30
0.0
 10
14.952467
 20
10.936342
 30
0.0
 10
14.934472
 20
10.884793
 30
0.0
 10
14.935050
 20
10.835389
 30
0.0
  0
SPLINE
  5
219
100
AcDbEntity
  8
SNAP_ON_AIR_LOGO_final
 62
7
100
AcDbSpline
 70
8
 71
3
 72
8
 73
4
 74
0
 40
0
 40
0
 40
0
 40
0
 40
1
 40
1
 40
1
 40
1
 10
14.935050
 20
10.835389
 30
0.0
 10
14.934720
 20
10.810625
 30
0.0
 10
14.940044
 20
10.786894
 30
0.0
 10
14.944171
 20
10.766505
 30
0.0
  0
SPLINE
  5
21a
100
AcDbEntity
  8
SNAP_ON_AIR_LOGO_final
 62
7
100
AcDbSpline
 70
8
 71
3
 72
8
 73
4
 74
0
 40
0
 40
0
 40
0
 40
0
 40
1
 40
1
 40
1
 40
1
 10
14.944171
 20
10.766505
 30
0.0
 10
14.948422
 20
10.745580
 30
0.0
 10
14.952426
 20
10.725810
 30
0.0
 10
14.956140
 20
10.707526
 30
0.0
  0
SPLINE
  5
21b
100
AcDbEntity
  8
SNAP_ON_AIR_LOGO_final
 62
7
100
AcDbSpline
 70
8
 71
3
 72
8
 73
4
 74
0
 40
0
 40
0
 40
0
 40
0
 40
1
 40
1
 40
1
 40
1
 10
14.956140
 20
10.707526
 30
0.0
 10
14.963363
 20
10.670959
 30
0.0
 10
14.970792
 20
10.640747
 30
0.0
 10
14.975332
 20
10.619450
 30
0.0
  0
SPLINE
  5
21c
100
AcDbEntity
  8
SNAP_ON_AIR_LOGO_final
 62
7
100
AcDbSpline
 70
8
 71
3
 72
8
 73
4
 74
0
 40
0
 40
0
 40
0
 40
0
 40
1
 40
1
 40
1
 40
1
 10
14.975332
 20
10.619450
 30
0.0
 10
14.980409
 20
10.598277
 30
0.0
 10
14.983256
 20
10.586143
 30
0.0
 10
14.983256
 20
10.586143
 30
0.0
  0
SPLINE
  5
21d
100
AcDbEntity
  8
SNAP_ON_AIR_LOGO_final
 62
7
100
AcDbSpline
 70
8
 71
3
 72
8
 73
4
 74
0
 40
0
 40
0
 40
0
 40
0
 40
1
 40
1
 40
1
 40
1
 10
14.983256
 20
10.586143
 30
0.0
 10
14.983256
 20
10.586143
 30
0.0
 10
14.982018
 20
10.598525
 30
0.0
 10
14.979831
 20
10.620193
 30
0.0
  0
SPLINE
  5
21e
100
AcDbEntity
  8
SNAP_ON_AIR_LOGO_final
 62
7
100
AcDbSpline
 70
8
 71
3
 72
8
 73
4
 74
0
 40
0
 40
0
 40
0
 40
0
 40
1
 40
1
 40
1
 40
1
 10
14.979831
 20
10.620193
 30
0.0
 10
14.977107
 20
10.641820
 30
0.0
 10
14.974218
 20
10.672816
 30
0.0
 10
14.969017
 20
10.709714
 30
0.0
  0
SPLINE
  5
21f
100
AcDbEntity
  8
SNAP_ON_AIR_LOGO_final
 62
7
100
AcDbSpline
 70
8
 71
3
 72
8
 73
4
 74
0
 40
0
 40
0
 40
0
 40
0
 40
1
 40
1
 40
1
 40
1
 10
14.969017
 20
10.709714
 30
0.0
 10
14.966500
 20
10.728163
 30
0.0
 10
14.963776
 20
10.748180
 30
0.0
 10
14.960887
 20
10.769353
 30
0.0
  0
SPLINE
  5
220
100
AcDbEntity
  8
SNAP_ON_AIR_LOGO_final
 62
7
100
AcDbSpline
 70
8
 71
3
 72
8
 73
4
 74
0
 40
0
 40
0
 40
0
 40
0
 40
1
 40
1
 40
1
 40
1
 10
14.960887
 20
10.769353
 30
0.0
 10
14.957915
 20
10.790980
 30
0.0
 10
14.954902
 20
10.811905
 30
0.0
 10
14.955645
 20
10.833573
 30
0.0
  0
SPLINE
  5
221
100
AcDbEntity
  8
SNAP_ON_AIR_LOGO_final
 62
7
100
AcDbSpline
 70
8
 71
3
 72
8
 73
4
 74
0
 40
0
 40
0
 40
0
 40
0
 40
1
 40
1
 40
1
 40
1
 10
14.955645
 20
10.833573
 30
0.0
 10
14.956966
 20
10.876827
 30
0.0
 10
14.973021
 20
10.921236
 30
0.0
 10
15.001045
 20
10.951985
 30
0.0
  0
SPLINE
  5
222
100
AcDbEntity
  8
SNAP_ON_AIR_LOGO_final
 62
7
100
AcDbSpline
 70
8
 71
3
 72
8
 73
4
 74
0
 40
0
 40
0
 40
0
 40
0
 40
1
 40
1
 40
1
 40
1
 10
15.001045
 20
10.951985
 30
0.0
 10
15.014789
 20
10.967627
 30
0.0
 10
15.031298
 20
10.979885
 30
0.0
 10
15.049128
 20
10.987851
 30
0.0
  0
SPLINE
  5
223
100
AcDbEntity
  8
SNAP_ON_AIR_LOGO_final
 62
7
100
AcDbSpline
 70
8
 71
3
 72
8
 73
4
 74
0
 40
0
 40
0
 40
0
 40
0
 40
1
 40
1
 40
1
 40
1
 10
15.049128
 20
10.987851
 30
0.0
 10
15.057754
 20
10.991400
 30
0.0
 10
15.066421
 20
10.994661
 30
0.0
 10
15.076822
 20
10.996931
 30
0.0
  0
SPLINE
  5
224
100
AcDbEntity
  8
SNAP_ON_AIR_LOGO_final
 62
7
100
AcDbSpline
 70
8
 71
3
 72
8
 73
4
 74
0
 40
0
 40
0
 40
0
 40
0
 40
1
 40
1
 40
1
 40
1
 10
15.076822
 20
10.996931
 30
0.0
 10
15.085654
 20
10.999118
 30
0.0
 10
15.096344
 20
11.000810
 30
0.0
 10
15.105795
 20
11.002750
 30
0.0
  0
SPLINE
  5
225
100
AcDbEntity
  8
SNAP_ON_AIR_LOGO_final
 62
7
100
AcDbSpline
 70
8
 71
3
 72
8
 73
4
 74
0
 40
0
 40
0
 40
0
 40
0
 40
1
 40
1
 40
1
 40
1
 10
15.105795
 20
11.002750
 30
0.0
 10
15.144674
 20
11.010179
 30
0.0
 10
15.180705
 20
11.018599
 30
0.0
 10
15.211701
 20
11.025079
 30
0.0
  0
SPLINE
  5
226
100
AcDbEntity
  8
SNAP_ON_AIR_LOGO_final
 62
7
100
AcDbSpline
 70
8
 71
3
 72
8
 73
4
 74
0
 40
0
 40
0
 40
0
 40
0
 40
1
 40
1
 40
1
 40
1
 10
15.211701
 20
11.025079
 30
0.0
 10
15.242697
 20
11.031558
 30
0.0
 10
15.268245
 20
11.038616
 30
0.0
 10
15.286281
 20
11.042785
 30
0.0
  0
SPLINE
  5
227
100
AcDbEntity
  8
SNAP_ON_AIR_LOGO_final
 62
7
100
AcDbSpline
 70
8
 71
3
 72
8
 73
4
 74
0
 40
0
 40
0
 40
0
 40
0
 40
1
 40
1
 40
1
 40
1
 10
15.286281
 20
11.042785
 30
0.0
 10
15.304193
 20
11.047490
 30
0.0
 10
15.314429
 20
11.050214
 30
0.0
 10
15.314429
 20
11.050214
 30
0.0
  0
LWPOLYLINE
  5
228
100
AcDbEntity
  8
SNAP_ON_AIR_LOGO_final
 62
7
100
AcDbPolyline
 90
2
 70
0
 10
14.911141
 20
11.135046
 30
0.0
 10
15.603284
 20
11.252054
 30
0.0
  0
SPLINE
  5
229
100
AcDbEntity
  8
SNAP_ON_AIR_LOGO_final
 62
7
100
AcDbSpline
 70
8
 71
3
 72
8
 73
4
 74
0
 40
0
 40
0
 40
0
 40
0
 40
1
 40
1
 40
1
 40
1
 10
16.797321
 20
10.470501
 30
0.0
 10
16.814986
 20
10.366122
 30
0.0
 10
16.757410
 20
10.269338
 30
0.0
 10
16.668756
 20
10.254356
 30
0.0
  0
LWPOLYLINE
  5
22a
100
AcDbEntity
  8
SNAP_ON_AIR_LOGO_final
 62
7
100
AcDbPolyline
 90
2
 70
0
 10
16.667642
 20
11.237596
 30
0.0
 10
16.797321
 20
10.470501
 30
0.0
  0
SPLINE
  5
22b
100
AcDbEntity
  8
SNAP_ON_AIR_LOGO_final
 62
7
100
AcDbSpline
 70
8
 71
3
 72
8
 73
4
 74
0
 40
0
 40
0
 40
0
 40
0
 40
1
 40
1
 40
1
 40
1
 10
16.101463
 20
10.158479
 30
0.0
 10
16.012809
 20
10.143456
 30
0.0
 10
15.926631
 20
10.215931
 30
0.0
 10
15.908967
 20
10.320351
 30
0.0
  0
LWPOLYLINE
  5
22c
100
AcDbEntity
  8
SNAP_ON_AIR_LOGO_final
 62
7
100
AcDbPolyline
 90
2
 70
0
 10
16.668756
 20
10.254356
 30
0.0
 10
16.101463
 20
10.158479
 30
0.0
  0
SPLINE
  5
22d
100
AcDbEntity
  8
SNAP_ON_AIR_LOGO_final
 62
7
100
AcDbSpline
 70
8
 71
3
 72
8
 73
4
 74
0
 40
0
 40
0
 40
0
 40
0
 40
1
 40
1
 40
1
 40
1
 10
15.779288
 20
11.087404
 30
0.0
 10
15.761664
 20
11.191783
 30
0.0
 10
15.819198
 20
11.288568
 30
0.0
 10
15.907894
 20
11.303550
 30
0.0
  0
LWPOLYLINE
  5
22e
100
AcDbEntity
  8
SNAP_ON_AIR_LOGO_final
 62
7
100
AcDbPolyline
 90
2
 70
0
 10
15.908967
 20
10.320351
 30
0.0
 10
15.779288
 20
11.087404
 30
0.0
  0
SPLINE
  5
22f
100
AcDbEntity
  8
SNAP_ON_AIR_LOGO_final
 62
7
100
AcDbSpline
 70
8
 71
3
 72
8
 73
4
 74
0
 40
0
 40
0
 40
0
 40
0
 40
1
 40
1
 40
1
 40
1
 10
16.475146
 20
11.399468
 30
0.0
 10
16.563800
 20
11.414450
 30
0.0
 10
16.649977
 20
11.341975
 30
0.0
 10
16.667642
 20
11.237596
 30
0.0
  0
SPLINE
  5
230
100
AcDbEntity
  8
SNAP_ON_AIR_LOGO_final
 62
7
100
AcDbSpline
 70
8
 71
3
 72
8
 73
4
 74
0
 40
0
 40
0
 40
0
 40
0
 40
1
 40
1
 40
1
 40
1
 10
16.298354
 20
11.216555
 30
0.0
 10
16.298354
 20
11.216555
 30
0.0
 10
16.287788
 20
11.215730
 30
0.0
 10
16.269298
 20
11.214326
 30
0.0
  0
SPLINE
  5
231
100
AcDbEntity
  8
SNAP_ON_AIR_LOGO_final
 62
7
100
AcDbSpline
 70
8
 71
3
 72
8
 73
4
 74
0
 40
0
 40
0
 40
0
 40
0
 40
1
 40
1
 40
1
 40
1
 10
16.269298
 20
11.214326
 30
0.0
 10
16.250932
 20
11.212345
 30
0.0
 10
16.224476
 20
11.210571
 30
0.0
 10
16.193067
 20
11.206526
 30
0.0
  0
SPLINE
  5
232
100
AcDbEntity
  8
SNAP_ON_AIR_LOGO_final
 62
7
100
AcDbSpline
 70
8
 71
3
 72
8
 73
4
 74
0
 40
0
 40
0
 40
0
 40
0
 40
1
 40
1
 40
1
 40
1
 10
16.193067
 20
11.206526
 30
0.0
 10
16.161659
 20
11.202440
 30
0.0
 10
16.124885
 20
11.198560
 30
0.0
 10
16.085717
 20
11.192782
 30
0.0
  0
SPLINE
  5
233
100
AcDbEntity
  8
SNAP_ON_AIR_LOGO_final
 62
7
100
AcDbSpline
 70
8
 71
3
 72
8
 73
4
 74
0
 40
0
 40
0
 40
0
 40
0
 40
1
 40
1
 40
1
 40
1
 10
16.085717
 20
11.192782
 30
0.0
 10
16.075729
 20
11.191214
 30
0.0
 10
16.066484
 20
11.190264
 30
0.0
 10
16.055423
 20
11.188118
 30
0.0
  0
SPLINE
  5
234
100
AcDbEntity
  8
SNAP_ON_AIR_LOGO_final
 62
7
100
AcDbSpline
 70
8
 71
3
 72
8
 73
4
 74
0
 40
0
 40
0
 40
0
 40
0
 40
1
 40
1
 40
1
 40
1
 10
16.055423
 20
11.188118
 30
0.0
 10
16.045765
 20
11.186550
 30
0.0
 10
16.034787
 20
11.183289
 30
0.0
 10
16.024097
 20
11.178832
 30
0.0
  0
SPLINE
  5
235
100
AcDbEntity
  8
SNAP_ON_AIR_LOGO_final
 62
7
100
AcDbSpline
 70
8
 71
3
 72
8
 73
4
 74
0
 40
0
 40
0
 40
0
 40
0
 40
1
 40
1
 40
1
 40
1
 10
16.024097
 20
11.178832
 30
0.0
 10
16.003543
 20
11.170041
 30
0.0
 10
15.984351
 20
11.156214
 30
0.0
 10
15.968337
 20
11.138467
 30
0.0
  0
SPLINE
  5
236
100
AcDbEntity
  8
SNAP_ON_AIR_LOGO_final
 62
7
100
AcDbSpline
 70
8
 71
3
 72
8
 73
4
 74
0
 40
0
 40
0
 40
0
 40
0
 40
1
 40
1
 40
1
 40
1
 10
15.968337
 20
11.138467
 30
0.0
 10
15.936392
 20
11.102684
 30
0.0
 10
15.918397
 20
11.051134
 30
0.0
 10
15.918975
 20
11.001731
 30
0.0
  0
SPLINE
  5
237
100
AcDbEntity
  8
SNAP_ON_AIR_LOGO_final
 62
7
100
AcDbSpline
 70
8
 71
3
 72
8
 73
4
 74
0
 40
0
 40
0
 40
0
 40
0
 40
1
 40
1
 40
1
 40
1
 10
15.918975
 20
11.001731
 30
0.0
 10
15.918645
 20
10.976967
 30
0.0
 10
15.923969
 20
10.953235
 30
0.0
 10
15.928097
 20
10.932846
 30
0.0
  0
SPLINE
  5
238
100
AcDbEntity
  8
SNAP_ON_AIR_LOGO_final
 62
7
100
AcDbSpline
 70
8
 71
3
 72
8
 73
4
 74
0
 40
0
 40
0
 40
0
 40
0
 40
1
 40
1
 40
1
 40
1
 10
15.928097
 20
10.932846
 30
0.0
 10
15.932348
 20
10.911921
 30
0.0
 10
15.936351
 20
10.892151
 30
0.0
 10
15.940024
 20
10.873868
 30
0.0
  0
SPLINE
  5
239
100
AcDbEntity
  8
SNAP_ON_AIR_LOGO_final
 62
7
100
AcDbSpline
 70
8
 71
3
 72
8
 73
4
 74
0
 40
0
 40
0
 40
0
 40
0
 40
1
 40
1
 40
1
 40
1
 10
15.940024
 20
10.873868
 30
0.0
 10
15.947288
 20
10.837300
 30
0.0
 10
15.954717
 20
10.807088
 30
0.0
 10
15.959257
 20
10.785792
 30
0.0
  0
SPLINE
  5
23a
100
AcDbEntity
  8
SNAP_ON_AIR_LOGO_final
 62
7
100
AcDbSpline
 70
8
 71
3
 72
8
 73
4
 74
0
 40
0
 40
0
 40
0
 40
0
 40
1
 40
1
 40
1
 40
1
 10
15.959257
 20
10.785792
 30
0.0
 10
15.964334
 20
10.764619
 30
0.0
 10
15.967182
 20
10.752485
 30
0.0
 10
15.967182
 20
10.752485
 30
0.0
  0
SPLINE
  5
23b
100
AcDbEntity
  8
SNAP_ON_AIR_LOGO_final
 62
7
100
AcDbSpline
 70
8
 71
3
 72
8
 73
4
 74
0
 40
0
 40
0
 40
0
 40
0
 40
1
 40
1
 40
1
 40
1
 10
15.967182
 20
10.752485
 30
0.0
 10
15.967182
 20
10.752485
 30
0.0
 10
15.965944
 20
10.764866
 30
0.0
 10
15.963756
 20
10.786535
 30
0.0
  0
SPLINE
  5
23c
100
AcDbEntity
  8
SNAP_ON_AIR_LOGO_final
 62
7
100
AcDbSpline
 70
8
 71
3
 72
8
 73
4
 74
0
 40
0
 40
0
 40
0
 40
0
 40
1
 40
1
 40
1
 40
1
 10
15.963756
 20
10.786535
 30
0.0
 10
15.961032
 20
10.808161
 30
0.0
 10
15.958143
 20
10.839157
 30
0.0
 10
15.952943
 20
10.876055
 30
0.0
  0
SPLINE
  5
23d
100
AcDbEntity
  8
SNAP_ON_AIR_LOGO_final
 62
7
100
AcDbSpline
 70
8
 71
3
 72
8
 73
4
 74
0
 40
0
 40
0
 40
0
 40
0
 40
1
 40
1
 40
1
 40
1
 10
15.952943
 20
10.876055
 30
0.0
 10
15.950425
 20
10.894504
 30
0.0
 10
15.947701
 20
10.914521
 30
0.0
 10
15.944812
 20
10.935694
 30
0.0
  0
SPLINE
  5
23e
100
AcDbEntity
  8
SNAP_ON_AIR_LOGO_final
 62
7
100
AcDbSpline
 70
8
 71
3
 72
8
 73
4
 74
0
 40
0
 40
0
 40
0
 40
0
 40
1
 40
1
 40
1
 40
1
 10
15.944812
 20
10.935694
 30
0.0
 10
15.941840
 20
10.957321
 30
0.0
 10
15.938827
 20
10.978246
 30
0.0
 10
15.939570
 20
10.999915
 30
0.0
  0
SPLINE
  5
23f
100
AcDbEntity
  8
SNAP_ON_AIR_LOGO_final
 62
7
100
AcDbSpline
 70
8
 71
3
 72
8
 73
4
 74
0
 40
0
 40
0
 40
0
 40
0
 40
1
 40
1
 40
1
 40
1
 10
15.939570
 20
10.999915
 30
0.0
 10
15.940891
 20
11.043168
 30
0.0
 10
15.956905
 20
11.087578
 30
0.0
 10
15.984970
 20
11.118326
 30
0.0
  0
SPLINE
  5
240
100
AcDbEntity
  8
SNAP_ON_AIR_LOGO_final
 62
7
100
AcDbSpline
 70
8
 71
3
 72
8
 73
4
 74
0
 40
0
 40
0
 40
0
 40
0
 40
1
 40
1
 40
1
 40
1
 10
15.984970
 20
11.118326
 30
0.0
 10
15.998714
 20
11.133968
 30
0.0
 10
16.015223
 20
11.146226
 30
0.0
 10
16.033053
 20
11.154192
 30
0.0
  0
SPLINE
  5
241
100
AcDbEntity
  8
SNAP_ON_AIR_LOGO_final
 62
7
100
AcDbSpline
 70
8
 71
3
 72
8
 73
4
 74
0
 40
0
 40
0
 40
0
 40
0
 40
1
 40
1
 40
1
 40
1
 10
16.033053
 20
11.154192
 30
0.0
 10
16.041679
 20
11.157741
 30
0.0
 10
16.050346
 20
11.161002
 30
0.0
 10
16.060747
 20
11.163272
 30
0.0
  0
SPLINE
  5
242
100
AcDbEntity
  8
SNAP_ON_AIR_LOGO_final
 62
7
100
AcDbSpline
 70
8
 71
3
 72
8
 73
4
 74
0
 40
0
 40
0
 40
0
 40
0
 40
1
 40
1
 40
1
 40
1
 10
16.060747
 20
11.163272
 30
0.0
 10
16.069579
 20
11.165459
 30
0.0
 10
16.080269
 20
11.167152
 30
0.0
 10
16.089721
 20
11.169091
 30
0.0
  0
SPLINE
  5
243
100
AcDbEntity
  8
SNAP_ON_AIR_LOGO_final
 62
7
100
AcDbSpline
 70
8
 71
3
 72
8
 73
4
 74
0
 40
0
 40
0
 40
0
 40
0
 40
1
 40
1
 40
1
 40
1
 10
16.089721
 20
11.169091
 30
0.0
 10
16.128599
 20
11.176521
 30
0.0
 10
16.164631
 20
11.184940
 30
0.0
 10
16.195626
 20
11.191420
 30
0.0
  0
SPLINE
  5
244
100
AcDbEntity
  8
SNAP_ON_AIR_LOGO_final
 62
7
100
AcDbSpline
 70
8
 71
3
 72
8
 73
4
 74
0
 40
0
 40
0
 40
0
 40
0
 40
1
 40
1
 40
1
 40
1
 10
16.195626
 20
11.191420
 30
0.0
 10
16.226622
 20
11.197900
 30
0.0
 10
16.252170
 20
11.204957
 30
0.0
 10
16.270206
 20
11.209126
 30
0.0
  0
SPLINE
  5
245
100
AcDbEntity
  8
SNAP_ON_AIR_LOGO_final
 62
7
100
AcDbSpline
 70
8
 71
3
 72
8
 73
4
 74
0
 40
0
 40
0
 40
0
 40
0
 40
1
 40
1
 40
1
 40
1
 10
16.270206
 20
11.209126
 30
0.0
 10
16.288119
 20
11.213831
 30
0.0
 10
16.298354
 20
11.216555
 30
0.0
 10
16.298354
 20
11.216555
 30
0.0
  0
LWPOLYLINE
  5
246
100
AcDbEntity
  8
SNAP_ON_AIR_LOGO_final
 62
7
100
AcDbPolyline
 90
2
 70
0
 10
15.907894
 20
11.303550
 30
0.0
 10
16.475146
 20
11.399468
 30
0.0
  0
SPLINE
  5
247
100
AcDbEntity
  8
SNAP_ON_AIR_LOGO_final
 62
7
100
AcDbSpline
 70
8
 71
3
 72
8
 73
4
 74
0
 40
0
 40
0
 40
0
 40
0
 40
1
 40
1
 40
1
 40
1
 10
14.927113
 20
10.164142
 30
0.0
 10
14.945645
 20
10.054480
 30
0.0
 10
14.885180
 20
9.952825
 30
0.0
 10
14.792069
 20
9.937101
 30
0.0
  0
LWPOLYLINE
  5
248
100
AcDbEntity
  8
SNAP_ON_AIR_LOGO_final
 62
7
100
AcDbPolyline
 90
2
 70
0
 10
14.800654
 20
10.912169
 30
0.0
 10
14.927113
 20
10.164142
 30
0.0
  0
SPLINE
  5
249
100
AcDbEntity
  8
SNAP_ON_AIR_LOGO_final
 62
7
100
AcDbSpline
 70
8
 71
3
 72
8
 73
4
 74
0
 40
0
 40
0
 40
0
 40
0
 40
1
 40
1
 40
1
 40
1
 10
14.327916
 20
9.858600
 30
0.0
 10
14.255028
 20
9.846301
 30
0.0
 10
14.181521
 20
9.890793
 30
0.0
 10
14.144541
 20
9.968220
 30
0.0
  0
SPLINE
  5
24a
100
AcDbEntity
  8
SNAP_ON_AIR_LOGO_final
 62
7
100
AcDbSpline
 70
8
 71
3
 72
8
 73
4
 74
0
 40
0
 40
0
 40
0
 40
0
 40
1
 40
1
 40
1
 40
1
 10
14.144541
 20
9.968220
 30
0.0
 10
13.998353
 20
10.274257
 30
0.0
 10
13.907924
 20
10.547731
 30
0.0
 10
13.856994
 20
10.727391
 30
0.0
  0
SPLINE
  5
24b
100
AcDbEntity
  8
SNAP_ON_AIR_LOGO_final
 62
7
100
AcDbSpline
 70
8
 71
3
 72
8
 73
4
 74
0
 40
0
 40
0
 40
0
 40
0
 40
1
 40
1
 40
1
 40
1
 10
13.856994
 20
10.727391
 30
0.0
 10
13.824058
 20
10.843656
 30
0.0
 10
13.885183
 20
10.961613
 30
0.0
 10
13.986632
 20
10.978783
 30
0.0
  0
LWPOLYLINE
  5
24c
100
AcDbEntity
  8
SNAP_ON_AIR_LOGO_final
 62
7
100
AcDbPolyline
 90
2
 70
0
 10
14.792069
 20
9.937101
 30
0.0
 10
14.327916
 20
9.858600
 30
0.0
  0
SPLINE
  5
24d
100
AcDbEntity
  8
SNAP_ON_AIR_LOGO_final
 62
7
100
AcDbSpline
 70
8
 71
3
 72
8
 73
4
 74
0
 40
0
 40
0
 40
0
 40
0
 40
1
 40
1
 40
1
 40
1
 10
14.598458
 20
11.082212
 30
0.0
 10
14.691611
 20
11.097937
 30
0.0
 10
14.782122
 20
11.021830
 30
0.0
 10
14.800654
 20
10.912169
 30
0.0
  0
SPLINE
  5
24e
100
AcDbEntity
  8
SNAP_ON_AIR_LOGO_final
 62
7
100
AcDbSpline
 70
8
 71
3
 72
8
 73
4
 74
0
 40
0
 40
0
 40
0
 40
0
 40
1
 40
1
 40
1
 40
1
 10
14.404229
 20
10.896337
 30
0.0
 10
14.404229
 20
10.896337
 30
0.0
 10
14.393663
 20
10.895511
 30
0.0
 10
14.375173
 20
10.894108
 30
0.0
  0
SPLINE
  5
24f
100
AcDbEntity
  8
SNAP_ON_AIR_LOGO_final
 62
7
100
AcDbSpline
 70
8
 71
3
 72
8
 73
4
 74
0
 40
0
 40
0
 40
0
 40
0
 40
1
 40
1
 40
1
 40
1
 10
14.375173
 20
10.894108
 30
0.0
 10
14.356807
 20
10.892127
 30
0.0
 10
14.330351
 20
10.890352
 30
0.0
 10
14.298942
 20
10.886307
 30
0.0
  0
SPLINE
  5
250
100
AcDbEntity
  8
SNAP_ON_AIR_LOGO_final
 62
7
100
AcDbSpline
 70
8
 71
3
 72
8
 73
4
 74
0
 40
0
 40
0
 40
0
 40
0
 40
1
 40
1
 40
1
 40
1
 10
14.298942
 20
10.886307
 30
0.0
 10
14.267534
 20
10.882221
 30
0.0
 10
14.230760
 20
10.878342
 30
0.0
 10
14.191592
 20
10.872563
 30
0.0
  0
SPLINE
  5
251
100
AcDbEntity
  8
SNAP_ON_AIR_LOGO_final
 62
7
100
AcDbSpline
 70
8
 71
3
 72
8
 73
4
 74
0
 40
0
 40
0
 40
0
 40
0
 40
1
 40
1
 40
1
 40
1
 10
14.191592
 20
10.872563
 30
0.0
 10
14.181604
 20
10.870995
 30
0.0
 10
14.172359
 20
10.870046
 30
0.0
 10
14.161298
 20
10.867900
 30
0.0
  0
SPLINE
  5
252
100
AcDbEntity
  8
SNAP_ON_AIR_LOGO_final
 62
7
100
AcDbSpline
 70
8
 71
3
 72
8
 73
4
 74
0
 40
0
 40
0
 40
0
 40
0
 40
1
 40
1
 40
1
 40
1
 10
14.161298
 20
10.867900
 30
0.0
 10
14.151640
 20
10.866331
 30
0.0
 10
14.140661
 20
10.863071
 30
0.0
 10
14.129972
 20
10.858613
 30
0.0
  0
SPLINE
  5
253
100
AcDbEntity
  8
SNAP_ON_AIR_LOGO_final
 62
7
100
AcDbSpline
 70
8
 71
3
 72
8
 73
4
 74
0
 40
0
 40
0
 40
0
 40
0
 40
1
 40
1
 40
1
 40
1
 10
14.129972
 20
10.858613
 30
0.0
 10
14.109418
 20
10.849822
 30
0.0
 10
14.090226
 20
10.835996
 30
0.0
 10
14.074212
 20
10.818249
 30
0.0
  0
SPLINE
  5
254
100
AcDbEntity
  8
SNAP_ON_AIR_LOGO_final
 62
7
100
AcDbSpline
 70
8
 71
3
 72
8
 73
4
 74
0
 40
0
 40
0
 40
0
 40
0
 40
1
 40
1
 40
1
 40
1
 10
14.074212
 20
10.818249
 30
0.0
 10
14.042267
 20
10.782465
 30
0.0
 10
14.024272
 20
10.730915
 30
0.0
 10
14.024850
 20
10.681512
 30
0.0
  0
SPLINE
  5
255
100
AcDbEntity
  8
SNAP_ON_AIR_LOGO_final
 62
7
100
AcDbSpline
 70
8
 71
3
 72
8
 73
4
 74
0
 40
0
 40
0
 40
0
 40
0
 40
1
 40
1
 40
1
 40
1
 10
14.024850
 20
10.681512
 30
0.0
 10
14.024520
 20
10.656748
 30
0.0
 10
14.029844
 20
10.633017
 30
0.0
 10
14.033971
 20
10.612628
 30
0.0
  0
SPLINE
  5
256
100
AcDbEntity
  8
SNAP_ON_AIR_LOGO_final
 62
7
100
AcDbSpline
 70
8
 71
3
 72
8
 73
4
 74
0
 40
0
 40
0
 40
0
 40
0
 40
1
 40
1
 40
1
 40
1
 10
14.033971
 20
10.612628
 30
0.0
 10
14.038222
 20
10.591703
 30
0.0
 10
14.042226
 20
10.571933
 30
0.0
 10
14.045940
 20
10.553649
 30
0.0
  0
SPLINE
  5
257
100
AcDbEntity
  8
SNAP_ON_AIR_LOGO_final
 62
7
100
AcDbSpline
 70
8
 71
3
 72
8
 73
4
 74
0
 40
0
 40
0
 40
0
 40
0
 40
1
 40
1
 40
1
 40
1
 10
14.045940
 20
10.553649
 30
0.0
 10
14.053163
 20
10.517081
 30
0.0
 10
14.060592
 20
10.486870
 30
0.0
 10
14.065132
 20
10.465573
 30
0.0
  0
SPLINE
  5
258
100
AcDbEntity
  8
SNAP_ON_AIR_LOGO_final
 62
7
100
AcDbSpline
 70
8
 71
3
 72
8
 73
4
 74
0
 40
0
 40
0
 40
0
 40
0
 40
1
 40
1
 40
1
 40
1
 10
14.065132
 20
10.465573
 30
0.0
 10
14.070209
 20
10.444400
 30
0.0
 10
14.073057
 20
10.432266
 30
0.0
 10
14.073057
 20
10.432266
 30
0.0
  0
SPLINE
  5
259
100
AcDbEntity
  8
SNAP_ON_AIR_LOGO_final
 62
7
100
AcDbSpline
 70
8
 71
3
 72
8
 73
4
 74
0
 40
0
 40
0
 40
0
 40
0
 40
1
 40
1
 40
1
 40
1
 10
14.073057
 20
10.432266
 30
0.0
 10
14.073057
 20
10.432266
 30
0.0
 10
14.071818
 20
10.444648
 30
0.0
 10
14.069631
 20
10.466316
 30
0.0
  0
SPLINE
  5
25a
100
AcDbEntity
  8
SNAP_ON_AIR_LOGO_final
 62
7
100
AcDbSpline
 70
8
 71
3
 72
8
 73
4
 74
0
 40
0
 40
0
 40
0
 40
0
 40
1
 40
1
 40
1
 40
1
 10
14.069631
 20
10.466316
 30
0.0
 10
14.066907
 20
10.487943
 30
0.0
 10
14.064018
 20
10.518939
 30
0.0
 10
14.058818
 20
10.555837
 30
0.0
  0
SPLINE
  5
25b
100
AcDbEntity
  8
SNAP_ON_AIR_LOGO_final
 62
7
100
AcDbSpline
 70
8
 71
3
 72
8
 73
4
 74
0
 40
0
 40
0
 40
0
 40
0
 40
1
 40
1
 40
1
 40
1
 10
14.058818
 20
10.555837
 30
0.0
 10
14.056300
 20
10.574285
 30
0.0
 10
14.053576
 20
10.594303
 30
0.0
 10
14.050687
 20
10.615476
 30
0.0
  0
SPLINE
  5
25c
100
AcDbEntity
  8
SNAP_ON_AIR_LOGO_final
 62
7
100
AcDbSpline
 70
8
 71
3
 72
8
 73
4
 74
0
 40
0
 40
0
 40
0
 40
0
 40
1
 40
1
 40
1
 40
1
 10
14.050687
 20
10.615476
 30
0.0
 10
14.047715
 20
10.637103
 30
0.0
 10
14.044702
 20
10.658028
 30
0.0
 10
14.045445
 20
10.679696
 30
0.0
  0
SPLINE
  5
25d
100
AcDbEntity
  8
SNAP_ON_AIR_LOGO_final
 62
7
100
AcDbSpline
 70
8
 71
3
 72
8
 73
4
 74
0
 40
0
 40
0
 40
0
 40
0
 40
1
 40
1
 40
1
 40
1
 10
14.045445
 20
10.679696
 30
0.0
 10
14.046766
 20
10.722950
 30
0.0
 10
14.062821
 20
10.767359
 30
0.0
 10
14.090845
 20
10.798107
 30
0.0
  0
SPLINE
  5
25e
100
AcDbEntity
  8
SNAP_ON_AIR_LOGO_final
 62
7
100
AcDbSpline
 70
8
 71
3
 72
8
 73
4
 74
0
 40
0
 40
0
 40
0
 40
0
 40
1
 40
1
 40
1
 40
1
 10
14.090845
 20
10.798107
 30
0.0
 10
14.104589
 20
10.813750
 30
0.0
 10
14.121098
 20
10.826008
 30
0.0
 10
14.138928
 20
10.833973
 30
0.0
  0
SPLINE
  5
25f
100
AcDbEntity
  8
SNAP_ON_AIR_LOGO_final
 62
7
100
AcDbSpline
 70
8
 71
3
 72
8
 73
4
 74
0
 40
0
 40
0
 40
0
 40
0
 40
1
 40
1
 40
1
 40
1
 10
14.138928
 20
10.833973
 30
0.0
 10
14.147554
 20
10.837523
 30
0.0
 10
14.156221
 20
10.840783
 30
0.0
 10
14.166622
 20
10.843053
 30
0.0
  0
SPLINE
  5
260
100
AcDbEntity
  8
SNAP_ON_AIR_LOGO_final
 62
7
100
AcDbSpline
 70
8
 71
3
 72
8
 73
4
 74
0
 40
0
 40
0
 40
0
 40
0
 40
1
 40
1
 40
1
 40
1
 10
14.166622
 20
10.843053
 30
0.0
 10
14.175454
 20
10.845241
 30
0.0
 10
14.186144
 20
10.846933
 30
0.0
 10
14.195595
 20
10.848873
 30
0.0
  0
SPLINE
  5
261
100
AcDbEntity
  8
SNAP_ON_AIR_LOGO_final
 62
7
100
AcDbSpline
 70
8
 71
3
 72
8
 73
4
 74
0
 40
0
 40
0
 40
0
 40
0
 40
1
 40
1
 40
1
 40
1
 10
14.195595
 20
10.848873
 30
0.0
 10
14.234474
 20
10.856302
 30
0.0
 10
14.270505
 20
10.864722
 30
0.0
 10
14.301501
 20
10.871201
 30
0.0
  0
SPLINE
  5
262
100
AcDbEntity
  8
SNAP_ON_AIR_LOGO_final
 62
7
100
AcDbSpline
 70
8
 71
3
 72
8
 73
4
 74
0
 40
0
 40
0
 40
0
 40
0
 40
1
 40
1
 40
1
 40
1
 10
14.301501
 20
10.871201
 30
0.0
 10
14.332497
 20
10.877681
 30
0.0
 10
14.358045
 20
10.884739
 30
0.0
 10
14.376081
 20
10.888907
 30
0.0
  0
SPLINE
  5
263
100
AcDbEntity
  8
SNAP_ON_AIR_LOGO_final
 62
7
100
AcDbSpline
 70
8
 71
3
 72
8
 73
4
 74
0
 40
0
 40
0
 40
0
 40
0
 40
1
 40
1
 40
1
 40
1
 10
14.376081
 20
10.888907
 30
0.0
 10
14.393993
 20
10.893613
 30
0.0
 10
14.404229
 20
10.896337
 30
0.0
 10
14.404229
 20
10.896337
 30
0.0
  0
LWPOLYLINE
  5
264
100
AcDbEntity
  8
SNAP_ON_AIR_LOGO_final
 62
7
100
AcDbPolyline
 90
2
 70
0
 10
13.986632
 20
10.978783
 30
0.0
 10
14.598458
 20
11.082212
 30
0.0
  0
LWPOLYLINE
  5
265
100
AcDbEntity
  8
SNAP_ON_AIR_LOGO_final
 62
7
100
AcDbPolyline
 90
4
 70
1
 10
16.925093
 20
16.088396
 30
0.0
 10
17.207481
 20
16.088396
 30
0.0
 10
17.207481
 20
14.461508
 30
0.0
 10
16.925093
 20
14.461508
 30
0.0
  0
LWPOLYLINE
  5
266
100
AcDbEntity
  8
SNAP_ON_AIR_LOGO_final
 62
7
100
AcDbPolyline
 90
4
 70
1
 10
16.763056
 20
14.758383
 30
0.0
 10
16.481370
 20
14.758383
 30
0.0
 10
16.481370
 20
15.790902
 30
0.0
 10
16.763056
 20
15.790902
 30
0.0
  0
LWPOLYLINE
  5
267
100
AcDbEntity
  8
SNAP_ON_AIR_LOGO_final
 62
7
100
AcDbPolyline
 90
4
 70
1
 10
17.658633
 20
14.759497
 30
0.0
 10
17.372737
 20
14.759497
 30
0.0
 10
17.372737
 20
15.790779
 30
0.0
 10
17.658633
 20
15.790779
 30
0.0
  0
LWPOLYLINE
  5
268
100
AcDbEntity
  8
SNAP_ON_AIR_LOGO_final
 62
7
100
AcDbPolyline
 90
4
 70
1
 10
15.580262
 20
15.642610
 30
0.0
 10
15.861041
 20
15.642610
 30
0.0
 10
15.861041
 20
14.908491
 30
0.0
 10
15.580262
 20
14.908491
 30
0.0
  0
LWPOLYLINE
  5
269
100
AcDbEntity
  8
SNAP_ON_AIR_LOGO_final
 62
7
100
AcDbPolyline
 90
4
 70
1
 10
18.104420
 20
14.980512
 30
0.0
 10
17.822734
 20
14.980512
 30
0.0
 10
17.822734
 20
15.567163
 30
0.0
 10
18.104420
 20
15.567163
 30
0.0
  0
LWPOLYLINE
  5
26a
100
AcDbEntity
  8
SNAP_ON_AIR_LOGO_final
 62
7
100
AcDbPolyline
 90
4
 70
1
 10
19.452965
 20
14.979769
 30
0.0
 10
19.170701
 20
14.979769
 30
0.0
 10
19.170701
 20
15.566626
 30
0.0
 10
19.452965
 20
15.566626
 30
0.0
  0
LWPOLYLINE
  5
26b
100
AcDbEntity
  8
SNAP_ON_AIR_LOGO_final
 62
7
100
AcDbPolyline
 90
4
 70
1
 10
15.135631
 20
15.492913
 30
0.0
 10
15.418556
 20
15.492913
 30
0.0
 10
15.418556
 20
15.056908
 30
0.0
 10
15.135631
 20
15.056908
 30
0.0
  0
LWPOLYLINE
  5
26c
100
AcDbEntity
  8
SNAP_ON_AIR_LOGO_final
 62
7
100
AcDbPolyline
 90
4
 70
1
 10
16.030176
 20
15.492872
 30
0.0
 10
16.313431
 20
15.492872
 30
0.0
 10
16.313431
 20
15.056784
 30
0.0
 10
16.030176
 20
15.056784
 30
0.0
  0
LWPOLYLINE
  5
26d
100
AcDbEntity
  8
SNAP_ON_AIR_LOGO_final
 62
7
100
AcDbPolyline
 90
4
 70
1
 10
18.554004
 20
15.053689
 30
0.0
 10
18.276651
 20
15.053689
 30
0.0
 10
18.276651
 20
15.491964
 30
0.0
 10
18.554004
 20
15.491964
 30
0.0
  0
LWPOLYLINE
  5
26e
100
AcDbEntity
  8
SNAP_ON_AIR_LOGO_final
 62
7
100
AcDbPolyline
 90
4
 70
1
 10
19.902962
 20
15.092568
 30
0.0
 10
19.623091
 20
15.092568
 30
0.0
 10
19.623091
 20
15.456057
 30
0.0
 10
19.902962
 20
15.456057
 30
0.0
  0
LWPOLYLINE
  5
26f
100
AcDbEntity
  8
SNAP_ON_AIR_LOGO_final
 62
7
100
AcDbPolyline
 90
4
 70
1
 10
14.968064
 20
15.131983
 30
0.0
 10
14.680145
 20
15.131983
 30
0.0
 10
14.680145
 20
15.417797
 30
0.0
 10
14.968064
 20
15.417797
 30
0.0
  0
LWPOLYLINE
  5
270
100
AcDbEntity
  8
SNAP_ON_AIR_LOGO_final
 62
7
100
AcDbPolyline
 90
4
 70
1
 10
18.722479
 20
15.419035
 30
0.0
 10
19.006188
 20
15.419035
 30
0.0
 10
19.006188
 20
15.130910
 30
0.0
 10
18.722479
 20
15.130910
 30
0.0
  0
LWPOLYLINE
  5
271
100
AcDbEntity
  8
SNAP_ON_AIR_LOGO_final
 62
7
100
AcDbPolyline
 90
4
 70
1
 10
20.347428
 20
15.203385
 30
0.0
 10
20.066525
 20
15.203385
 30
0.0
 10
20.066525
 20
15.344455
 30
0.0
 10
20.347428
 20
15.344455
 30
0.0
  0
LWPOLYLINE
  5
272
100
AcDbEntity
  8
SNAP_ON_AIR_LOGO_final
 62
7
100
AcDbPolyline
 90
4
 70
1
 10
14.235432
 20
15.343423
 30
0.0
 10
14.516499
 20
15.343423
 30
0.0
 10
14.516499
 20
15.205077
 30
0.0
 10
14.235432
 20
15.205077
 30
0.0
  0
ENDSEC
  0
SECTION
  2
OBJECTS
  0
DICTIONARY
  5
C
330
0
100
AcDbDictionary
  3
ACAD_GROUP
350
D
  3
ACAD_MLINESTYLE
350
17
  0
DICTIONARY
  5
D
330
C
100
AcDbDictionary
  0
DICTIONARY
  5
1A
330
C
100
AcDbDictionary
  0
DICTIONARY
  5
17
330
C
100
AcDbDictionary
  3
STANDARD
350
18
  0
DICTIONARY
  5
19
330
C
100
AcDbDictionary
  0
ENDSEC
  0
EOF
